<svg width="177" height="77" viewBox="0 0 177 77" fill="none" xmlns="http://www.w3.org/2000/svg">
<path d="M99.726 41.256C99.726 39.7307 100.056 38.374 100.716 37.186C101.376 35.9833 102.293 35.052 103.466 34.392C104.654 33.7173 105.996 33.38 107.492 33.38C109.325 33.38 110.895 33.864 112.2 34.832C113.505 35.8 114.378 37.12 114.818 38.792H110.682C110.374 38.1467 109.934 37.6553 109.362 37.318C108.805 36.9807 108.167 36.812 107.448 36.812C106.289 36.812 105.351 37.2153 104.632 38.022C103.913 38.8287 103.554 39.9067 103.554 41.256C103.554 42.6053 103.913 43.6833 104.632 44.49C105.351 45.2967 106.289 45.7 107.448 45.7C108.167 45.7 108.805 45.5313 109.362 45.194C109.934 44.8567 110.374 44.3653 110.682 43.72H114.818C114.378 45.392 113.505 46.712 112.2 47.68C110.895 48.6333 109.325 49.11 107.492 49.11C105.996 49.11 104.654 48.78 103.466 48.12C102.293 47.4453 101.376 46.514 100.716 45.326C100.056 44.138 99.726 42.7813 99.726 41.256ZM116.374 42.84C116.374 41.5787 116.608 40.4713 117.078 39.518C117.562 38.5647 118.214 37.8313 119.036 37.318C119.857 36.8047 120.774 36.548 121.786 36.548C122.651 36.548 123.406 36.724 124.052 37.076C124.712 37.428 125.218 37.89 125.57 38.462V36.724H129.332V49H125.57V47.262C125.203 47.834 124.69 48.296 124.03 48.648C123.384 49 122.629 49.176 121.764 49.176C120.766 49.176 119.857 48.9193 119.036 48.406C118.214 47.878 117.562 47.1373 117.078 46.184C116.608 45.216 116.374 44.1013 116.374 42.84ZM125.57 42.862C125.57 41.9233 125.306 41.1827 124.778 40.64C124.264 40.0973 123.634 39.826 122.886 39.826C122.138 39.826 121.5 40.0973 120.972 40.64C120.458 41.168 120.202 41.9013 120.202 42.84C120.202 43.7787 120.458 44.5267 120.972 45.084C121.5 45.6267 122.138 45.898 122.886 45.898C123.634 45.898 124.264 45.6267 124.778 45.084C125.306 44.5413 125.57 43.8007 125.57 42.862ZM135.815 32.72V49H132.053V32.72H135.815ZM142.304 32.72V49H138.542V32.72H142.304ZM153.388 33.556V42.796C153.388 43.72 153.615 44.4313 154.07 44.93C154.525 45.4287 155.192 45.678 156.072 45.678C156.952 45.678 157.627 45.4287 158.096 44.93C158.565 44.4313 158.8 43.72 158.8 42.796V33.556H162.562V42.774C162.562 44.1527 162.269 45.3187 161.682 46.272C161.095 47.2253 160.303 47.944 159.306 48.428C158.323 48.912 157.223 49.154 156.006 49.154C154.789 49.154 153.696 48.9193 152.728 48.45C151.775 47.966 151.019 47.2473 150.462 46.294C149.905 45.326 149.626 44.1527 149.626 42.774V33.556H153.388ZM170.198 49.176C169.127 49.176 168.174 48.9927 167.338 48.626C166.502 48.2593 165.842 47.7607 165.358 47.13C164.874 46.4847 164.603 45.766 164.544 44.974H168.262C168.306 45.3993 168.504 45.744 168.856 46.008C169.208 46.272 169.641 46.404 170.154 46.404C170.623 46.404 170.983 46.316 171.232 46.14C171.496 45.9493 171.628 45.7073 171.628 45.414C171.628 45.062 171.445 44.8053 171.078 44.644C170.711 44.468 170.117 44.2773 169.296 44.072C168.416 43.8667 167.683 43.654 167.096 43.434C166.509 43.1993 166.003 42.84 165.578 42.356C165.153 41.8573 164.94 41.19 164.94 40.354C164.94 39.65 165.131 39.012 165.512 38.44C165.908 37.8533 166.48 37.3913 167.228 37.054C167.991 36.7167 168.893 36.548 169.934 36.548C171.474 36.548 172.684 36.9293 173.564 37.692C174.459 38.4547 174.972 39.4667 175.104 40.728H171.628C171.569 40.3027 171.379 39.9653 171.056 39.716C170.748 39.4667 170.337 39.342 169.824 39.342C169.384 39.342 169.047 39.43 168.812 39.606C168.577 39.7673 168.46 39.9947 168.46 40.288C168.46 40.64 168.643 40.904 169.01 41.08C169.391 41.256 169.978 41.432 170.77 41.608C171.679 41.8427 172.42 42.0773 172.992 42.312C173.564 42.532 174.063 42.8987 174.488 43.412C174.928 43.9107 175.155 44.5853 175.17 45.436C175.17 46.1547 174.965 46.8 174.554 47.372C174.158 47.9293 173.579 48.3693 172.816 48.692C172.068 49.0147 171.195 49.176 170.198 49.176Z" fill="#1B2534"/>
<rect width="70" height="70" rx="20" fill="#F563D3"/>
<path d="M17.7699 26.1579C17.7817 26.2242 17.7912 26.2905 17.7952 26.3573C17.8452 27.2152 18.4938 34.06 26.6475 42.3941C26.6475 42.3941 33.6909 49.5719 41.1039 51.0811C41.136 51.0877 41.1675 51.0949 41.1995 51.1037C41.6484 51.2258 45.4643 52.1903 47.4313 50.2177L50.2336 47.4656C50.2589 47.4408 50.2853 47.4165 50.3123 47.3933C50.5919 47.153 52.5381 45.3549 50.5913 43.4431C48.6209 41.508 46.137 39.1487 45.8558 38.8813C45.8423 38.8686 45.8293 38.8559 45.8164 38.8427C45.664 38.6869 44.2161 37.286 42.5203 38.5659C42.4713 38.6029 42.4252 38.6444 42.3813 38.6874L39.6375 41.3892C39.0227 41.972 38.0463 41.9643 37.4405 41.3721L28.0667 32.2017C27.4373 31.5858 27.4536 30.5799 28.1027 29.9838L30.2964 27.9709C30.2964 27.9709 32.6999 25.7856 30.1186 23.4252L26.287 19.6622C26.2634 19.639 26.2409 19.6153 26.2184 19.5904C25.9709 19.3164 24.1344 17.4405 21.9795 19.5285C21.9137 19.5921 21.8422 19.6495 21.7663 19.7003C21.0351 20.1931 17.1922 22.9462 17.7699 26.1579Z" fill="white"/>
<path d="M43.595 32.8617C44.1885 32.8613 44.6772 32.3776 44.5931 31.7901C44.4893 31.0647 44.2808 30.3563 43.9724 29.6873C43.5136 28.6921 42.8448 27.8081 42.0119 27.096C41.179 26.3838 40.2018 25.8605 39.1474 25.5619C38.4387 25.3612 37.7064 25.2652 36.9737 25.2754C36.3803 25.2837 35.9784 25.8415 36.0703 26.4278C36.1622 27.0142 36.7148 27.4037 37.3078 27.4286C37.731 27.4464 38.1519 27.5136 38.5618 27.6297C39.3177 27.8437 40.0182 28.2189 40.6153 28.7294C41.2124 29.2399 41.6918 29.8737 42.0207 30.5871C42.1991 30.974 42.3308 31.3793 42.4142 31.7947C42.5309 32.3765 43.0016 32.862 43.595 32.8617Z" fill="#F9A1E5"/>
<path d="M48.0335 32.9835C48.7484 33.0394 49.3811 32.504 49.3543 31.7874C49.3057 30.4842 49.0308 29.1959 48.5386 27.9811C47.8835 26.3641 46.8613 24.9215 45.5528 23.7674C44.2444 22.6133 42.6855 21.7793 40.9993 21.3312C39.7325 20.9945 38.42 20.8826 37.1209 20.9971C36.4066 21.0601 35.9544 21.7547 36.0992 22.4569C36.2439 23.1592 36.9317 23.6007 37.6477 23.5625C38.549 23.5144 39.455 23.6075 40.3324 23.8406C41.6295 24.1853 42.8287 24.8269 43.8352 25.7148C44.8418 26.6026 45.6281 27.7122 46.1321 28.9562C46.473 29.7976 46.6784 30.6849 46.7432 31.5851C46.7947 32.3003 47.3187 32.9275 48.0335 32.9835Z" fill="#F9A1E5"/>
</svg>
