<svg width="181" height="77" viewBox="0 0 181 77" fill="none" xmlns="http://www.w3.org/2000/svg">
<path d="M118.604 33.556V49H114.842V39.738L111.388 49H108.352L104.876 39.716V49H101.114V33.556H105.558L109.892 44.248L114.182 33.556H118.604ZM120.561 42.84C120.561 41.5787 120.796 40.4713 121.265 39.518C121.749 38.5647 122.402 37.8313 123.223 37.318C124.045 36.8047 124.961 36.548 125.973 36.548C126.839 36.548 127.594 36.724 128.239 37.076C128.899 37.428 129.405 37.89 129.757 38.462V36.724H133.519V49H129.757V47.262C129.391 47.834 128.877 48.296 128.217 48.648C127.572 49 126.817 49.176 125.951 49.176C124.954 49.176 124.045 48.9193 123.223 48.406C122.402 47.878 121.749 47.1373 121.265 46.184C120.796 45.216 120.561 44.1013 120.561 42.84ZM129.757 42.862C129.757 41.9233 129.493 41.1827 128.965 40.64C128.452 40.0973 127.821 39.826 127.073 39.826C126.325 39.826 125.687 40.0973 125.159 40.64C124.646 41.168 124.389 41.9013 124.389 42.84C124.389 43.7787 124.646 44.5267 125.159 45.084C125.687 45.6267 126.325 45.898 127.073 45.898C127.821 45.898 128.452 45.6267 128.965 45.084C129.493 44.5413 129.757 43.8007 129.757 42.862ZM138.133 35.448C137.473 35.448 136.93 35.2573 136.505 34.876C136.094 34.48 135.889 33.996 135.889 33.424C135.889 32.8373 136.094 32.3533 136.505 31.972C136.93 31.576 137.473 31.378 138.133 31.378C138.778 31.378 139.306 31.576 139.717 31.972C140.142 32.3533 140.355 32.8373 140.355 33.424C140.355 33.996 140.142 34.48 139.717 34.876C139.306 35.2573 138.778 35.448 138.133 35.448ZM140.003 36.724V49H136.241V36.724H140.003ZM146.491 32.72V49H142.729V32.72H146.491ZM157.576 33.556V42.796C157.576 43.72 157.803 44.4313 158.258 44.93C158.712 45.4287 159.38 45.678 160.26 45.678C161.14 45.678 161.814 45.4287 162.284 44.93C162.753 44.4313 162.988 43.72 162.988 42.796V33.556H166.75V42.774C166.75 44.1527 166.456 45.3187 165.87 46.272C165.283 47.2253 164.491 47.944 163.494 48.428C162.511 48.912 161.411 49.154 160.194 49.154C158.976 49.154 157.884 48.9193 156.916 48.45C155.962 47.966 155.207 47.2473 154.65 46.294C154.092 45.326 153.814 44.1527 153.814 42.774V33.556H157.576ZM174.385 49.176C173.315 49.176 172.361 48.9927 171.525 48.626C170.689 48.2593 170.029 47.7607 169.545 47.13C169.061 46.4847 168.79 45.766 168.731 44.974H172.449C172.493 45.3993 172.691 45.744 173.043 46.008C173.395 46.272 173.828 46.404 174.341 46.404C174.811 46.404 175.17 46.316 175.419 46.14C175.683 45.9493 175.815 45.7073 175.815 45.414C175.815 45.062 175.632 44.8053 175.265 44.644C174.899 44.468 174.305 44.2773 173.483 44.072C172.603 43.8667 171.87 43.654 171.283 43.434C170.697 43.1993 170.191 42.84 169.765 42.356C169.34 41.8573 169.127 41.19 169.127 40.354C169.127 39.65 169.318 39.012 169.699 38.44C170.095 37.8533 170.667 37.3913 171.415 37.054C172.178 36.7167 173.08 36.548 174.121 36.548C175.661 36.548 176.871 36.9293 177.751 37.692C178.646 38.4547 179.159 39.4667 179.291 40.728H175.815C175.757 40.3027 175.566 39.9653 175.243 39.716C174.935 39.4667 174.525 39.342 174.011 39.342C173.571 39.342 173.234 39.43 172.999 39.606C172.765 39.7673 172.647 39.9947 172.647 40.288C172.647 40.64 172.831 40.904 173.197 41.08C173.579 41.256 174.165 41.432 174.957 41.608C175.867 41.8427 176.607 42.0773 177.179 42.312C177.751 42.532 178.25 42.8987 178.675 43.412C179.115 43.9107 179.343 44.5853 179.357 45.436C179.357 46.1547 179.152 46.8 178.741 47.372C178.345 47.9293 177.766 48.3693 177.003 48.692C176.255 49.0147 175.383 49.176 174.385 49.176Z" fill="#1B2534"/>
<rect x="0.75" width="70" height="70" rx="20" fill="#9570FF"/>
<path d="M15.9316 30.3613L34.9076 37.6318L53.8835 30.3613V41.4457C53.8835 46.9685 49.4063 51.4457 43.8835 51.4457H25.9316C20.4088 51.4457 15.9316 46.9685 15.9316 41.4457V30.3613Z" fill="#BFA9FF"/>
<path d="M15.9316 28.1381C15.9316 23.3109 19.8449 19.3977 24.6721 19.3977H45.143C49.9702 19.3977 53.8835 23.3109 53.8835 28.1381L34.9076 35.4218L15.9316 28.1381Z" fill="white"/>
</svg>
