<svg width="179" height="179" viewBox="0 0 179 179" fill="none" xmlns="http://www.w3.org/2000/svg">
<path d="M144.039 8.39062H34.9609C18.7419 8.39062 5.59375 21.5388 5.59375 37.7578V141.242C5.59375 157.461 18.7419 170.609 34.9609 170.609H144.039C160.258 170.609 173.406 157.461 173.406 141.242V37.7578C173.406 21.5388 160.258 8.39062 144.039 8.39062Z" fill="#330000"/>
<path d="M90.0525 109.078H65.0275L58.5667 127.733C58.4921 128.349 58.1029 128.656 57.399 128.656H45.6521C44.869 128.656 44.5963 128.272 44.834 127.503L67.5027 60.175C68.1429 58.125 68.459 55.9876 68.4396 53.84C68.427 53.7452 68.4363 53.6488 68.467 53.5582C68.4977 53.4676 68.5488 53.3852 68.6164 53.3176C68.6841 53.25 68.7664 53.1988 68.857 53.1682C68.9476 53.1375 69.0441 53.1282 69.1389 53.1408H85.5845C86.06 53.1408 86.3327 53.3366 86.4096 53.7142L111.777 127.622C112.015 128.321 111.819 128.656 111.19 128.656H98.0376C97.7943 128.671 97.5522 128.612 97.3427 128.487C97.1333 128.363 96.9661 128.178 96.8629 127.957L90.0525 109.078ZM67.8243 96.4924H87.3185C86.8501 95.4645 78.0819 67.1741 77.4526 64.7898H77.3407L67.8243 96.4924ZM125.797 67.1252C124.694 67.1723 123.593 66.998 122.559 66.6125C121.525 66.227 120.579 65.6381 119.776 64.8807C118.991 64.0822 118.38 63.129 117.983 62.0817C117.586 61.0345 117.411 59.916 117.469 58.7975C117.417 57.6647 117.601 56.5335 118.009 55.4755C118.417 54.4175 119.04 53.4558 119.839 52.6514C120.648 51.8811 121.603 51.2803 122.648 50.884C123.693 50.4878 124.806 50.3042 125.922 50.3439C127.041 50.2857 128.159 50.4607 129.207 50.858C130.254 51.2552 131.207 51.8659 132.006 52.6514C132.77 53.4748 133.362 54.4427 133.748 55.4981C134.133 56.5535 134.304 57.6752 134.25 58.7975C134.308 59.916 134.133 61.0345 133.736 62.0817C133.339 63.129 132.728 64.0822 131.943 64.8807C131.119 65.6451 130.151 66.2374 129.096 66.6228C128.041 67.0082 126.919 67.179 125.797 67.1252ZM118.867 127.608V73.6559C118.848 73.5285 118.86 73.3985 118.9 73.2762C118.941 73.1539 119.009 73.0428 119.1 72.9517C119.191 72.8607 119.302 72.7922 119.425 72.7517C119.547 72.7113 119.677 72.7001 119.804 72.7189H131.915C132.042 72.7016 132.171 72.7139 132.293 72.7548C132.414 72.7958 132.525 72.8643 132.616 72.955C132.706 73.0457 132.775 73.1562 132.816 73.2778C132.857 73.3994 132.869 73.5288 132.852 73.6559V127.719C132.871 127.847 132.859 127.977 132.819 128.099C132.778 128.221 132.71 128.333 132.619 128.424C132.528 128.515 132.417 128.583 132.294 128.624C132.172 128.664 132.042 128.675 131.915 128.656H119.916C119.774 128.676 119.629 128.663 119.493 128.617C119.356 128.571 119.232 128.494 119.131 128.393C119.029 128.291 118.953 128.167 118.907 128.031C118.861 127.895 118.848 127.75 118.867 127.608Z" fill="#FF9A00"/>
</svg>
