<svg width="179" height="179" viewBox="0 0 179 179" fill="none" xmlns="http://www.w3.org/2000/svg">
<g clip-path="url(#clip0_1601_2505)">
<path d="M59.6663 179C76.1343 179 89.4997 165.634 89.4997 149.166V119.333H59.6663C43.1983 119.333 29.833 132.698 29.833 149.166C29.833 165.634 43.1983 179 59.6663 179Z" fill="#0ACF83"/>
<path d="M29.833 89.5003C29.833 73.0323 43.1983 59.667 59.6663 59.667H89.4997V119.334H59.6663C43.1983 119.334 29.833 105.968 29.833 89.5003Z" fill="#A259FF"/>
<path d="M29.833 29.8333C29.833 13.3653 43.1983 0 59.6663 0H89.4997V59.6667H59.6663C43.1983 59.6667 29.833 46.3013 29.833 29.8333Z" fill="#F24E1E"/>
<path d="M89.5 0H119.333C135.801 0 149.167 13.3653 149.167 29.8333C149.167 46.3013 135.801 59.6667 119.333 59.6667H89.5V0Z" fill="#FF7262"/>
<path d="M149.167 89.5003C149.167 105.968 135.801 119.334 119.333 119.334C102.865 119.334 89.5 105.968 89.5 89.5003C89.5 73.0323 102.865 59.667 119.333 59.667C135.801 59.667 149.167 73.0323 149.167 89.5003Z" fill="#1ABCFE"/>
</g>
<defs>
<clipPath id="clip0_1601_2505">
<rect width="179" height="179" fill="white"/>
</clipPath>
</defs>
</svg>
