<svg width="179" height="175" viewBox="0 0 179 175" fill="none" xmlns="http://www.w3.org/2000/svg">
<g clip-path="url(#clip0_1601_2517)">
<path d="M31.696 1.23184e-05H147.294C151.457 -0.0036597 155.581 0.813651 159.428 2.40518C163.275 3.99671 166.771 6.33123 169.715 9.27516C172.66 12.2191 174.995 15.7147 176.587 19.5619C178.178 23.4091 178.996 27.5325 178.993 31.696V142.826C178.996 146.989 178.178 151.112 176.586 154.959C174.994 158.806 172.659 162.302 169.715 165.245C166.771 168.189 163.275 170.523 159.428 172.114C155.58 173.706 151.457 174.523 147.294 174.518H31.696C27.5329 174.522 23.4099 173.705 19.563 172.113C15.716 170.522 12.2205 168.188 9.2766 165.244C6.33267 162.301 3.99803 158.805 2.40625 154.959C0.81447 151.112 -0.00320411 146.989 9.43548e-06 142.826V31.696C-0.00320351 27.5328 0.814445 23.4097 2.40618 19.5627C3.99792 15.7157 6.33251 12.2203 9.27639 9.2764C12.2203 6.33251 15.7157 3.99792 19.5627 2.40618C23.4097 0.814448 27.5327 -0.00320063 31.696 1.23184e-05Z" fill="#00005B"/>
<path d="M42.5127 122.39V45.644C42.5127 45.1239 42.7361 44.8237 43.2596 44.8237C44.5266 44.8237 45.7203 44.8237 47.4481 44.7504C49.2386 44.6772 51.1025 44.6771 53.1164 44.6004C55.1304 44.5236 57.3049 44.5271 59.605 44.4503C61.9052 44.3735 64.1425 44.377 66.3938 44.377C72.5089 44.377 77.563 45.1239 81.7514 46.6876C85.4963 47.96 88.911 50.0501 91.7478 52.8062C94.1521 55.2167 96.0092 58.1166 97.1928 61.3087C98.3205 64.4162 98.9003 67.6958 98.9066 71.0015C98.9066 77.4168 97.415 82.7128 94.4319 86.8897C91.4319 91.061 87.2438 94.2309 82.4146 95.9855C77.3431 97.8494 71.748 98.5196 65.6329 98.5196C63.8423 98.5196 62.6486 98.5196 61.9052 98.4463C61.1617 98.373 60.1146 98.373 58.6975 98.373V122.313C58.7141 122.436 58.7059 122.561 58.6734 122.681C58.6409 122.8 58.5848 122.912 58.5083 123.01C58.4319 123.108 58.3366 123.189 58.2283 123.249C58.1199 123.309 58.0005 123.347 57.8773 123.36H43.4062C42.8094 123.36 42.5127 123.06 42.5127 122.39ZM58.7708 59.2145V84.2754C59.8179 84.3487 60.7848 84.4255 61.6783 84.4255H65.6189C68.5355 84.4276 71.4343 83.9706 74.2087 83.0712C76.5863 82.3732 78.7104 81.0007 80.3238 79.1201C81.891 77.2527 82.638 74.7187 82.638 71.4413C82.706 69.1126 82.1105 66.8126 80.9207 64.8096C79.673 62.8709 77.8387 61.3814 75.6851 60.5583C72.8849 59.4605 69.888 58.9531 66.8824 59.0679C64.9453 59.0679 63.228 59.0679 61.8109 59.1412C60.7916 59.0758 59.7684 59.1003 58.7534 59.2145H58.7708Z" fill="#9999FF"/>
<path d="M109.339 63.5454H122.39C122.743 63.5534 123.086 63.6731 123.367 63.8876C123.649 64.102 123.855 64.4001 123.957 64.7391C124.185 65.3386 124.335 65.9651 124.404 66.603C124.554 67.3464 124.704 68.1667 124.777 68.9136C124.85 69.7338 124.927 70.6309 124.927 71.5977C127.167 68.9849 129.872 66.8108 132.906 65.1859C136.372 63.2582 140.277 62.2557 144.243 62.2749C144.366 62.2584 144.491 62.2666 144.61 62.2991C144.73 62.3316 144.842 62.3877 144.939 62.4641C145.037 62.5406 145.118 62.6358 145.178 62.7442C145.239 62.8526 145.277 62.9719 145.29 63.0952V77.9397C145.29 78.5366 144.916 78.7599 144.096 78.7599C141.39 78.6695 138.684 78.9192 136.04 79.5034C133.888 79.9506 131.789 80.6257 129.779 81.5173C128.336 82.1689 127.041 83.1084 125.974 84.2782V122.323C125.974 123.067 125.674 123.37 125.004 123.37H110.296C110.158 123.39 110.019 123.383 109.884 123.349C109.75 123.315 109.624 123.254 109.513 123.171C109.402 123.087 109.309 122.983 109.239 122.863C109.169 122.743 109.124 122.611 109.105 122.473V80.8472C109.105 79.0566 109.105 77.1928 109.028 75.2626C108.952 73.3324 108.955 71.3848 108.878 69.4476C108.878 67.7304 108.732 66.0899 108.582 64.3761C108.545 64.1982 108.579 64.0129 108.677 63.8598C108.775 63.7066 108.928 63.5976 109.105 63.5559C109.105 63.4791 109.252 63.4791 109.329 63.5559L109.339 63.5454Z" fill="#9999FF"/>
</g>
<defs>
<clipPath id="clip0_1601_2517">
<rect width="179" height="174.522" fill="white"/>
</clipPath>
</defs>
</svg>
