<?xml version="1.0" encoding="UTF-8"?>
<svg id="Layer_1" data-name="Layer 1" xmlns="http://www.w3.org/2000/svg" viewBox="0 0 367.4 152.79">
  <defs>
    <style>
      .cls-1 {
        fill: #fff;
      }

      .cls-2, .cls-3 {
        fill: none;
        stroke: #fff;
        stroke-miterlimit: 10;
      }

      .cls-4 {
        fill: #faa543;
      }

      .cls-3 {
        stroke-width: 3px;
      }

      .cls-5 {
        fill: #f68623;
      }
    </style>
  </defs>
  <g>
    <g>
      <path class="cls-4" d="m178.1,29.56h12.48v6.24h-11.54c-2.21.02-3.28.46-3.22,1.3,0,1.26,2.31,2.46,6.92,3.61,3.38.85,5.74,1.9,7.07,3.15,1.33,1.26,2,3.07,2,5.43,0,3.1-.9,5.44-2.7,7.02-1.8,1.58-4.43,2.37-7.9,2.37h-11.44l-.03-6.24h11.31c2.73-.11,4.15-.82,4.26-2.15,0-1.13-.89-1.92-2.66-2.37-6-1.49-9.65-2.98-10.94-4.47-1.29-1.48-1.93-3.28-1.93-5.38,0-5.72,2.77-8.56,8.32-8.52Z"/>
      <path class="cls-4" d="m203.06,29.56h12.48v6.24h-11.54c-2.21.02-3.28.46-3.22,1.3,0,1.26,2.31,2.46,6.92,3.61,3.38.85,5.74,1.9,7.07,3.15,1.33,1.26,2,3.07,2,5.43,0,3.1-.9,5.44-2.7,7.02-1.8,1.58-4.43,2.37-7.9,2.37h-11.44l-.03-6.24h11.31c2.73-.11,4.15-.82,4.26-2.15,0-1.13-.89-1.92-2.67-2.37-6-1.49-9.65-2.98-10.94-4.47-1.29-1.48-1.93-3.28-1.93-5.38,0-5.72,2.77-8.56,8.32-8.52Z"/>
      <path class="cls-4" d="m222.82,27.48c-.87,0-1.6-.3-2.21-.91-.61-.61-.91-1.34-.91-2.21s.3-1.6.91-2.21c.61-.61,1.34-.91,2.21-.91s1.6.3,2.21.91.91,1.34.91,2.21-.3,1.6-.91,2.21c-.61.61-1.34.91-2.21.91Zm3.12,2.08v29.12h-6.24v-29.12h6.24Z"/>
      <path class="cls-4" d="m238.42,29.56h12.48v6.24h-11.54c-2.21.02-3.28.46-3.22,1.3,0,1.26,2.31,2.46,6.92,3.61,3.38.85,5.74,1.9,7.07,3.15,1.33,1.26,2,3.07,2,5.43,0,3.1-.9,5.44-2.7,7.02-1.8,1.58-4.43,2.37-7.9,2.37h-11.44l-.03-6.24h11.31c2.73-.11,4.15-.82,4.26-2.15,0-1.13-.89-1.92-2.67-2.37-6-1.49-9.65-2.98-10.94-4.47-1.29-1.48-1.93-3.28-1.93-5.38,0-5.72,2.77-8.56,8.32-8.52Z"/>
      <path class="cls-4" d="m261.3,35.8v8.32c0,2.3.81,4.26,2.44,5.88,1.63,1.62,3.59,2.44,5.88,2.44v6.24c-4.03,0-7.46-1.42-10.3-4.26-2.84-2.84-4.26-6.27-4.26-10.3v-22.88h6.24v8.32h8.32v6.24h-8.32Z"/>
      <path class="cls-4" d="m302.9,44.12c0,4.03-1.42,7.46-4.26,10.3-2.84,2.84-6.27,4.26-10.3,4.26s-7.46-1.42-10.3-4.26c-2.84-2.84-4.26-6.27-4.26-10.3s1.42-7.46,4.26-10.3c2.84-2.84,6.27-4.26,10.3-4.26,3.14,0,5.92.86,8.32,2.57v-2.57h6.24v14.56Zm-8.68,5.88c1.62-1.63,2.44-3.59,2.44-5.88s-.81-4.26-2.44-5.88c-1.62-1.62-3.59-2.44-5.88-2.44s-4.26.81-5.88,2.44c-1.62,1.63-2.44,3.59-2.44,5.88s.81,4.26,2.44,5.88c1.62,1.62,3.59,2.44,5.88,2.44s4.26-.81,5.88-2.44Z"/>
      <path class="cls-4" d="m313.3,58.68h-6.24v-14.56c0-4.03,1.42-7.46,4.26-10.3,2.84-2.84,6.27-4.26,10.3-4.26s7.46,1.42,10.3,4.26c2.84,2.84,4.26,6.27,4.26,10.3v14.56h-6.24v-14.56c0-2.3-.81-4.26-2.44-5.88-1.62-1.62-3.59-2.44-5.88-2.44s-4.26.81-5.88,2.44c-1.62,1.63-2.44,3.59-2.44,5.88v14.56Z"/>
      <path class="cls-4" d="m346.59,35.8v8.32c0,2.3.81,4.26,2.44,5.88,1.62,1.62,3.59,2.44,5.88,2.44v6.24c-4.03,0-7.46-1.42-10.3-4.26-2.84-2.84-4.26-6.27-4.26-10.3v-22.88h6.24v8.32h8.32v6.24h-8.32Z"/>
    </g>
    <g>
      <path class="cls-5" d="m178.1,29.56h12.48v6.24h-11.54c-2.21.02-3.28.46-3.22,1.3,0,1.26,2.31,2.46,6.92,3.61,3.38.85,5.74,1.9,7.07,3.15,1.33,1.26,2,3.07,2,5.43,0,3.1-.9,5.44-2.7,7.02-1.8,1.58-4.43,2.37-7.9,2.37h-11.44l-.03-6.24h11.31c2.73-.11,4.15-.82,4.26-2.15,0-1.13-.89-1.92-2.66-2.37-6-1.49-9.65-2.98-10.94-4.47-1.29-1.48-1.93-3.28-1.93-5.38,0-5.72,2.77-8.56,8.32-8.52Z"/>
      <path class="cls-5" d="m203.06,29.56h12.48v6.24h-11.54c-2.21.02-3.28.46-3.22,1.3,0,1.26,2.31,2.46,6.92,3.61,3.38.85,5.74,1.9,7.07,3.15,1.33,1.26,2,3.07,2,5.43,0,3.1-.9,5.44-2.7,7.02-1.8,1.58-4.43,2.37-7.9,2.37h-11.44l-.03-6.24h11.31c2.73-.11,4.15-.82,4.26-2.15,0-1.13-.89-1.92-2.67-2.37-6-1.49-9.65-2.98-10.94-4.47-1.29-1.48-1.93-3.28-1.93-5.38,0-5.72,2.77-8.56,8.32-8.52Z"/>
      <path class="cls-5" d="m222.82,27.48c-.87,0-1.6-.3-2.21-.91-.61-.61-.91-1.34-.91-2.21s.3-1.6.91-2.21c.61-.61,1.34-.91,2.21-.91s1.6.3,2.21.91.91,1.34.91,2.21-.3,1.6-.91,2.21c-.61.61-1.34.91-2.21.91Zm3.12,2.08v29.12h-6.24v-29.12h6.24Z"/>
      <path class="cls-5" d="m238.42,29.56h12.48v6.24h-11.54c-2.21.02-3.28.46-3.22,1.3,0,1.26,2.31,2.46,6.92,3.61,3.38.85,5.74,1.9,7.07,3.15,1.33,1.26,2,3.07,2,5.43,0,3.1-.9,5.44-2.7,7.02-1.8,1.58-4.43,2.37-7.9,2.37h-11.44l-.03-6.24h11.31c2.73-.11,4.15-.82,4.26-2.15,0-1.13-.89-1.92-2.67-2.37-6-1.49-9.65-2.98-10.94-4.47-1.29-1.48-1.93-3.28-1.93-5.38,0-5.72,2.77-8.56,8.32-8.52Z"/>
      <path class="cls-5" d="m261.3,35.8v8.32c0,2.3.81,4.26,2.44,5.88,1.63,1.62,3.59,2.44,5.88,2.44v6.24c-4.03,0-7.46-1.42-10.3-4.26-2.84-2.84-4.26-6.27-4.26-10.3v-22.88h6.24v8.32h8.32v6.24h-8.32Z"/>
      <path class="cls-5" d="m302.9,44.12c0,4.03-1.42,7.46-4.26,10.3-2.84,2.84-6.27,4.26-10.3,4.26s-7.46-1.42-10.3-4.26c-2.84-2.84-4.26-6.27-4.26-10.3s1.42-7.46,4.26-10.3c2.84-2.84,6.27-4.26,10.3-4.26,3.14,0,5.92.86,8.32,2.57v-2.57h6.24v14.56Zm-8.68,5.88c1.62-1.63,2.44-3.59,2.44-5.88s-.81-4.26-2.44-5.88c-1.62-1.62-3.59-2.44-5.88-2.44s-4.26.81-5.88,2.44c-1.62,1.63-2.44,3.59-2.44,5.88s.81,4.26,2.44,5.88c1.62,1.62,3.59,2.44,5.88,2.44s4.26-.81,5.88-2.44Z"/>
      <path class="cls-5" d="m313.3,58.68h-6.24v-14.56c0-4.03,1.42-7.46,4.26-10.3,2.84-2.84,6.27-4.26,10.3-4.26s7.46,1.42,10.3,4.26c2.84,2.84,4.26,6.27,4.26,10.3v14.56h-6.24v-14.56c0-2.3-.81-4.26-2.44-5.88-1.62-1.62-3.59-2.44-5.88-2.44s-4.26.81-5.88,2.44c-1.62,1.63-2.44,3.59-2.44,5.88v14.56Z"/>
      <path class="cls-5" d="m346.59,35.8v8.32c0,2.3.81,4.26,2.44,5.88,1.62,1.62,3.59,2.44,5.88,2.44v6.24c-4.03,0-7.46-1.42-10.3-4.26-2.84-2.84-4.26-6.27-4.26-10.3v-22.88h6.24v8.32h8.32v6.24h-8.32Z"/>
    </g>
  </g>
  <g>
    <g>
      <path class="cls-1" d="m14.51,78.91h20.93v10.47h-19.35c-3.71.04-5.51.76-5.4,2.18,0,2.11,3.87,4.13,11.61,6.05,5.67,1.42,9.62,3.18,11.86,5.29,2.24,2.11,3.35,5.14,3.35,9.1,0,5.2-1.51,9.12-4.52,11.78-3.02,2.65-7.43,3.98-13.25,3.98H.55l-.05-10.47h18.97c4.58-.18,6.96-1.38,7.14-3.6,0-1.89-1.49-3.22-4.47-3.98-10.07-2.51-16.18-5.01-18.34-7.5-2.16-2.49-3.24-5.5-3.24-9.02,0-9.59,4.65-14.36,13.96-14.28Z"/>
      <path class="cls-1" d="m52.89,89.38v13.96c0,3.85,1.36,7.14,4.09,9.87,2.73,2.73,6.01,4.09,9.87,4.09v10.47c-6.76,0-12.52-2.38-17.28-7.14-4.76-4.76-7.14-10.52-7.14-17.28v-38.38h10.47v13.96h13.96v10.47h-13.96Z"/>
      <path class="cls-1" d="m157.56,103.34c0-6.76,2.38-12.52,7.14-17.28s10.52-7.14,17.28-7.14,12.52,2.38,17.28,7.14l.05.05-7.41,7.41-.05-.05c-2.73-2.73-6.02-4.09-9.87-4.09s-7.14,1.36-9.87,4.09c-2.73,2.73-4.09,6.02-4.09,9.87v24.42h-10.47v-24.42Z"/>
      <path class="cls-1" d="m213.39,89.38v13.96c0,3.85,1.36,7.14,4.09,9.87,2.73,2.73,6.01,4.09,9.87,4.09v10.47c-6.76,0-12.52-2.38-17.28-7.14-4.76-4.76-7.14-10.52-7.14-17.28v-38.38h10.47v13.96h13.96v10.47h-13.96Z"/>
      <path class="cls-1" d="m265.72,103.34c0,3.85,1.36,7.14,4.09,9.87,2.73,2.73,6.01,4.09,9.87,4.09s7.14-1.36,9.87-4.09c2.73-2.73,4.09-6.01,4.09-9.87v-24.42h10.47v24.42c0,6.76-2.38,12.52-7.14,17.28s-10.52,7.14-17.28,7.14-12.52-2.38-17.28-7.14c-4.76-4.76-7.14-10.52-7.14-17.28v-24.42h10.47v24.42Z"/>
      <path class="cls-1" d="m311.08,103.34c0-6.76,2.38-12.52,7.14-17.28,4.76-4.76,10.52-7.14,17.28-7.14s12.52,2.38,17.28,7.14c4.76,4.76,7.14,10.52,7.14,17.28s-2.38,12.52-7.14,17.28c-4.76,4.76-10.52,7.14-17.28,7.14-5.27,0-9.92-1.44-13.96-4.31v18.26h-10.47v-38.38Zm34.29,9.87c2.72-2.73,4.09-6.01,4.09-9.87s-1.36-7.14-4.09-9.87c-2.73-2.73-6.02-4.09-9.87-4.09s-7.14,1.36-9.87,4.09c-2.72,2.73-4.09,6.02-4.09,9.87s1.36,7.14,4.09,9.87c2.73,2.73,6.02,4.09,9.87,4.09s7.14-1.36,9.87-4.09Z"/>
    </g>
    <g>
      <path class="cls-1" d="m14.51,78.91h20.93v10.47h-19.35c-3.71.04-5.51.76-5.4,2.18,0,2.11,3.87,4.13,11.61,6.05,5.67,1.42,9.62,3.18,11.86,5.29,2.24,2.11,3.35,5.14,3.35,9.1,0,5.2-1.51,9.12-4.52,11.78-3.02,2.65-7.43,3.98-13.25,3.98H.55l-.05-10.47h18.97c4.58-.18,6.96-1.38,7.14-3.6,0-1.89-1.49-3.22-4.47-3.98-10.07-2.51-16.18-5.01-18.34-7.5-2.16-2.49-3.24-5.5-3.24-9.02,0-9.59,4.65-14.36,13.96-14.28Z"/>
      <path class="cls-1" d="m52.89,89.38v13.96c0,3.85,1.36,7.14,4.09,9.87,2.73,2.73,6.01,4.09,9.87,4.09v10.47c-6.76,0-12.52-2.38-17.28-7.14-4.76-4.76-7.14-10.52-7.14-17.28v-38.38h10.47v13.96h13.96v10.47h-13.96Z"/>
      <path class="cls-1" d="m157.56,103.34c0-6.76,2.38-12.52,7.14-17.28s10.52-7.14,17.28-7.14,12.52,2.38,17.28,7.14l.05.05-7.41,7.41-.05-.05c-2.73-2.73-6.02-4.09-9.87-4.09s-7.14,1.36-9.87,4.09c-2.73,2.73-4.09,6.02-4.09,9.87v24.42h-10.47v-24.42Z"/>
      <path class="cls-1" d="m213.39,89.38v13.96c0,3.85,1.36,7.14,4.09,9.87,2.73,2.73,6.01,4.09,9.87,4.09v10.47c-6.76,0-12.52-2.38-17.28-7.14-4.76-4.76-7.14-10.52-7.14-17.28v-38.38h10.47v13.96h13.96v10.47h-13.96Z"/>
      <path class="cls-1" d="m265.72,103.34c0,3.85,1.36,7.14,4.09,9.87,2.73,2.73,6.01,4.09,9.87,4.09s7.14-1.36,9.87-4.09c2.73-2.73,4.09-6.01,4.09-9.87v-24.42h10.47v24.42c0,6.76-2.38,12.52-7.14,17.28s-10.52,7.14-17.28,7.14-12.52-2.38-17.28-7.14c-4.76-4.76-7.14-10.52-7.14-17.28v-24.42h10.47v24.42Z"/>
      <path class="cls-1" d="m311.08,103.34c0-6.76,2.38-12.52,7.14-17.28,4.76-4.76,10.52-7.14,17.28-7.14s12.52,2.38,17.28,7.14c4.76,4.76,7.14,10.52,7.14,17.28s-2.38,12.52-7.14,17.28c-4.76,4.76-10.52,7.14-17.28,7.14-5.27,0-9.92-1.44-13.96-4.31v18.26h-10.47v-38.38Zm34.29,9.87c2.72-2.73,4.09-6.01,4.09-9.87s-1.36-7.14-4.09-9.87c-2.73-2.73-6.02-4.09-9.87-4.09s-7.14,1.36-9.87,4.09c-2.72,2.73-4.09,6.02-4.09,9.87s1.36,7.14,4.09,9.87c2.73,2.73,6.02,4.09,9.87,4.09s7.14-1.36,9.87-4.09Z"/>
    </g>
    <g>
      <path class="cls-2" d="m14.51,78.91h20.93v10.47h-19.35c-3.71.04-5.51.76-5.4,2.18,0,2.11,3.87,4.13,11.61,6.05,5.67,1.42,9.62,3.18,11.86,5.29,2.24,2.11,3.35,5.14,3.35,9.1,0,5.2-1.51,9.12-4.52,11.78-3.02,2.65-7.43,3.98-13.25,3.98H.55l-.05-10.47h18.97c4.58-.18,6.96-1.38,7.14-3.6,0-1.89-1.49-3.22-4.47-3.98-10.07-2.51-16.18-5.01-18.34-7.5-2.16-2.49-3.24-5.5-3.24-9.02,0-9.59,4.65-14.36,13.96-14.28Z"/>
      <path class="cls-2" d="m52.89,89.38v13.96c0,3.85,1.36,7.14,4.09,9.87,2.73,2.73,6.01,4.09,9.87,4.09v10.47c-6.76,0-12.52-2.38-17.28-7.14-4.76-4.76-7.14-10.52-7.14-17.28v-38.38h10.47v13.96h13.96v10.47h-13.96Z"/>
      <path class="cls-2" d="m157.56,103.34c0-6.76,2.38-12.52,7.14-17.28s10.52-7.14,17.28-7.14,12.52,2.38,17.28,7.14l.05.05-7.41,7.41-.05-.05c-2.73-2.73-6.02-4.09-9.87-4.09s-7.14,1.36-9.87,4.09c-2.73,2.73-4.09,6.02-4.09,9.87v24.42h-10.47v-24.42Z"/>
      <path class="cls-2" d="m213.39,89.38v13.96c0,3.85,1.36,7.14,4.09,9.87,2.73,2.73,6.01,4.09,9.87,4.09v10.47c-6.76,0-12.52-2.38-17.28-7.14-4.76-4.76-7.14-10.52-7.14-17.28v-38.38h10.47v13.96h13.96v10.47h-13.96Z"/>
      <path class="cls-2" d="m265.72,103.34c0,3.85,1.36,7.14,4.09,9.87,2.73,2.73,6.01,4.09,9.87,4.09s7.14-1.36,9.87-4.09c2.73-2.73,4.09-6.01,4.09-9.87v-24.42h10.47v24.42c0,6.76-2.38,12.52-7.14,17.28s-10.52,7.14-17.28,7.14-12.52-2.38-17.28-7.14c-4.76-4.76-7.14-10.52-7.14-17.28v-24.42h10.47v24.42Z"/>
      <path class="cls-2" d="m311.08,103.34c0-6.76,2.38-12.52,7.14-17.28,4.76-4.76,10.52-7.14,17.28-7.14s12.52,2.38,17.28,7.14c4.76,4.76,7.14,10.52,7.14,17.28s-2.38,12.52-7.14,17.28c-4.76,4.76-10.52,7.14-17.28,7.14-5.27,0-9.92-1.44-13.96-4.31v18.26h-10.47v-38.38Zm34.29,9.87c2.72-2.73,4.09-6.01,4.09-9.87s-1.36-7.14-4.09-9.87c-2.73-2.73-6.02-4.09-9.87-4.09s-7.14,1.36-9.87,4.09c-2.72,2.73-4.09,6.02-4.09,9.87s1.36,7.14,4.09,9.87c2.73,2.73,6.02,4.09,9.87,4.09s7.14-1.36,9.87-4.09Z"/>
    </g>
  </g>
  <circle class="cls-1" cx="107.14" cy="62.03" r="3.54"/>
  <circle class="cls-1" cx="126.15" cy="62.03" r="3.54"/>
  <circle class="cls-1" cx="80.19" cy="4.03" r="4.03"/>
  <line class="cls-3" x1="92.94" y1="35.71" x2="80.74" y2="5.39"/>
  <path class="cls-5" d="m159.13,65.9c0,11.6-4.09,21.49-12.26,29.66-8.17,8.17-18.06,12.26-29.66,12.26s-21.49-4.08-29.66-12.26c-8.17-8.17-12.26-18.06-12.26-29.66s4.08-21.49,12.26-29.66c8.17-8.17,18.06-12.26,29.66-12.26,9.04,0,17.03,2.46,23.95,7.39v-7.39h17.96v41.92Zm-24.98,16.94c4.68-4.68,7.02-10.32,7.02-16.94s-2.34-12.26-7.02-16.94-10.32-7.02-16.94-7.02-12.26,2.34-16.94,7.02-7.02,10.32-7.02,16.94,2.34,12.26,7.02,16.94,10.32,7.02,16.94,7.02,12.26-2.34,16.94-7.02Z"/>
</svg>