<svg width="45" height="35" viewBox="0 0 45 35" fill="none" xmlns="http://www.w3.org/2000/svg">
<g clip-path="url(#clip0_799_3452)">
<path d="M45.0004 19.7644V35.0073H25.0771V22.9787C25.0771 16.4644 25.8456 11.7501 27.3825 8.83583C29.3988 4.95012 32.5854 2.00726 36.9564 0.0144043L40.1218 5.12155C37.4851 6.24298 35.5393 7.90726 34.2915 10.1144C33.0436 12.3287 32.3457 15.5501 32.2047 19.7787L45.0004 19.7787V19.7644Z" fill="white"/>
<path d="M19.9232 19.7643V35.0071H0L0 22.9786C0 16.4643 0.768447 11.75 2.30534 8.83571C4.32164 4.93571 7.50822 1.99286 11.8722 0L15.0376 5.10714C12.4009 6.22857 10.4551 7.89286 9.20727 10.1C7.95942 12.3143 7.26148 15.5357 7.12048 19.7643L19.9232 19.7643Z" fill="white"/>
</g>
<defs>
<clipPath id="clip0_799_3452">
<rect width="45" height="35" fill="white"/>
</clipPath>
</defs>
</svg>
