<svg width="85" height="85" viewBox="0 0 85 85" fill="none" xmlns="http://www.w3.org/2000/svg">
<path d="M11.4737 79.0463C11.8006 78.0015 12.0731 77.1295 12.3479 76.2576C12.4284 76.0041 12.509 75.7506 12.5919 75.497C13.2434 73.4878 13.2528 73.4759 11.6277 72.1183C11.4381 71.9595 11.0283 71.9287 10.7701 72.0046C9.46472 72.386 8.17831 72.8291 6.88007 73.239C5.79267 73.5826 5.31412 73.4357 4.71474 72.4595C4.03245 71.353 3.40702 70.2109 2.77685 69.0713C2.34331 68.287 2.50441 67.6046 3.17722 67.0099C4.19829 66.1096 5.19092 65.176 6.2191 64.2804C6.59815 63.9511 6.63605 63.643 6.5792 63.1336C6.40862 61.6338 5.66474 60.9562 4.15564 60.8614C3.163 60.7974 2.19169 60.4539 1.20853 60.2359C0.483594 60.0748 0.0405784 59.6269 0.023995 58.8853C-0.00680284 57.4092 -0.0091719 55.9307 0.023995 54.4546C0.0405784 53.668 0.523868 53.2344 1.28671 53.0756C2.61812 52.7984 3.94243 52.4833 5.27858 52.225C5.8282 52.1184 6.06511 51.8696 6.29017 51.327C6.85401 49.9552 6.50575 49.024 5.30938 48.2089C4.53469 47.6806 3.89978 46.9461 3.1867 46.3229C2.51151 45.7353 2.34094 45.0506 2.77448 44.2639C3.41649 43.0982 4.05851 41.9325 4.75738 40.7999C5.31885 39.8901 5.81162 39.7526 6.87059 40.0843C8.11198 40.4729 9.35811 40.852 10.5853 41.2809C11.1183 41.4681 11.4358 41.3638 11.9001 41.0013C13.0633 40.0962 13.2576 39.1366 12.6156 37.8263C12.1915 36.9591 11.9901 35.9806 11.6964 35.0518C11.4429 34.2486 11.6253 33.5828 12.381 33.1444C13.5821 32.4455 14.7833 31.7489 16.001 31.0807C16.7164 30.6874 17.3703 30.8343 17.9175 31.4432C18.8486 32.4786 19.7938 33.4998 20.7107 34.5471C21.0376 34.9238 21.3432 34.9736 21.8549 34.9144C23.3545 34.7438 24.0297 33.995 24.134 32.4929C24.2027 31.5001 24.5438 30.5287 24.7618 29.5454C24.9229 28.8203 25.3635 28.3725 26.1074 28.3583C27.5857 28.3275 29.064 28.3251 30.5423 28.3559C31.3288 28.3725 31.7647 28.8535 31.9234 29.6164C32.203 30.948 32.5276 32.2701 32.7739 33.6065C32.8853 34.213 33.2122 34.4121 33.7571 34.6371C35.0648 35.1774 35.9414 34.8291 36.7279 33.7084C37.2846 32.9146 38.0309 32.2559 38.6729 31.519C39.2604 30.8438 39.9451 30.6708 40.7316 31.1044C41.8972 31.7465 43.0652 32.3862 44.1976 33.0828C45.1002 33.6373 45.2447 34.1491 44.913 35.1987C44.515 36.4687 44.1241 37.741 43.6811 38.9944C43.494 39.5204 43.6811 39.8048 43.9962 40.2241C44.8846 41.4017 45.8535 41.5913 47.166 40.9492C48.0331 40.525 49.0115 40.3236 49.9425 40.0298C50.748 39.7763 51.4114 39.9564 51.852 40.7099C52.539 41.8827 53.2237 43.0579 53.8847 44.2473C54.3182 45.0269 54.1666 45.7187 53.4961 46.3134C52.5201 47.1783 51.5796 48.081 50.5846 48.9221C50.0965 49.3344 50.0492 49.7087 50.125 50.358C50.2932 51.8199 51.0892 52.3032 52.4158 52.4454C53.4393 52.5567 54.439 52.8719 55.4506 53.097C56.1756 53.2581 56.6233 53.7011 56.6399 54.4428C56.6731 55.9189 56.6754 57.3974 56.6446 58.8759C56.628 59.6601 56.1471 60.0985 55.3843 60.2596C54.0529 60.5392 52.7309 60.8638 51.3924 61.1149C50.793 61.2286 50.5846 61.5485 50.3595 62.0958C49.8217 63.4061 50.1676 64.2828 51.2929 65.067C52.0889 65.6215 52.7499 66.3655 53.4843 67.0099C54.1547 67.5999 54.3277 68.287 53.8918 69.0713C53.2474 70.2346 52.6054 71.4027 51.9089 72.5353C51.3521 73.4404 50.8499 73.5778 49.7933 73.2485C48.5519 72.8599 47.3058 72.4832 46.0786 72.052C45.5432 71.8648 45.2281 71.9761 44.7638 72.3339C43.5887 73.239 43.4158 74.2057 44.0531 75.5112C44.4629 76.3524 44.6429 77.3049 44.9438 78.2029C45.2234 79.0392 45.0718 79.7311 44.2829 80.1931C43.0841 80.8945 41.8806 81.5887 40.6629 82.2569C39.9451 82.6502 39.296 82.4962 38.7463 81.8872C37.8343 80.8755 36.9008 79.8827 36.0148 78.8473C35.6405 78.409 35.3017 78.3711 34.7237 78.4445C33.288 78.6246 32.6673 79.3378 32.5512 80.757C32.4683 81.7782 32.1296 82.7805 31.9045 83.7898C31.7434 84.5149 31.2933 84.9579 30.5518 84.9745C29.0758 85.0077 27.5952 85.0101 26.1192 84.9745C25.3327 84.9556 24.9015 84.4722 24.7428 83.7093C24.4656 82.3777 24.1363 81.0556 23.8947 79.7169C23.7833 79.0985 23.4446 78.9184 22.9044 78.6933C21.592 78.146 20.7201 78.5109 19.936 79.6316C19.3792 80.4253 18.6354 81.0864 17.991 81.8209C17.4011 82.4938 16.7117 82.662 15.9299 82.2237C14.7169 81.546 13.4969 80.8755 12.3313 80.122C11.9546 79.878 11.7366 79.3899 11.4737 79.0463ZM41.9825 78.3024C41.511 76.8286 41.0846 75.3904 40.5895 73.9759C40.2839 73.1016 40.471 72.4595 41.1675 71.8529C41.9683 71.154 42.7453 70.4123 43.4253 69.5997C44.0933 68.7988 44.7969 68.6021 45.7683 68.9504C47.147 69.4456 48.5566 69.8603 49.9852 70.3199C50.3358 69.6849 50.6438 69.1281 50.9541 68.5713C49.7838 67.5099 48.7059 66.4958 47.5877 65.5291C46.8936 64.9272 46.7206 64.2804 47.0215 63.4014C47.3745 62.3707 47.6659 61.3092 47.872 60.2382C48.0544 59.2905 48.5424 58.7977 49.4806 58.6223C50.9518 58.3451 52.4111 57.9968 53.861 57.6817C53.861 56.9472 53.861 56.3098 53.861 55.6511C52.3282 55.3242 50.857 54.9948 49.3787 54.701C48.5164 54.5304 48.0591 54.0471 47.8838 53.1799C47.673 52.1397 47.4503 51.0854 47.0736 50.0997C46.678 49.0714 46.9149 48.3653 47.7227 47.6829C48.8267 46.7518 49.8715 45.7519 50.9707 44.7568C50.6154 44.1383 50.2955 43.5863 49.971 43.0271C48.4524 43.5128 47.0073 43.9441 45.5858 44.4369C44.7377 44.7307 44.1241 44.5174 43.5413 43.8611C42.8377 43.065 42.1057 42.2784 41.2907 41.5984C40.4971 40.9349 40.2578 40.2455 40.6108 39.2645C41.1083 37.8832 41.5229 36.471 41.9896 35.0281C41.3689 34.6822 40.8122 34.3718 40.2412 34.0543C39.1538 35.2532 38.1138 36.3857 37.088 37.5325C36.5526 38.132 35.9532 38.2741 35.1738 38.0182C34.1077 37.6699 33.0251 37.3548 31.9258 37.1416C30.9829 36.9591 30.4688 36.4947 30.2864 35.5517C30.0045 34.078 29.661 32.6161 29.3412 31.14C28.6304 31.14 27.9908 31.14 27.3227 31.14C27.0005 32.6303 26.657 34.0661 26.3869 35.5186C26.2045 36.5042 25.6715 36.9781 24.6883 37.1511C23.6744 37.3288 22.6628 37.6012 21.6986 37.9566C20.7509 38.3073 20.0663 38.1201 19.4195 37.3667C18.4601 36.2483 17.4461 35.175 16.4203 34.0424C15.8162 34.386 15.2618 34.7035 14.6838 35.0352C15.1599 36.5113 15.5816 37.9258 16.072 39.3167C16.3919 40.2218 16.2 40.8852 15.475 41.5178C14.653 42.2334 13.8783 43.0176 13.1557 43.8374C12.5469 44.5269 11.9096 44.7307 11.0307 44.425C9.61397 43.9298 8.17594 43.4986 6.69054 43.0247C6.3494 43.6289 6.03668 44.1857 5.70975 44.7662C6.85874 45.8064 7.9343 46.8205 9.0525 47.7848C9.77506 48.408 9.95274 49.0761 9.63292 49.9907C9.27519 51.019 9.00512 52.0852 8.78953 53.1538C8.60711 54.0613 8.12619 54.5423 7.22832 54.7176C5.75476 55.0067 4.29068 55.3479 2.79343 55.6725C2.79343 56.3643 2.79343 57.0041 2.79343 57.6817C4.30489 58.0087 5.77134 58.3451 7.24727 58.6342C8.14989 58.8119 8.62133 59.3023 8.7919 60.2122C8.97669 61.1978 9.16858 62.2048 9.55237 63.1218C10.0262 64.2543 9.7419 65.0173 8.84876 65.7589C7.76373 66.6593 6.7474 67.6425 5.69553 68.5927C6.06037 69.2182 6.37072 69.7513 6.70239 70.3223C8.18542 69.8461 9.62818 69.4172 11.0449 68.9196C11.9285 68.6093 12.5635 68.8296 13.1628 69.5191C13.8214 70.2773 14.5369 70.9905 15.276 71.6681C16.3516 72.649 16.4298 72.8599 15.9702 74.291C15.5414 75.6297 15.1173 76.9684 14.6861 78.3213C15.3139 78.6744 15.847 78.9776 16.4203 79.2999C17.4911 78.1199 18.5359 76.9945 19.5498 75.843C20.1113 75.2056 20.7296 75.0705 21.5351 75.3406C22.5704 75.6866 23.6246 76.0017 24.6954 76.1984C25.681 76.3784 26.1998 76.857 26.3846 77.8403C26.6594 79.3117 27.0124 80.7665 27.3298 82.2166C28.05 82.2166 28.6636 82.2166 29.3341 82.2166C29.6539 80.7476 30.0021 79.3141 30.2698 77.8688C30.4499 76.8926 30.9403 76.3808 31.9353 76.2055C32.9492 76.0254 33.9656 75.7719 34.9274 75.407C35.9129 75.0326 36.6118 75.234 37.2775 76.0183C38.2299 77.139 39.2462 78.2076 40.2483 79.3117C40.8643 78.9468 41.3973 78.6412 41.9825 78.3024Z" fill="#757575"/>
<path d="M48.2061 3.16566C48.5875 3.31647 48.8959 3.41073 49.1783 3.55447C50.1482 4.04461 51.1063 4.56067 52.0786 5.04609C52.8013 5.40663 53.4039 5.15684 53.6535 4.40043C54.0019 3.34004 54.3479 2.27729 54.6657 1.20511C54.8846 0.467551 55.3366 0.0268994 56.1111 0.0151173C57.3141 -0.00609059 58.517 -0.00609066 59.7176 0.0221865C60.4568 0.0386815 60.8852 0.476977 61.0971 1.17448C61.4125 2.21602 61.7515 3.24814 62.0858 4.28261C62.3848 5.20162 62.9592 5.4349 63.8302 4.98954C64.7718 4.50647 65.7158 4.02811 66.641 3.51441C67.3495 3.12089 68.0016 3.15388 68.5807 3.71235C69.407 4.50647 70.2121 5.32179 71.0101 6.14419C71.5728 6.72387 71.6151 7.37189 71.2291 8.08353C70.7088 9.03788 70.2121 10.0087 69.7201 10.9772C69.3081 11.7902 69.56 12.3628 70.4428 12.6456C71.4221 12.959 72.399 13.2818 73.3854 13.5669C74.2141 13.8073 74.7343 14.2833 74.739 15.1834C74.7461 16.3569 74.7414 17.5328 74.7084 18.7063C74.6896 19.4085 74.2776 19.8398 73.6232 20.0471C72.5309 20.3959 71.4386 20.7352 70.3486 21.0887C69.5953 21.3337 69.327 21.9488 69.6824 22.6604C70.1697 23.6336 70.6547 24.6092 71.1891 25.5541C71.6293 26.3341 71.5586 27.0174 70.9489 27.6419C70.1909 28.4195 69.4211 29.1901 68.6419 29.9488C68.0087 30.5662 67.3189 30.5898 66.5515 30.1515C65.6334 29.6284 64.6847 29.1571 63.7407 28.6787C62.9756 28.2923 62.3753 28.5444 62.1093 29.355C61.7633 30.4178 61.4219 31.4805 61.0947 32.548C60.8805 33.2455 60.445 33.6767 59.7058 33.6908C58.4746 33.7144 57.2434 33.712 56.0123 33.6814C55.3107 33.6626 54.8941 33.236 54.6893 32.5786C54.3667 31.5394 54.0348 30.5049 53.7005 29.4681C53.3827 28.4784 52.8437 28.2569 51.9044 28.7423C50.9627 29.2278 50.0258 29.7155 49.0936 30.2175C48.418 30.5803 47.7871 30.5544 47.2292 30.0148C46.384 29.1971 45.5507 28.3677 44.7362 27.5241C44.2018 26.9703 44.1641 26.3364 44.529 25.6578C45.0022 24.7765 45.4565 23.8857 45.9179 22.9997C46.5323 21.8144 46.3346 21.3502 45.0446 20.9449C44.1194 20.6551 43.2013 20.344 42.2691 20.0777C41.5299 19.8657 41.0779 19.4274 41.0591 18.6498C41.0308 17.4763 41.0285 16.3004 41.0473 15.1269C41.0615 14.321 41.497 13.8426 42.2809 13.6188C43.3261 13.3219 44.3572 12.9755 45.3883 12.6338C46.2098 12.3628 46.4594 11.7713 46.0733 11.0055C45.5837 10.0347 45.094 9.06145 44.5667 8.11181C44.1524 7.36482 44.2159 6.7003 44.8044 6.09942C45.6072 5.28173 46.4123 4.46405 47.2527 3.68643C47.5116 3.44843 47.893 3.33061 48.2061 3.16566ZM48.5074 6.40575C48.418 6.45759 48.3144 6.50472 48.2273 6.57306C47.6788 7.01842 47.2715 7.41901 47.7941 8.23434C48.8911 9.95218 49.9976 11.736 48.4886 13.7861C48.1449 14.2527 47.7282 14.7616 47.2268 14.9996C46.384 15.3955 45.4542 15.6147 44.5479 15.8597C43.997 16.0082 43.7357 16.2297 43.7286 16.8754C43.7216 17.5493 44.0511 17.7402 44.5785 17.8651C44.8915 17.9405 45.1929 18.0842 45.5107 18.129C47.4693 18.4023 48.7052 19.4792 49.0912 21.4233C49.1972 21.9582 49.2137 22.5897 49.03 23.0893C48.7193 23.9376 48.2438 24.7317 47.7894 25.5211C47.4928 26.0324 47.4057 26.4 47.9048 26.8878C48.378 27.3497 48.7334 27.2884 49.1995 26.9774C49.4679 26.7983 49.7975 26.7111 50.0541 26.5226C51.5654 25.4174 53.0885 25.2077 54.7764 26.2068C55.3955 26.5721 55.8945 26.9043 56.0994 27.616C56.3677 28.5468 56.7114 29.4587 56.9515 30.3965C57.0857 30.922 57.3659 31.0234 57.8367 31.0092C58.2957 30.9951 58.6724 31.0139 58.8207 30.4083C59.0561 29.4398 59.3221 28.4619 59.7341 27.5594C59.9648 27.0551 60.4521 26.6003 60.9299 26.2846C62.5919 25.1888 64.2257 25.375 65.7888 26.5603C66.0195 26.7347 66.3208 26.8124 66.5656 26.9727C67.0247 27.2696 67.3825 27.3733 67.8604 26.8973C68.343 26.4142 68.3312 26.0372 67.9875 25.5352C67.8227 25.2949 67.7521 24.9862 67.5755 24.7576C66.382 23.1929 66.2172 21.5576 67.3072 19.8963C67.6203 19.4179 68.0817 18.9372 68.5878 18.7063C69.4894 18.2963 70.4663 18.0347 71.4339 17.792C71.9753 17.6553 72.0271 17.3419 72.0247 16.8919C72.0224 16.4229 72.0036 16.0648 71.408 15.921C70.4687 15.6948 69.56 15.3413 68.6302 15.0727C67.9192 14.8677 67.5896 14.3681 67.2271 13.7437C66.2455 12.0541 66.4267 10.5295 67.5473 9.01667C67.7544 8.73626 67.8486 8.37573 68.0463 8.08589C68.3665 7.61931 68.3006 7.28706 67.9004 6.87232C67.4672 6.4246 67.1424 6.42932 66.6127 6.71209C64.8401 7.66173 63.1028 9.08265 60.9747 7.47321C60.9535 7.45672 60.9111 7.46143 60.8923 7.44258C60.5015 7.03963 59.9671 6.7003 59.7529 6.21724C59.3386 5.28409 59.0631 4.28025 58.8113 3.28348C58.67 2.72737 58.331 2.71087 57.8955 2.71558C57.4718 2.7203 57.114 2.69909 56.968 3.26699C56.7161 4.2614 56.4383 5.26524 56.0264 6.20074C55.8122 6.68617 55.346 7.12446 54.8894 7.42137C53.2321 8.50062 51.6007 8.38751 50.0258 7.18337C49.7033 6.9383 49.3031 6.79456 48.9359 6.6084C48.8064 6.54007 48.6722 6.48351 48.5074 6.40575Z" fill="#F7941D"/>
<path d="M78.7856 61.1106C77.8894 60.6974 77.1417 60.3578 76.3988 60.0111C75.4365 59.5623 74.7077 59.8663 74.3421 60.8707C74.302 60.9823 74.262 61.0939 74.2124 61.2008C73.8563 61.9892 73.9035 63.2335 72.9341 63.3878C71.5426 63.6087 70.085 63.4686 68.6628 63.3641C68.3868 63.3451 68.0826 62.8155 67.9128 62.4593C67.6463 61.9013 67.4953 61.291 67.2783 60.7069C66.9977 59.9494 66.1769 59.6027 65.4457 59.9304C64.908 60.1726 64.3679 60.4124 63.849 60.6879C63.1344 61.0654 62.4811 61.0037 61.9032 60.4457C61.2027 59.7689 60.5188 59.0755 59.8466 58.3679C59.3466 57.8407 59.264 57.2281 59.5895 56.5632C59.8372 56.0574 60.073 55.5468 60.3112 55.0386C60.7735 54.0461 60.4551 53.298 59.4079 52.9205C56.6272 51.9208 56.6036 51.8875 56.6909 48.9169C56.7451 47.0409 56.8913 46.8343 58.606 46.2122C58.9928 46.0721 59.3914 45.9533 59.7711 45.7942C60.3348 45.5592 60.6792 44.6782 60.4457 44.1011C60.3442 43.8542 60.2216 43.6191 60.1084 43.3769C59.1013 41.2373 59.1154 41.1424 60.7523 39.454C60.9386 39.264 61.1296 39.0788 61.3254 38.8983C62.6414 37.6873 62.8443 37.6588 64.441 38.4282C64.8396 38.6205 65.2524 38.9886 65.6344 38.9577C66.1698 38.9126 66.7406 38.6514 67.1793 38.3237C67.4364 38.1313 67.4647 37.6327 67.5944 37.2693C68.2831 35.3317 68.4458 35.2153 70.5213 35.1773C70.6086 35.1749 70.6982 35.1726 70.7855 35.1726C73.2619 35.1631 73.4577 35.22 74.17 37.5947C74.5686 38.9197 75.5591 39.3329 76.762 38.7012C79.0002 37.5234 79.1323 37.6089 80.913 39.435C81.1206 39.6463 81.3022 39.8838 81.5144 40.0856C82.3352 40.8669 82.4932 41.7218 81.8824 42.7144C81.6371 43.1157 81.4649 43.5645 81.2739 43.9967C80.9484 44.7328 81.2951 45.5473 82.0569 45.837C82.498 46.0032 82.9343 46.1979 83.3895 46.3072C84.4815 46.5684 84.9532 47.276 84.9579 48.3636C84.9579 48.5702 84.9791 48.7791 84.9838 48.9857C85.057 51.8638 85.0169 51.9208 82.3635 52.8896C81.1347 53.3384 80.8706 53.9867 81.4319 55.1835C82.6112 57.6959 82.6017 57.8146 80.5663 59.7262C80.0215 60.2438 79.3847 60.6523 78.7856 61.1106ZM78.5686 57.8929C78.729 57.4916 79.0545 57.0856 78.9861 56.7603C78.8611 56.1666 78.4366 55.6442 78.2644 55.0553C78.1394 54.6326 78.1064 54.1149 78.229 53.697C78.7573 51.9065 79.5592 50.3488 81.7031 50.0923C81.8777 50.0709 82.1371 49.6862 82.1277 49.4797C82.1159 49.2279 81.9201 48.8718 81.7055 48.7625C81.1842 48.4989 80.5828 48.3992 80.0592 48.1404C79.7102 47.9694 79.3069 47.7034 79.1465 47.3734C78.3469 45.7159 77.5545 44.0394 78.9295 42.2561C79.0592 42.0898 78.9531 41.5888 78.7833 41.3869C78.6488 41.2255 78.2337 41.1922 77.9814 41.2587C77.5898 41.3608 77.2195 41.5722 76.8634 41.7788C76.1087 42.2157 75.4341 42.0613 74.611 41.8239C72.8586 41.3181 71.8492 40.2994 71.4977 38.5184C71.4577 38.3189 71.0543 38.0601 70.8232 38.0648C70.5921 38.0696 70.2737 38.3213 70.1605 38.5493C69.9128 39.0479 69.8303 39.6321 69.5661 40.1213C69.3538 40.5131 69.0378 40.9381 68.6604 41.1305C67.0307 41.9616 65.3608 42.6051 63.6721 41.2302C63.6509 41.2112 63.6155 41.1922 63.5919 41.197C63.3419 41.2563 63.0188 41.2468 62.8655 41.4036C62.7122 41.5603 62.6249 41.9165 62.6886 42.1326C62.8183 42.5814 63.0377 43.0136 63.2712 43.422C63.6934 44.1605 63.5188 44.8159 63.2948 45.609C62.7877 47.4042 61.7452 48.4396 59.9409 48.7863C59.7664 48.8195 59.5494 49.2018 59.5494 49.4227C59.5494 49.6435 59.7452 49.9641 59.9433 50.0662C60.4103 50.3084 60.9244 50.4675 61.4292 50.6195C62.1438 50.8332 62.4433 51.3556 62.7853 51.9968C63.6627 53.6305 63.7736 55.1526 62.6933 56.7199C62.5943 56.8647 62.7051 57.3064 62.8608 57.437C63.0495 57.5961 63.4268 57.6816 63.6603 57.6032C64.2146 57.4204 64.7146 57.0642 65.2712 56.8932C65.6675 56.7721 66.1627 56.7104 66.5401 56.8386C68.2548 57.4275 69.9317 58.0924 70.1699 60.2984C70.1911 60.4955 70.6062 60.8042 70.8114 60.7852C71.0709 60.7615 71.4694 60.4884 71.5213 60.2581C71.894 58.6196 72.7265 57.4703 74.4554 57.1497C74.4837 57.1449 74.5096 57.1283 74.5355 57.1117C75.3705 56.5442 76.1865 56.6486 77.0214 57.1402C77.4436 57.3919 77.9106 57.5795 78.5686 57.8929Z" fill="#757575"/>
<path d="M30.6832 19.4876C30.0849 19.0135 29.489 18.5393 28.8457 18.0299C29.6695 17.2999 30.3414 16.7036 31.0014 16.1191C32.3665 17.4313 33.8764 18.8327 35.3175 20.2998C35.8018 20.7928 35.7615 21.497 35.2724 21.9876C33.8408 23.4265 32.3594 24.8162 30.8755 26.2481C30.2606 25.6307 29.6386 25.0063 28.9572 24.3232C29.4582 23.8068 29.9591 23.2857 30.6381 22.5838C25.0114 22.2928 19.8382 23.1988 14.8715 25.3232C9.91436 27.4429 5.72877 30.5908 2.21269 34.6822C1.4862 34.0837 0.807204 33.525 0 32.8607C8.13376 23.6988 18.2903 19.3609 30.536 19.7083C30.5859 19.6355 30.6334 19.5604 30.6832 19.4876Z" fill="#757575"/>
<path d="M77.3338 7.99517C77.0714 9.20055 76.8282 10.3222 76.561 11.5531C75.6356 11.3786 74.7483 11.2134 73.7656 11.0296C74.2713 8.60251 74.7364 6.24528 75.2659 3.89968C75.4162 3.23649 76.0005 2.83159 76.6874 2.95027C79.1131 3.36912 81.5245 3.86012 84.0242 4.33948C83.8405 5.2726 83.6759 6.11729 83.4899 7.06437C82.2878 6.84331 81.1381 6.63388 79.9002 6.40584C83.9002 15.3926 82.958 23.7698 77.0524 31.7513C76.6159 31.4209 76.251 31.1487 75.8908 30.8671C75.5426 30.5948 75.1991 30.3179 74.7793 29.9828C78.1066 25.8036 79.6784 21.0705 79.4399 15.7882C79.3254 13.1425 78.4071 9.73342 77.3338 7.99517Z" fill="#757575"/>
<path d="M28.3502 72.2974C19.7268 72.3045 12.6969 65.2824 12.6992 56.6617C12.7016 48.0387 19.7268 41.0237 28.355 41.0332C36.9382 41.0427 43.9468 48.0411 43.9634 56.6238C43.9799 65.2469 36.9666 72.2879 28.3502 72.2974ZM28.2887 69.453C35.321 69.4672 41.0865 63.7549 41.1197 56.747C41.1528 49.6705 35.4252 43.887 28.3692 43.8728C21.3345 43.8586 15.569 49.5663 15.5406 56.5765C15.5121 63.6554 21.2374 69.4388 28.2887 69.453Z" fill="#757575"/>
<path d="M50.8048 16.7892C50.8308 12.8922 54.0559 9.73208 57.9728 9.76987C61.8684 9.80529 65.0157 13.0386 64.9708 16.9592C64.9259 20.8137 61.7221 23.9549 57.8477 23.936C53.9473 23.9195 50.7789 20.7027 50.8048 16.7892ZM57.7698 21.1018C60.0883 21.1585 62.0573 19.314 62.1329 17.0135C62.2108 14.6541 60.3432 12.6607 58.0035 12.6064C55.6803 12.5521 53.7159 14.3943 53.6404 16.6923C53.5648 19.0518 55.4324 21.0452 57.7698 21.1018Z" fill="#F7941D"/>
<path d="M76.6967 49.5577C76.7089 52.6598 74.0734 55.2 70.8396 55.2024C67.6081 55.2047 64.9653 52.6668 64.9727 49.5671C64.98 46.5048 67.591 43.988 70.7834 43.9669C74.027 43.9482 76.6845 46.4603 76.6967 49.5577ZM70.8786 46.7787C69.2812 46.7576 67.9403 47.9938 67.9061 49.5226C67.8719 51.0491 69.1591 52.3484 70.7443 52.3929C72.371 52.4397 73.751 51.1638 73.7632 49.6045C73.7755 48.0804 72.4687 46.7998 70.8786 46.7787Z" fill="#757575"/>
</svg>
