<svg width="85" height="80" viewBox="0 0 85 80" fill="none" xmlns="http://www.w3.org/2000/svg">
<path d="M0 73.502C0.325378 72.309 0.529569 71.0679 0.996055 69.9331C3.2654 64.417 7.43057 61.2436 13.2708 60.2135C13.5297 60.167 13.7887 60.1155 14.2735 60.0224C7.96678 58.866 5.07158 53.7387 5.52478 49.153C6.03443 44.0008 10.2975 40.1279 15.4007 40.1079C20.5071 40.0897 24.7586 43.8745 25.3446 49.0733C25.8559 53.6091 23.0188 58.8345 16.8267 60.0374C20.5436 60.5341 23.8439 61.9298 26.6312 64.6031C28.4224 62.3701 30.4859 60.5308 32.9678 59.1767C35.428 57.8359 38.0543 57.07 40.8698 56.7211C36.8324 56.0216 33.5986 54.0743 31.3757 50.6384C29.128 47.1609 28.6133 43.3844 29.8534 39.4334C31.7277 33.4587 37.6442 29.5409 43.7036 30.1872C50.1995 30.8801 55.1914 35.9509 55.7459 42.3576C56.2539 48.2309 52.3493 55.4018 44.1285 56.7377C49.9405 57.364 54.6701 59.956 58.3572 64.5965C61.1279 61.9597 64.4348 60.5275 68.175 60.039C61.9828 58.8361 59.1457 53.6108 59.657 49.0749C60.243 43.8745 64.4945 40.0896 69.601 40.1096C74.7024 40.1295 78.9656 44.0024 79.4769 49.1547C79.9301 53.7387 77.0365 58.8677 70.7763 60.0158C71.701 60.2052 72.4597 60.3082 73.1901 60.5175C79.6279 62.3535 83.6404 66.4457 84.8539 73.1298C84.8772 73.2594 84.9502 73.3807 85 73.5053C85 75.2781 85 77.0492 85 78.822C84.4837 79.7491 83.6819 80 82.651 80C55.8853 79.9818 29.1197 79.9818 2.35401 80C1.32309 80 0.521269 79.7508 0.00332018 78.822C0 77.0459 0 75.2748 0 73.502ZM25.9389 76.6006C37.0184 76.6006 48.0364 76.6006 59.0544 76.6006C59.1408 68.1553 52.2912 60.0706 42.5033 60.0639C32.9611 60.0556 25.8742 67.9128 25.9389 76.6006ZM52.4556 43.4591C52.4705 37.9679 47.9916 33.4687 42.5066 33.4637C37.0532 33.4587 32.576 37.9048 32.5411 43.3594C32.5046 48.8523 36.9653 53.3715 42.4485 53.3964C47.9351 53.4214 52.4406 48.947 52.4556 43.4591ZM22.476 76.6222C22.6901 75.0704 22.7765 73.5917 23.1234 72.1795C23.477 70.7406 24.0514 69.3516 24.6092 67.9726C24.8101 67.4741 24.5793 67.2714 24.3071 66.9923C18.6893 61.2253 8.64908 62.5761 4.75118 69.6175C3.53599 71.8106 3.13923 74.15 3.37497 76.6222C9.79786 76.6222 16.1477 76.6222 22.476 76.6222ZM81.7861 76.6256C81.6516 75.2349 81.6831 73.8858 81.3694 72.6231C80.2272 68.044 77.2689 65.0883 72.7668 63.8505C68.1617 62.5844 64.1011 63.8039 60.6166 67.0505C60.2248 67.416 60.3128 67.7018 60.4539 68.1338C61.0449 69.9365 61.6425 71.7425 62.114 73.5784C62.3647 74.5504 62.3613 75.5888 62.4759 76.6272C68.8556 76.6256 75.2055 76.6256 81.7861 76.6256ZM15.4588 43.4359C11.8663 43.4176 8.85991 46.39 8.80346 50.0137C8.74868 53.6241 11.7817 56.6961 15.4173 56.7161C19.0097 56.7343 22.0161 53.762 22.0726 50.1383C22.129 46.5279 19.096 43.4541 15.4588 43.4359ZM76.1916 50.0602C76.1783 46.4548 73.1918 43.4591 69.5844 43.4342C65.9654 43.4093 62.9092 46.4614 62.9224 50.0884C62.9357 53.6938 65.9239 56.6895 69.5296 56.7144C73.1486 56.7393 76.2048 53.6872 76.1916 50.0602Z" fill="#818181"/>
<path d="M33.7102 23.533C34.0644 21.433 34.417 19.1988 34.8324 16.9761C34.9235 16.4872 34.7877 16.2137 34.4633 15.9021C32.972 14.4667 31.5072 13.0048 30.0126 11.5728C29.4267 11.0109 29.099 10.3811 29.3787 9.57888C29.6468 8.80817 30.289 8.538 31.0504 8.43524C33.0697 8.1601 35.0857 7.85347 37.1066 7.57999C37.618 7.51038 37.9176 7.29988 38.146 6.80762C39.0183 4.93304 39.9601 3.0916 40.8539 1.22697C41.1899 0.527521 41.6533 0.0170252 42.4643 0.000450646C43.32 -0.0177814 43.8017 0.519234 44.1509 1.24188C45.0464 3.10486 45.9799 4.95127 46.8538 6.82419C47.0839 7.31646 47.405 7.51204 47.9098 7.58165C49.9307 7.85513 51.9467 8.15844 53.966 8.4369C54.7257 8.54132 55.358 8.81645 55.6244 9.59546C55.8893 10.3728 55.588 10.9877 55.0319 11.5281C53.5654 12.9501 52.1255 14.3971 50.6358 15.7943C50.1972 16.2054 50.083 16.6032 50.1873 17.1717C50.5564 19.1789 50.8742 21.196 51.2449 23.2032C51.3823 23.9507 51.2631 24.5938 50.6623 25.0645C50.0218 25.5667 49.3282 25.4722 48.6447 25.1109C46.8174 24.1446 44.9785 23.2032 43.1678 22.2087C42.6729 21.9369 42.2905 21.9634 41.8122 22.2236C39.9733 23.2231 38.1245 24.2076 36.2575 25.154C34.9483 25.8153 33.6606 25.038 33.7102 23.533ZM34.7348 11.2662C35.6567 12.259 36.5091 13.27 37.4625 14.1767C38.199 14.8778 38.4705 15.6186 38.2619 16.6148C37.9871 17.9291 37.7952 19.2617 37.5452 20.7253C38.6459 20.1501 39.6737 19.7275 40.5758 19.1159C41.9165 18.2076 43.1297 18.2474 44.4571 19.1358C45.3393 19.7258 46.3374 20.1435 47.4348 20.717C47.2759 19.7225 47.1567 18.8855 47.0077 18.0534C46.4284 14.7866 46.3589 15.3982 48.6364 13.1308C49.2256 12.5441 49.7784 11.9209 50.3859 11.2745C49.1247 11.0905 47.9313 10.8634 46.728 10.759C45.5082 10.6529 44.6905 10.1557 44.2155 8.97723C43.7388 7.79712 43.1148 6.67834 42.4974 5.4137C41.7973 6.85237 41.1617 8.13358 40.5477 9.42474C40.2133 10.1275 39.7085 10.5385 38.914 10.6413C37.4972 10.8269 36.0887 11.0623 34.7348 11.2662Z" fill="#F7941D"/>
<path d="M6.94871 31.9228C7.1446 30.8076 7.34879 29.4543 7.631 28.1174C7.77045 27.4572 7.63764 26.9973 7.11638 26.5407C6.22491 25.7639 5.41645 24.8967 4.54657 24.0936C3.92736 23.522 3.5887 22.8733 3.88751 22.0472C4.16475 21.2802 4.82546 21.0404 5.58412 20.9451C6.81756 20.7891 8.04436 20.5871 9.2778 20.4343C9.81899 20.367 10.1493 20.1486 10.3834 19.6279C10.9113 18.4553 11.5272 17.3237 12.095 16.1691C12.4237 15.499 12.9167 15.0588 13.692 15.0588C14.4705 15.0588 14.9603 15.5105 15.289 16.174C15.87 17.3532 16.4826 18.516 17.0304 19.7101C17.2412 20.1699 17.5384 20.3604 18.0181 20.4229C19.2781 20.5822 20.5332 20.7907 21.7932 20.9468C22.5933 21.0453 23.2474 21.3327 23.5197 22.1326C23.7836 22.9045 23.4433 23.5089 22.8872 24.0361C21.9293 24.946 20.9598 25.8443 20.0468 26.7969C19.8293 27.0236 19.6915 27.4605 19.733 27.7741C19.9057 29.0733 20.153 30.3642 20.3904 31.6534C20.5299 32.4106 20.4203 33.0823 19.7612 33.5619C19.1304 34.0218 18.473 33.9446 17.8106 33.5964C16.6154 32.9674 15.4284 32.3219 14.2083 31.7454C13.9227 31.6107 13.4612 31.6058 13.1757 31.7389C11.9057 32.3383 10.6839 33.0396 9.41725 33.6489C8.14065 34.2632 6.92049 33.5061 6.94871 31.9228ZM18.3452 23.8045C15.8517 23.8801 14.3178 22.8421 13.7036 20.3966C13.0213 22.7616 11.5571 23.9392 8.99393 23.7947C11.172 25.1529 11.6484 26.9365 10.7038 29.1455C11.8177 28.7103 12.7557 28.0599 13.6953 28.0583C14.6233 28.0566 15.5529 28.7103 16.6735 29.1521C15.7156 26.9119 16.2153 25.1578 18.3452 23.8045Z" fill="#818181"/>
<path d="M63.7677 31.9444C63.9642 30.8557 64.1538 29.5535 64.4442 28.2727C64.6199 27.5009 64.4947 26.9492 63.8199 26.4188C62.9104 25.7028 62.1174 24.8555 61.2496 24.0903C60.6287 23.5435 60.2687 22.9244 60.5331 22.1214C60.8026 21.3037 61.5087 21.0442 62.34 20.9441C63.6321 20.7881 64.9173 20.5861 66.2094 20.4334C66.7763 20.3661 67.1207 20.1444 67.3659 19.6255C67.9189 18.4547 68.5641 17.3216 69.1588 16.1672C69.5032 15.4973 70.0197 15.0588 70.8336 15.0588C71.6492 15.0588 72.1622 15.5121 72.5048 16.1771C73.1135 17.3561 73.7552 18.5187 74.3291 19.7125C74.55 20.1723 74.863 20.3628 75.3656 20.4235C76.7151 20.5861 78.0594 20.7881 79.4072 20.9572C80.2141 21.059 80.8575 21.371 81.1288 22.1346C81.3897 22.8686 81.0836 23.4663 80.5236 23.9786C79.5028 24.9113 78.4646 25.8276 77.489 26.7981C77.2612 27.0247 77.1186 27.4631 77.162 27.7751C77.3429 29.074 77.602 30.3647 77.8507 31.6554C77.9968 32.4124 77.8803 33.0824 77.1899 33.5635C76.5273 34.0249 75.8386 33.9412 75.1464 33.5947C73.8943 32.9658 72.6509 32.3204 71.3727 31.7441C71.0736 31.6094 70.5901 31.6045 70.291 31.7391C68.9606 32.3385 67.6806 33.0397 66.3537 33.6489C65.0164 34.2597 63.7364 33.5011 63.7677 31.9444ZM70.9866 20.458C70.9118 20.481 70.837 20.5056 70.764 20.5286C70.5084 21.013 70.2127 21.481 70.0058 21.9835C69.604 22.9573 68.8823 23.4565 67.7798 23.532C67.2024 23.5714 66.632 23.6929 66.0581 23.7767C65.9885 23.8391 65.9172 23.9015 65.8477 23.9639C68.2789 25.133 68.6197 26.9607 67.8232 29.2662C69.8545 27.5699 71.8022 27.7489 73.8682 29.2021C72.8352 26.8326 73.6265 25.1347 75.7395 23.7405C73.0683 23.9261 71.5361 22.8308 70.9866 20.458Z" fill="#818181"/>
</svg>
