<svg width="85" height="85" viewBox="0 0 85 85" fill="none" xmlns="http://www.w3.org/2000/svg">
<path d="M61.1137 48.8004C61.3217 45.7445 63.5016 46.2036 65.5427 46.2698C65.5427 45.8587 65.5427 45.5276 65.5427 45.1987C65.5427 38.1757 65.5427 31.1504 65.5427 24.1273C65.5427 22.5103 65.9333 22.1312 67.6023 22.1312C70.115 22.1289 72.63 22.1266 75.1426 22.1335C76.5434 22.138 77.0034 22.5994 77.0034 23.9971C77.0058 32.306 77.0104 40.6149 76.9942 48.9237C76.9942 49.4993 77.1237 49.8921 77.5906 50.3055C78.7302 51.3127 79.7704 52.4295 80.8615 53.4916C81.4301 54.0443 81.585 54.6975 81.1781 55.3552C80.3414 56.7073 80.4454 57.9178 81.1042 59.3886C81.6613 60.6356 82.3293 61.3505 83.6099 61.7251C84.8235 62.0813 84.9899 62.4262 84.9922 63.6641C84.9946 65.0345 84.9737 66.4048 84.9992 67.7751C85.0154 68.5951 84.7056 69.2117 83.8919 69.3921C82.3062 69.7416 81.5596 70.7259 80.9562 72.1945C80.4361 73.4644 80.413 74.4373 81.051 75.5975C81.659 76.7007 81.5295 77.0592 80.6442 77.9385C79.6872 78.8909 78.7071 79.8205 77.7709 80.7911C77.1468 81.4398 76.4394 81.643 75.6766 81.1771C74.3891 80.3915 73.2541 80.4988 71.8394 81.0858C70.4848 81.6499 69.6272 82.3145 69.299 83.7123C69.0794 84.651 68.4206 85.0301 67.4358 84.9981C66.0212 84.9524 64.6042 84.9707 63.1895 84.9913C62.3596 85.0027 61.7586 84.6761 61.5645 83.8744C61.1992 82.3693 60.3023 81.5859 58.8021 81.0104C57.4892 80.5057 56.479 80.4394 55.2747 81.0881C54.1628 81.6864 53.8161 81.5585 52.9122 80.6678C51.9506 79.72 51.0098 78.7516 50.0251 77.8289C49.3617 77.2077 49.223 76.5294 49.646 75.7506C49.8864 75.3098 49.9396 74.9489 49.579 74.5241C49.4195 74.3345 49.4148 73.9874 49.4056 73.7087C49.3825 73.0807 49.4033 72.4526 49.3963 71.8245C49.3802 70.5706 49.1583 70.26 47.9863 69.8147C45.7972 68.981 45.7972 68.981 45.7972 66.6994C45.7972 65.642 45.8319 64.5845 45.788 63.5293C45.7464 62.5815 46.1648 62.0174 47.0524 61.741C47.2997 61.6657 47.5425 61.5698 47.7852 61.4807C49.2207 60.944 49.3963 60.695 49.3987 59.1762C49.401 56.4058 49.3987 53.6377 49.3987 50.8674C49.3987 44.6437 49.3963 38.4178 49.3987 32.1941C49.3987 30.6479 49.7754 30.2802 51.3381 30.2779C53.9085 30.2756 56.4813 30.2733 59.0518 30.2779C60.4156 30.2802 60.8664 30.7255 60.8664 32.0753C60.871 37.2712 60.8687 42.4694 60.8687 47.6653C60.8687 47.9759 60.8687 48.2865 60.8687 48.5971C60.9473 48.6679 61.0305 48.7342 61.1137 48.8004ZM82.1883 64.1095C81.7306 63.9313 81.2891 63.7121 80.8199 63.5842C79.8305 63.3147 79.2988 62.7277 79.0423 61.7182C78.7995 60.7635 78.4043 59.8134 77.898 58.9615C77.3271 58 77.2462 57.1641 77.7778 56.1615C78.4274 54.9304 78.3673 54.9007 77.3617 53.905C76.2452 52.8018 76.2291 52.7653 74.8005 53.4368C73.9083 53.857 73.1639 53.8136 72.2786 53.334C71.2268 52.763 70.0664 52.3724 68.9245 51.9865C68.2981 51.7741 67.882 51.4589 67.6323 50.8491C66.8672 48.9786 66.8533 49.022 64.8007 48.9649C64.0586 48.9443 63.6796 49.1795 63.527 49.8624C63.2311 51.1871 62.4937 52.039 61.0582 52.2263C60.6398 52.2811 60.1983 52.4364 59.8446 52.6648C58.1156 53.7793 56.3888 54.2384 54.5673 52.6282C54.1512 53.0964 53.8461 53.4779 53.504 53.8227C52.4314 54.9007 52.4153 54.8985 53.0602 56.3008C53.3792 56.9951 53.578 57.6323 53.1896 58.4134C52.584 59.6353 52.154 60.944 51.5554 62.1704C51.3265 62.6386 50.9035 63.084 50.455 63.3603C49.8841 63.7121 49.1999 63.8788 48.5665 64.1255C48.5665 64.6622 48.5665 65.1167 48.5665 65.5734C48.5665 67.1014 48.5503 67.1516 50.0089 67.6381C50.9913 67.967 51.5299 68.5311 51.7472 69.5406C51.909 70.2829 52.154 71.0731 52.5909 71.6783C53.5988 73.0761 53.5364 74.3871 52.6857 75.8008C52.5609 76.0086 52.7343 76.4426 52.866 76.7304C52.9654 76.9496 53.2174 77.1026 53.4 77.2831C54.5627 78.4319 54.5696 78.4479 56.0514 77.7718C56.7356 77.4589 57.362 77.3105 58.1087 77.6622C59.3546 78.2469 60.6629 78.6968 61.9135 79.2701C62.3527 79.471 62.9768 79.8296 63.0369 80.1928C63.3837 82.2757 64.7591 82.4949 66.4719 82.2437C66.6129 82.2232 66.7562 82.2163 66.9111 82.2026C67.0961 81.7412 67.3203 81.3027 67.4497 80.8391C67.7248 79.857 68.3258 79.3454 69.3475 79.0942C70.3161 78.8567 71.28 78.4684 72.1353 77.9637C73.1131 77.3835 73.9568 77.3607 74.9739 77.8472C76.481 78.5712 76.0002 78.6374 77.193 77.4772C78.3765 76.3238 78.3811 76.3101 77.6831 74.789C77.3987 74.1701 77.23 73.6014 77.549 72.9162C78.1592 71.5984 78.6539 70.2303 79.2711 68.9171C79.4606 68.5151 79.8467 67.9761 80.2096 67.9167C82.1698 67.6038 82.4819 66.3728 82.2276 64.7398C82.1929 64.5434 82.1999 64.3424 82.1883 64.1095ZM68.3905 24.913C68.3512 25.0706 68.3258 25.1254 68.3258 25.1825C68.3212 32.0616 68.3166 38.9408 68.3212 45.8176C68.3212 46.0026 68.3813 46.2059 68.4737 46.3658C68.8205 46.9687 69.3105 47.5214 69.5278 48.1632C69.826 49.0471 70.2698 49.6203 71.2268 49.8442C71.8348 49.9858 72.408 50.2964 72.979 50.5659C74.0631 51.0775 74.2272 50.9861 74.2272 49.8145C74.2272 41.8231 74.2272 33.8294 74.2272 25.838C74.2272 25.5365 74.2272 25.235 74.2272 24.913C72.2139 24.913 70.3184 24.913 68.3905 24.913ZM52.2234 33.062C52.2234 39.1098 52.2234 45.0571 52.2234 51.0638C52.3644 50.9975 52.4615 50.9815 52.5008 50.9267C53.4763 49.5838 54.6575 49.6021 55.9658 50.3991C56.1115 50.4882 56.2802 50.5408 56.4397 50.6093C57.5377 51.082 58.0902 50.7417 58.0902 49.5884C58.0925 44.3628 58.0902 39.1395 58.0902 33.9139C58.0902 33.6398 58.0902 33.3657 58.0902 33.062C56.0722 33.062 54.1767 33.062 52.2234 33.062Z" fill="#757575"/>
<path d="M33.2247 56.7667C33.2247 51.3127 33.2224 45.861 33.2247 40.407C33.2247 38.758 33.6084 38.3789 35.2496 38.3766C37.8201 38.3766 40.3929 38.372 42.9634 38.3789C44.2001 38.3812 44.7063 38.8654 44.7063 40.0964C44.7132 51.2602 44.7132 62.4239 44.7063 73.5877C44.7063 74.7799 44.2139 75.2526 43.0188 75.2595C40.3605 75.2709 37.7022 75.2663 35.0439 75.2618C33.6616 75.2595 33.227 74.8392 33.2247 73.4712C33.2201 67.9007 33.2247 62.3326 33.2247 56.7667ZM36.0587 41.1538C36.0587 51.6279 36.0587 62.0288 36.0587 72.4548C38.0328 72.4548 39.9445 72.4548 41.8815 72.4548C41.8815 61.99 41.8815 51.589 41.8815 41.1538C39.9306 41.1538 38.0351 41.1538 36.0587 41.1538Z" fill="#757575"/>
<path d="M55.541 16.9076C54.4776 16.9533 53.6732 16.9899 52.8665 17.0241C51.8193 17.0698 51.1975 16.613 51.1467 15.768C51.0981 14.9321 51.5928 14.3794 52.5937 14.3108C54.8406 14.1578 57.092 14.0322 59.3435 13.9431C60.3467 13.9043 60.9616 14.6352 60.8206 15.6172C60.5085 17.7915 60.1803 19.9658 59.8451 22.1355C59.7018 23.0628 59.073 23.5721 58.2617 23.4602C57.4573 23.3506 56.9811 22.6608 57.1013 21.7495C57.2169 20.8771 57.3555 20.0069 57.5197 18.8924C56.632 19.6483 55.927 20.2559 55.2104 20.8542C44.0594 30.1886 31.8404 37.8831 18.535 43.8418C13.2091 46.2285 7.7076 48.236 2.27772 50.3966C1.17279 50.8351 0.414591 50.5679 0.0979053 49.7411C-0.211845 48.9304 0.218107 48.2246 1.32073 47.8409C10.3752 44.6914 19.1337 40.8887 27.5478 36.3163C37.2749 31.0313 46.364 24.8397 54.7412 17.6339C54.9492 17.4535 55.1503 17.2616 55.541 16.9076Z" fill="#F7941D"/>
<path d="M28.5469 61.3733C28.5469 65.3428 28.5492 69.3122 28.5469 73.2816C28.5445 74.8804 28.1654 75.2572 26.5635 75.2572C23.9908 75.2595 21.4203 75.2618 18.8475 75.2549C17.5299 75.2504 17.063 74.8027 17.063 73.5077C17.056 65.3976 17.0583 57.2851 17.063 49.175C17.063 47.8731 17.5276 47.4186 18.8359 47.4141C21.4665 47.4072 24.0948 47.4072 26.7253 47.4141C28.1077 47.4164 28.5422 47.8389 28.5469 49.2047C28.5515 53.2632 28.5469 57.3194 28.5469 61.3733ZM19.8923 50.1936C19.8923 57.6825 19.8923 65.0641 19.8923 72.448C21.8687 72.448 23.785 72.448 25.7129 72.448C25.7129 64.9956 25.7129 57.6117 25.7129 50.1936C23.7527 50.1936 21.8525 50.1936 19.8923 50.1936Z" fill="#757575"/>
<path d="M77.8411 16.234C77.8411 17.7026 76.3386 18.518 75.0903 17.778C74.027 17.1476 72.9845 16.4784 71.9812 15.759C71.4427 15.373 71.052 15.4095 70.5342 15.775C69.598 16.4396 68.6064 17.0288 67.6471 17.6615C66.9004 18.1548 66.1353 18.2576 65.4002 17.7003C64.7021 17.1727 64.5773 16.4579 64.8246 15.6288C65.169 14.4823 65.4233 13.3106 65.7839 12.1687C65.9388 11.6754 65.8533 11.3922 65.4441 11.0838C64.4802 10.3598 63.5579 9.57873 62.6032 8.84103C61.9259 8.31801 61.5653 7.67851 61.8103 6.83347C62.0669 5.94731 62.7535 5.58645 63.6434 5.54306C64.8824 5.48139 66.1214 5.40146 67.3627 5.36948C67.8435 5.35806 68.0701 5.17992 68.2273 4.73227C68.6341 3.57661 69.108 2.44379 69.5402 1.29499C69.843 0.491049 70.3863 -0.00227601 71.2739 7.89596e-06C72.1662 7.89596e-06 72.7001 0.518456 73.003 1.30869C73.4098 2.37299 73.8698 3.42359 74.2073 4.51073C74.4153 5.17763 74.7713 5.39232 75.444 5.3946C76.5397 5.39689 77.6354 5.48368 78.731 5.53164C79.6279 5.57047 80.3792 5.83083 80.6936 6.76952C81.0102 7.71277 80.5549 8.35455 79.8498 8.90726C78.9668 9.597 78.1138 10.3256 77.21 10.9856C76.7223 11.3419 76.572 11.6754 76.7755 12.2737C77.1245 13.2969 77.3695 14.3567 77.6515 15.4004C77.7324 15.7065 77.7902 16.0125 77.8411 16.234ZM66.3526 8.04394C66.3849 8.15128 66.4173 8.25863 66.4497 8.36597C66.9374 8.75652 67.409 9.16762 67.9152 9.53762C68.7589 10.1543 69.0594 10.9148 68.7219 11.9266C68.5093 12.5661 68.3729 13.2284 68.1625 14.0369C68.9045 13.5664 69.5171 13.201 70.1043 12.799C70.8879 12.26 71.6507 12.2646 72.4343 12.7899C73.0191 13.1805 73.6155 13.5527 74.3853 14.0483C74.1518 13.1759 73.9877 12.5181 73.8005 11.8695C73.5323 10.9445 73.7427 10.1931 74.5402 9.60385C75.0834 9.20188 75.5989 8.7588 76.2923 8.19925C75.4509 8.14443 74.8268 8.05536 74.205 8.07135C73.0538 8.09875 72.3719 7.56203 72.0205 6.50915C71.8218 5.91305 71.5605 5.33522 71.3271 4.74826C71.2439 4.70486 71.1583 4.66375 71.0751 4.62036C70.7954 7.50037 69.1773 8.58066 66.3526 8.04394Z" fill="#F7941D"/>
<path d="M12.3797 65.6215C12.3797 68.2457 12.3844 70.8722 12.3774 73.4964C12.3728 74.8188 11.9429 75.255 10.6299 75.2573C7.97388 75.2642 5.31789 75.2665 2.65958 75.2573C1.36741 75.2528 0.909717 74.7868 0.909717 73.4804C0.905094 68.2594 0.905094 63.0361 0.909717 57.8151C0.912029 56.5315 1.39977 56.0382 2.67807 56.0359C5.33407 56.0291 7.99006 56.0268 10.6484 56.0359C11.8989 56.0405 12.3728 56.5064 12.3774 57.7466C12.3867 60.3708 12.3797 62.995 12.3797 65.6215ZM9.57349 58.8383C7.56704 58.8383 5.65306 58.8383 3.74139 58.8383C3.74139 63.4175 3.74139 67.9351 3.74139 72.4527C5.71548 72.4527 7.63177 72.4527 9.57349 72.4527C9.57349 67.8894 9.57349 63.3924 9.57349 58.8383Z" fill="#757575"/>
<path d="M55.4047 65.5094C55.5273 60.0189 60.0579 55.6269 65.4901 55.7297C71.0194 55.8347 75.4761 60.3226 75.3883 65.7012C75.2981 71.1872 70.6704 75.6271 65.2081 75.4695C59.6881 75.3096 55.2845 70.8355 55.4047 65.5094ZM65.4208 72.7265C69.4036 72.706 72.6606 69.4583 72.6098 65.5573C72.5589 61.6519 69.3389 58.4841 65.4069 58.4704C61.4518 58.4567 58.1763 61.693 58.1763 65.6122C58.1786 69.5359 61.4449 72.7448 65.4208 72.7265Z" fill="#F7941D"/>
</svg>
