<svg width="85" height="85" viewBox="0 0 85 85" fill="none" xmlns="http://www.w3.org/2000/svg">
<path d="M49.2011 0C50.3979 0.897454 50.4157 1.72417 49.2476 2.64594C48.1394 3.51908 47.0201 4.37674 45.9096 5.24546C45.7035 5.40683 45.5084 5.58588 45.289 5.77377C47.2218 6.16944 49.1168 6.41702 50.9299 6.94974C65.0355 11.1054 74.1185 20.2833 77.3923 34.5697C81.6789 53.2836 70.8116 71.6703 52.4504 77.5303C48.7555 78.7085 44.9477 79.1992 41.0777 79.2014C28.0316 79.208 14.9877 79.1992 1.94162 79.2147C1.09937 79.2147 0.410046 79.0489 0 78.2509C0 77.9746 0 77.6983 0 77.422C0.429994 76.6925 1.08828 76.5378 1.89729 76.54C14.9146 76.5577 27.9341 76.6019 40.9514 76.5378C52.938 76.4781 62.5309 71.5907 69.5194 61.8668C78.3564 49.5722 77.5474 32.2531 67.7285 20.7122C62.3114 14.346 55.5135 10.3649 47.2772 8.8397C46.8472 8.76012 46.4105 8.72033 45.7101 8.62528C46.8294 9.50063 47.7559 10.2257 48.6824 10.9551C49.0304 11.2292 49.405 11.479 49.7086 11.7951C50.2184 12.3256 50.2494 12.9578 49.8039 13.5237C49.3562 14.0918 48.7445 14.1846 48.095 13.8332C47.951 13.7536 47.8224 13.6453 47.6916 13.5436C45.4441 11.7929 43.1922 10.0466 40.9514 8.28708C39.8564 7.4272 39.8675 6.58943 40.9691 5.73619C43.4382 3.82192 45.9074 1.91206 48.3787 0C48.6469 0 48.924 0 49.2011 0Z" fill="#757575"/>
<path d="M75.9453 84.9978C74.7926 83.9294 74.8233 83.2507 76.0705 82.2517C77.2473 81.3088 78.4286 80.368 79.5704 79.2459C79.2871 79.2459 79.0017 79.2459 78.7184 79.2459C74.4962 79.2459 70.2761 79.2481 66.0539 79.2414C65.7004 79.2414 65.3315 79.2369 64.9978 79.1361C64.3325 78.9368 64.0185 78.4239 64.0954 77.7295C64.17 77.0755 64.5586 76.6679 65.2151 76.5827C65.4852 76.5469 65.7619 76.5581 66.0363 76.5581C70.2586 76.5559 74.4786 76.5581 78.7009 76.5581C78.9907 76.5581 79.2783 76.5581 79.5682 76.5581C79.5901 76.4999 79.6121 76.4394 79.634 76.3812C78.7009 75.6308 77.7677 74.8782 76.8346 74.1279C76.4042 73.7807 75.9453 73.4672 75.5523 73.0797C75.0319 72.569 74.9683 71.9553 75.392 71.3393C75.7938 70.7525 76.5535 70.5554 77.1332 71.0078C79.6362 72.9587 82.1085 74.9522 84.5852 76.9366C84.7499 77.0688 84.8619 77.2704 85.0002 77.4406C85.0002 77.7206 85.0002 78.0006 85.0002 78.2805C84.6006 78.6882 84.2339 79.1406 83.7926 79.4968C81.5157 81.3446 79.219 83.1678 76.9312 85C76.604 84.9978 76.2747 84.9978 75.9453 84.9978Z" fill="#F7941D"/>
<path d="M67.1904 42.5068C67.1904 43.2023 67.1681 43.9001 67.1971 44.5957C67.2328 45.4652 66.8671 46.018 66.0377 46.3034C65.1971 46.5955 64.3543 46.8942 63.5494 47.271C63.2461 47.4114 62.9518 47.7347 62.818 48.0446C62.0243 49.8771 61.2639 51.723 60.5304 53.5801C60.4077 53.8944 60.3721 54.3269 60.4858 54.6346C60.8113 55.5196 61.2283 56.3735 61.6185 57.234C61.9172 57.8939 61.8258 58.4713 61.3063 58.9863C60.2383 60.0453 59.1725 61.1087 58.1156 62.181C57.5783 62.725 56.9896 62.8275 56.294 62.4998C55.4378 62.0985 54.5794 61.6973 53.6942 61.3673C53.4065 61.2603 53.0007 61.2937 52.7087 61.4097C50.8268 62.1587 48.9583 62.9368 47.0988 63.7349C46.829 63.8508 46.528 64.0805 46.4143 64.3346C46.0196 65.2219 45.6985 66.1449 45.3529 67.0544C45.0831 67.7634 44.5882 68.1 43.8167 68.0889C42.3406 68.0688 40.8624 68.071 39.3863 68.0889C38.6126 68.0978 38.131 67.75 37.8612 67.0411C37.4777 66.0267 37.3216 64.7716 36.6171 64.076C35.9236 63.3916 34.6482 63.3202 33.6605 62.9056C32.6371 62.4753 31.627 61.9982 30.6593 61.4543C30.1844 61.1867 29.8165 61.1756 29.3483 61.4052C28.5255 61.8087 27.6738 62.161 26.8377 62.5377C26.2044 62.8231 25.647 62.7161 25.1565 62.2278C24.0729 61.1444 22.9915 60.0587 21.9034 58.9774C21.3816 58.4602 21.3081 57.8783 21.6068 57.2207C22.0082 56.3334 22.4251 55.4505 22.773 54.5432C22.8733 54.2823 22.8354 53.9078 22.7284 53.6381C21.977 51.7587 21.2055 49.8882 20.3984 48.0334C20.2646 47.7235 19.9658 47.4047 19.6626 47.2643C18.8309 46.8786 17.9613 46.5732 17.0984 46.2633C16.3782 46.0047 16.0193 45.5164 16.0215 44.754C16.0237 43.2492 16.0215 41.7443 16.0215 40.2395C16.0215 39.4748 16.3894 38.9955 17.1096 38.7391C17.9747 38.4315 18.842 38.1238 19.6737 37.7381C19.9747 37.5977 20.2668 37.2744 20.4006 36.9623C21.2077 35.1075 21.9814 33.237 22.7328 31.3577C22.8399 31.0901 22.8688 30.7134 22.7685 30.4525C22.4296 29.5697 22.0283 28.7114 21.6314 27.8531C21.2991 27.1352 21.3861 26.5244 21.9658 25.9581C23.0249 24.9281 24.064 23.8781 25.1008 22.8258C25.6403 22.2796 26.2245 22.1838 26.9202 22.5048C27.9057 22.9596 28.9068 23.7154 29.9013 23.7154C30.8444 23.7154 31.7742 22.8704 32.7396 22.4736C33.7408 22.0612 34.7597 21.6666 35.8077 21.4057C36.4744 21.2408 36.782 20.9019 36.9827 20.3C37.2436 19.5085 37.5758 18.7394 37.8657 17.9569C38.131 17.2413 38.626 16.9024 39.393 16.9113C40.8691 16.9247 42.3473 16.9269 43.8234 16.9113C44.5926 16.9024 45.0854 17.2479 45.3552 17.9569C45.7431 18.9712 45.897 20.2242 46.6016 20.922C47.2928 21.6064 48.5659 21.6799 49.5514 22.0991C50.5994 22.5449 51.5938 23.1112 52.6418 23.5571C52.9718 23.6975 53.4378 23.7243 53.7722 23.6061C54.6351 23.3007 55.4668 22.9016 56.2984 22.5093C56.9941 22.1816 57.5805 22.2841 58.1179 22.8303C59.1747 23.9004 60.2405 24.9638 61.3085 26.0228C61.8303 26.54 61.9172 27.1174 61.6185 27.7751C61.2283 28.6378 60.8113 29.4894 60.4858 30.3745C60.3721 30.6822 60.41 31.1147 60.5348 31.429C61.2662 33.2861 62.0265 35.132 62.8203 36.9646C62.954 37.2744 63.2484 37.5977 63.5516 37.7381C64.3565 38.1127 65.1971 38.4159 66.0399 38.7057C66.8716 38.9911 67.2306 39.5462 67.1971 40.4134C67.1704 41.1112 67.1904 41.809 67.1904 42.5068ZM26.5612 25.2826C26.4386 25.3673 26.2713 25.4543 26.142 25.5814C25.6604 26.0451 25.1565 26.4932 24.7373 27.0104C24.5745 27.2088 24.4987 27.6145 24.5857 27.8531C24.88 28.6601 25.2546 29.4426 25.6203 30.2229C25.919 30.8605 25.8834 31.4379 25.4887 32.0332C24.1732 34.0285 23.2702 36.2021 22.7953 38.5474C22.6615 39.2051 22.307 39.6353 21.6626 39.865C20.8242 40.1615 20.0126 40.536 19.1676 40.8125C18.6458 40.9819 18.6258 41.3587 18.7083 41.7332C18.8889 42.5424 18.2244 43.5033 19.1386 44.1744C19.2478 44.2546 19.395 44.2814 19.5243 44.3304C20.1999 44.5912 20.8644 44.8766 21.5511 45.104C22.2936 45.3492 22.6659 45.833 22.822 46.5955C23.2457 48.6554 23.9502 50.6351 25.1342 52.3718C25.8789 53.4642 25.87 54.3849 25.3126 55.5308C24.2691 57.671 24.3226 57.6978 26.0506 59.3519C26.0707 59.372 26.0885 59.4055 26.1108 59.4099C26.3984 59.459 26.7262 59.6172 26.9648 59.5303C27.7229 59.2583 28.4631 58.9261 29.1788 58.5583C29.9325 58.1704 30.5813 58.2462 31.2814 58.7143C33.0094 59.8692 34.8935 60.7386 36.927 61.131C38.2247 61.3807 38.8713 62.0205 39.2904 63.2311C40.0842 65.5318 40.1444 65.5229 42.5881 65.3913C42.8356 65.378 43.1812 65.135 43.2905 64.9076C43.6272 64.2075 43.917 63.4785 44.14 62.7339C44.4031 61.8511 44.9538 61.4164 45.8435 61.2469C47.8591 60.859 49.7722 60.1345 51.4623 58.9886C52.5548 58.2462 53.4645 58.235 54.615 58.7968C56.8135 59.8714 56.8514 59.8246 58.4813 58.0121C58.6485 57.8248 58.7243 57.4057 58.6374 57.1694C58.3319 56.3356 57.8525 55.5575 57.6117 54.7104C57.469 54.2088 57.4623 53.4998 57.7187 53.0807C58.9919 50.9896 59.9551 48.7936 60.4456 46.3926C60.575 45.7639 60.9451 45.3693 61.5538 45.153C62.3654 44.8632 63.148 44.4865 63.9708 44.2368C64.5772 44.0517 64.6085 43.617 64.5014 43.1957C64.3008 42.4042 65.1057 41.3631 63.9864 40.8169C63.2127 40.4401 62.3922 40.1592 61.5806 39.8739C60.9384 39.6487 60.5727 39.2318 60.4367 38.5697C59.9573 36.2266 59.061 34.0508 57.7477 32.0532C57.3575 31.458 57.3018 30.885 57.6006 30.2452C57.9529 29.4894 58.3096 28.7315 58.5995 27.9512C58.6954 27.697 58.711 27.2467 58.5549 27.0929C57.9261 26.4664 57.2238 25.9135 56.5259 25.3629C56.4657 25.3161 56.2338 25.4855 56.0822 25.5524C55.3441 25.8779 54.5972 26.1833 53.8703 26.5355C53.2572 26.832 52.7087 26.7986 52.1401 26.4241C50.12 25.0909 47.9215 24.1768 45.5514 23.6908C44.8802 23.5526 44.4722 23.1736 44.2426 22.5449C43.9371 21.7089 43.6316 20.8707 43.2749 20.057C43.1879 19.8608 42.9137 19.6401 42.7063 19.62C40.2068 19.3725 40.2068 19.3815 39.3194 21.6733C39.2392 21.8806 39.1277 22.079 39.0742 22.293C38.8512 23.1915 38.2536 23.5972 37.3707 23.7733C35.248 24.1969 33.2636 25.0129 31.462 26.2033C30.6214 26.7585 29.8812 26.8655 28.9871 26.375C28.2312 25.9581 27.4129 25.6594 26.5612 25.2826Z" fill="#757575"/>
<path d="M32.4664 6.67529C33.2074 6.7375 33.6463 7.09964 33.7919 7.77947C33.9353 8.44154 33.5449 9.02362 32.8016 9.29022C31.1452 9.88564 29.4249 10.3477 27.8391 11.092C16.5622 16.393 9.6985 25.2309 7.94509 37.6412C6.21153 49.9228 10.3138 60.2425 19.4933 68.5094C19.6168 68.6205 19.7492 68.7227 19.8661 68.8405C20.4197 69.3959 20.4947 70.1713 20.0491 70.7111C19.5727 71.291 18.7479 71.3976 18.1391 70.8244C16.6526 69.4226 15.1021 68.0629 13.781 66.5099C-2.48494 47.4078 4.44709 18.037 27.4995 8.31268C28.8912 7.72615 30.3535 7.30625 31.7871 6.8197C32.0208 6.74194 32.2723 6.71528 32.4664 6.67529Z" fill="#F7941D"/>
<path d="M54.7389 42.4622C54.7655 49.6901 48.8945 55.6059 41.6728 55.6281C34.4 55.6502 28.4802 49.7566 28.4824 42.4955C28.4846 35.3008 34.3357 29.4072 41.5153 29.3718C48.8013 29.3341 54.71 35.1856 54.7389 42.4622ZM31.144 42.5043C31.1484 48.2694 35.855 52.9727 41.6173 52.9705C47.3841 52.9683 52.0773 48.2694 52.0773 42.4977C52.0773 36.726 47.3841 32.0337 41.6129 32.0315C35.8572 32.0271 31.1396 36.7482 31.144 42.5043Z" fill="#757575"/>
</svg>
