<svg width="62" height="62" viewBox="0 0 62 62" fill="none" xmlns="http://www.w3.org/2000/svg">
<g clip-path="url(#clip0_822_1853)">
<path d="M9.43748 43.7763C10.1834 42.0713 11.2749 40.6715 12.77 39.6026C14.3361 38.4821 16.0863 37.8928 18.0077 37.7733C18.2289 37.7588 18.5211 37.6344 18.6438 37.4633C20.8833 34.3423 23.8864 32.5146 27.7081 32.0528C27.7872 32.0431 27.8663 32.0254 27.9438 32.0028C27.981 31.9915 28.0133 31.964 28.0875 31.9204V31.2213C28.0875 22.8852 28.0875 14.5491 28.0875 6.21304C28.0875 2.97257 30.0961 0.95596 33.3236 0.954346C40.8104 0.954346 48.2989 0.954346 55.7857 0.954346C59.0197 0.954346 61.0283 2.96773 61.0299 6.20497C61.0299 20.3148 61.025 34.423 61.038 48.5329C61.038 50.0764 60.4406 51.1614 58.9858 51.7556C58.277 52.0446 57.9525 52.8584 58.2496 53.5704C58.9067 55.1381 58.403 56.3604 57.2356 57.4761C56.1571 58.5078 54.993 58.8339 53.5947 58.264C52.8472 57.9588 52.0383 58.2753 51.7396 59.018C51.0873 60.6374 49.8231 61.096 48.1972 61.0491C46.7247 61.0072 45.7043 60.3968 45.1359 59.0261C44.8259 58.2801 44.0315 57.9524 43.2856 58.2591C41.9407 58.8145 40.7539 58.5869 39.7464 57.5487C39.451 57.2452 39.149 57.1499 38.7373 57.1515C28.4847 57.1612 18.2321 57.1628 7.98112 57.158C4.59857 57.158 1.92805 55.1042 1.14982 51.93C0.0147688 47.3026 4.06414 42.919 8.76904 43.6811C8.96763 43.7134 9.16623 43.7392 9.43909 43.7779L9.43748 43.7763ZM10.6613 46.3403C10.1737 46.1417 9.78784 45.9689 9.39065 45.8252C6.24545 44.6918 2.91618 47.0087 2.90003 50.3396C2.8855 53.0876 5.05711 55.214 7.91008 55.2156C17.8382 55.2221 27.7678 55.2189 37.6959 55.2156C37.8913 55.2156 38.0866 55.1979 38.2562 55.1898C38.3466 54.7119 38.3821 54.2647 38.5194 53.8513C38.9133 52.6743 38.7083 52.1447 37.6087 51.6313C36.7336 51.2228 36.1362 50.5576 35.9441 49.6082C35.8375 49.0818 35.8391 48.5264 35.8456 47.9855C35.8617 46.6616 36.5076 45.7316 37.704 45.1891C38.6404 44.7645 38.9343 44.0944 38.5597 43.145C38.24 42.3345 38.2158 41.5207 38.6082 40.7425C38.7874 40.3889 38.7454 40.1193 38.5823 39.7883C35.2627 33.0506 25.9288 31.8575 21.0334 37.5505C20.9123 37.691 20.8122 37.8508 20.6911 38.0171C23.6135 39.0537 25.4025 40.3292 26.4164 42.1052C25.9095 42.4443 25.3976 42.7866 24.8761 43.1353C22.7772 40.4261 20.0937 39.1812 16.7354 39.9272C13.3545 40.6779 11.4622 42.9916 10.6613 46.3403ZM59.094 45.1003C59.094 44.8872 59.094 44.6918 59.094 44.498C59.094 31.6992 59.094 18.9004 59.094 6.10164C59.094 4.07695 57.917 2.89185 55.9084 2.89185C48.3586 2.89023 40.8104 2.89185 33.2607 2.89185C31.2021 2.89185 30.0283 4.06242 30.0283 6.11455C30.0283 14.512 30.0283 22.9111 30.0283 31.3085C30.0283 31.5249 30.0283 31.7396 30.0283 31.9705C30.6983 32.0754 31.307 32.1723 31.9658 32.2756V31.5184C31.9658 23.3825 31.9658 15.2466 31.9658 7.11075C31.9658 5.55914 32.7052 4.82773 34.2714 4.82773C41.135 4.82773 47.997 4.82773 54.8606 4.82773C56.4332 4.82773 57.1581 5.55106 57.1581 7.12044C57.1581 12.5503 57.1581 17.9817 57.1581 23.4116C57.1581 28.5395 57.1533 33.6674 57.1694 38.7953C57.1694 39.0666 57.2598 39.4186 57.4407 39.5946C58.5741 40.6973 58.8308 41.9405 58.2221 43.4001C57.9444 44.0653 58.3416 44.8226 59.0956 45.1003H59.094ZM56.6124 42.0552C56.5978 41.0396 55.1964 40.0741 54.3471 40.4002C52.5275 41.0993 50.7046 40.3615 49.9474 38.5693C49.6406 37.8443 49.0965 37.7668 48.4297 37.7652C47.758 37.7652 47.222 37.8573 46.9184 38.579C46.1806 40.3373 44.3141 41.1252 42.5752 40.4083C41.8599 40.1144 41.4014 40.3728 40.9202 40.8588C40.4375 41.348 40.092 41.7952 40.402 42.5525C41.1253 44.3091 40.3487 46.1756 38.6001 46.907C37.8848 47.2057 37.7653 47.7272 37.7653 48.4069C37.7653 49.0996 37.8558 49.6534 38.6065 49.9634C40.3309 50.6771 41.1253 52.558 40.4213 54.2647C40.1307 54.9686 40.3438 55.4385 40.8379 55.9277C41.3433 56.4266 41.8018 56.7802 42.5833 56.4556C44.298 55.7436 46.187 56.5315 46.8942 58.243C47.201 58.9857 47.7354 59.1052 48.4377 59.1068C49.1433 59.1068 49.6729 58.9744 49.9764 58.2349C50.6691 56.5541 52.5727 55.7468 54.2341 56.4395C54.9946 56.756 55.4773 56.4879 55.9924 55.9664C56.4929 55.4611 56.7464 54.9896 56.4428 54.255C55.7486 52.5823 56.5446 50.6722 58.2124 49.9828C58.9083 49.6954 59.1053 49.2207 59.1037 48.5184C59.1037 47.7789 59.0084 47.2025 58.2044 46.8747C56.5381 46.1982 55.7776 44.2849 56.4315 42.5944C56.5107 42.3894 56.5688 42.1763 56.6091 42.0552H56.6124ZM33.9033 30.0491C33.9033 30.871 33.9242 31.654 33.8936 32.4355C33.879 32.8165 34.0114 32.999 34.3553 33.1588C36.7675 34.2777 38.6372 36.0021 39.9773 38.2997C40.0742 38.466 40.1824 38.6274 40.3002 38.8131C41.3368 38.206 42.3508 38.1979 43.4083 38.6468C44.0622 38.9245 44.7952 38.5047 45.1585 37.8508C45.4443 37.3341 45.7705 36.7771 46.2242 36.4284C48.0099 35.056 50.816 35.8116 51.738 37.8524C52.0334 38.5063 52.7826 38.8648 53.4284 38.6775C54.0016 38.5128 54.5796 38.3691 55.1883 38.206V30.0475H33.9016L33.9033 30.0491ZM33.9291 12.5358H55.1899V6.79914H33.9291V12.5374V12.5358ZM55.1899 14.5588H33.9517V20.3003H55.1915V14.5588H55.1899ZM55.1899 22.3121H33.9307V28.0503H55.1915V22.3121H55.1899Z" fill="#6C6C6C"/>
<path d="M19.3274 19.3637C18.6218 19.3637 17.9582 19.3573 17.2946 19.3637C16.5358 19.3718 16.2887 19.7415 16.6181 20.4051C17.6385 22.4637 18.6638 24.5191 19.7133 26.5631C19.8263 26.7827 20.1185 27.0604 20.3091 27.0491C20.5432 27.0346 20.8499 26.7876 20.9662 26.5583C22.0189 24.5175 23.0425 22.4605 24.063 20.4019C24.3907 19.7399 24.1405 19.3718 23.38 19.3637C22.7164 19.3556 22.0528 19.3637 21.3489 19.3637V2.92565H23.2105V17.3762C23.422 17.3988 23.5737 17.4181 23.7255 17.4294C25.4967 17.5473 26.6802 19.2991 25.9423 20.9008C24.8638 23.2419 23.7126 25.5556 22.4823 27.8209C21.5668 29.5065 19.1046 29.5017 18.1891 27.8144C16.9604 25.5492 15.8092 23.2355 14.7291 20.896C14.0025 19.3234 15.1634 17.5683 16.8926 17.4343C17.0508 17.4214 17.2091 17.4181 17.427 17.4085V2.91919H19.3242V19.3637H19.3274Z" fill="#F7941D"/>
<path d="M9.70223 25.1971V39.6638H7.78411V23.2403C8.46223 23.2403 9.14197 23.2467 9.8201 23.2386C10.5741 23.229 10.8228 22.856 10.4934 22.194C9.47296 20.137 8.4477 18.08 7.39822 16.0376C7.2852 15.818 6.99296 15.5403 6.80082 15.5532C6.56671 15.5694 6.26155 15.8164 6.14369 16.0457C5.09098 18.0881 4.06734 20.1451 3.04692 22.2037C2.73208 22.8382 2.97265 23.2257 3.67338 23.2386C4.35635 23.2516 5.03931 23.2419 5.76265 23.2419V39.6799H3.8978V25.2197C3.62494 25.1987 3.41181 25.1891 3.20192 25.1632C1.54051 24.9582 0.460356 23.2257 1.16754 21.7032C2.25254 19.3653 3.40051 17.0516 4.6276 14.7847C5.53822 13.1023 8.00853 13.1055 8.92077 14.7911C10.1495 17.058 11.3007 19.3701 12.3808 21.7112C13.1058 23.2839 11.9449 25.0357 10.2141 25.1729C10.0574 25.1858 9.89921 25.1891 9.70223 25.1971Z" fill="#F7941D"/>
<path d="M37.4717 42.3844C36.8501 42.5458 36.2704 42.696 35.644 42.8591C35.1079 41.083 34.1101 39.6638 32.5052 38.7241C30.9229 37.7957 29.2244 37.5681 27.366 37.9749C27.2061 37.3646 27.0495 36.7688 26.8945 36.1763C30.7179 34.9234 36.159 37.1903 37.4717 42.3844Z" fill="#6C6C6C"/>
<path d="M23.0253 43.9909C22.5183 44.3735 22.0404 44.7352 21.5286 45.1211C20.4581 43.9327 19.1794 43.3386 17.589 43.6905C16.0019 44.0425 15.0493 45.0759 14.5827 46.6662C13.9659 46.5467 13.3637 46.4305 12.7646 46.3159C12.9713 44.3428 14.7409 42.4505 16.8964 41.858C19.1713 41.2331 21.5932 42.055 23.0253 43.9909Z" fill="#6C6C6C"/>
<path d="M55.2162 48.4439C55.2113 52.1736 52.1581 55.2219 48.4268 55.217C44.6988 55.2122 41.6504 52.1558 41.6553 48.4261C41.6601 44.6964 44.7149 41.6497 48.4446 41.6545C52.1759 41.6594 55.2194 44.7126 55.2162 48.4439ZM48.3929 53.2779C51.0667 53.2973 53.2674 51.1289 53.2787 48.4632C53.29 45.8121 51.1474 43.6227 48.5092 43.592C45.829 43.5614 43.617 45.7136 43.5928 48.3761C43.5686 51.053 45.7273 53.2602 48.3913 53.2779H48.3929Z" fill="#F7941D"/>
<path d="M47.5 31.9883H49.3616V33.8612H47.5V31.9883Z" fill="#F7941D"/>
<path d="M53.2687 32.001V33.8513H51.3877V32.001H53.2687Z" fill="#6C6C6C"/>
<path d="M35.8633 10.6143V8.74463H37.7443V10.6143H35.8633Z" fill="#F7941D"/>
<path d="M39.752 8.73486H41.6087V10.6013H39.752V8.73486Z" fill="#6C6C6C"/>
<path d="M47.5039 16.467H49.3558V18.3513H47.5039V16.467Z" fill="#F7941D"/>
<path d="M51.375 16.4832H53.2366V18.3561H51.375V16.4832Z" fill="#6C6C6C"/>
<path d="M37.7393 26.1354H35.8906V24.2544H37.7393V26.1354Z" fill="#6C6C6C"/>
<path d="M39.7363 26.0997V24.2478H41.6205V26.0997H39.7363Z" fill="#F7941D"/>
<path d="M51.3409 48.4473C51.3344 50.0296 50.0347 51.3326 48.454 51.3406C46.8475 51.3487 45.5268 50.0296 45.5332 48.4215C45.5397 46.8166 46.8701 45.5104 48.4815 45.5298C50.0605 45.5491 51.349 46.8634 51.3425 48.4473H51.3409ZM48.4492 47.4705C47.926 47.4624 47.4804 47.8967 47.4723 48.4215C47.4643 48.9446 47.8986 49.3918 48.4233 49.3999C48.9465 49.408 49.3921 48.972 49.4002 48.4489C49.4082 47.9258 48.9739 47.4786 48.4492 47.4721V47.4705Z" fill="#F7941D"/>
</g>
<defs>
<clipPath id="clip0_822_1853">
<rect width="62" height="62" fill="white"/>
</clipPath>
</defs>
</svg>
