<svg width="64" height="58" viewBox="0 0 64 58" fill="none" xmlns="http://www.w3.org/2000/svg">
<g clip-path="url(#clip0_822_1921)">
<path d="M58.5113 9.9715C61.1782 10.5075 62.6691 11.9325 63.0484 14.2464C63.1012 14.5697 63.1045 14.9028 63.1045 15.2327C63.1078 27.749 63.1078 40.2637 63.1045 52.78C63.1045 55.8394 61.0825 57.9109 58.033 57.9967C58.0132 57.9967 57.9918 57.9967 57.9703 57.9967C40.3594 57.9967 22.7468 58.0066 5.13584 57.9884C2.02366 57.9851 0 55.8576 0 52.719C0 40.2456 0 27.7705 0 15.2954C0 12.071 2.06984 9.99624 5.29747 9.99624C18.9089 9.99294 32.5187 9.99129 46.1302 10.0045C46.6992 10.0045 47.1329 9.87089 47.5684 9.47837C50.7234 6.63502 53.8983 3.81476 57.0764 0.996153C59.2584 -0.940093 62.4794 0.0808068 63.0418 2.89117C63.281 4.08854 62.9082 5.13088 62.0984 6.02314C61.0726 7.15289 60.0418 8.2777 59.0127 9.40415C58.8626 9.56908 58.7158 9.7373 58.5096 9.96985L58.5113 9.9715ZM38.5518 16.9397C38.5287 16.8886 38.5056 16.8374 38.4825 16.7863C38.344 16.7863 38.2054 16.7863 38.0652 16.7863C29.1163 16.7863 20.169 16.7912 11.22 16.7748C10.6279 16.7748 10.5042 16.9809 10.5059 17.5318C10.5207 28.4978 10.5207 39.4655 10.5042 50.4315C10.5042 51.0335 10.6774 51.1951 11.2678 51.1918C15.1436 51.167 19.0194 51.1802 22.8969 51.1802C33.825 51.1802 44.7514 51.1802 55.6795 51.1852C56.1396 51.1852 56.4381 51.1736 56.4381 50.5502C56.42 39.5017 56.4233 28.4516 56.4332 17.4031C56.4332 16.9529 56.3013 16.7715 55.8378 16.7813C54.8697 16.8028 53.8999 16.783 52.9301 16.7929C52.7751 16.7929 52.564 16.811 52.4733 16.91C51.9967 17.4295 51.5513 17.9771 51.0087 18.6137C51.7905 18.6137 52.4073 18.5972 53.0225 18.6186C53.6558 18.6401 54.0516 19.0029 54.0632 19.6099C54.0863 20.8468 54.0879 22.0838 54.0632 23.3207C54.05 23.9804 53.5008 24.4158 52.8988 24.2806C52.3331 24.1536 52.0923 23.7594 52.094 23.1937C52.0973 22.3378 52.094 21.4801 52.094 20.5912C51.3435 20.5912 50.6838 20.6225 50.0291 20.5813C49.5442 20.5499 49.2358 20.7231 48.9405 21.0991C46.5343 24.1618 44.1379 27.2344 41.6755 30.251C41.0504 31.0162 40.2637 31.6974 39.4341 32.235C37.8112 33.2873 35.969 33.853 34.0707 34.1878C32.8486 34.4038 31.6232 34.831 30.3565 34.3544C30.2576 34.3164 30.058 34.4467 29.9508 34.5473C29.5451 34.9283 29.1608 35.3324 28.765 35.7233C28.1861 36.2939 27.5808 36.3632 27.1503 35.9146C26.7116 35.4577 26.776 34.93 27.3466 34.3511C27.7375 33.9552 28.1432 33.5726 28.5209 33.1636C28.6297 33.0448 28.7584 32.8271 28.7188 32.7084C28.3312 31.5687 28.633 30.4555 28.8392 29.3505C29.5138 25.7287 30.8018 22.4944 34.1169 20.3735C35.6853 19.3691 37.0806 18.0942 38.5551 16.9413L38.5518 16.9397ZM44.5716 12.0084C44.2418 11.9902 44.0834 11.9754 43.9268 11.9754C31.0179 11.9754 18.1074 11.9721 5.19851 11.9754C3.1831 11.9754 1.98078 13.2008 1.98078 15.2277C1.98078 27.7424 1.98078 40.2588 1.98243 52.7734C1.98243 53.0604 1.98902 53.354 2.0484 53.6327C2.37166 55.1484 3.53274 56.0126 5.27273 56.0143C11.027 56.0209 16.7797 56.0159 22.534 56.0159C34.2686 56.0159 46.0015 56.0159 57.7361 56.0159C59.9725 56.0159 61.1287 54.8532 61.1287 52.6267C61.1287 40.173 61.1287 27.7193 61.1287 15.2657C61.1287 12.4289 59.0275 11.7511 56.834 11.9919C56.7433 12.0018 56.641 12.0727 56.5767 12.1436C55.8329 12.988 55.0956 13.839 54.2397 14.822C54.9835 14.822 55.5706 14.8039 56.1545 14.8253C57.4953 14.8764 58.4008 15.7852 58.4008 17.1178C58.4074 28.3757 58.4123 39.6337 58.3777 50.8916C58.3777 51.4161 58.0874 52.0049 57.7724 52.4502C57.3057 53.1099 56.5322 53.1775 55.7636 53.1759C48.9999 53.1693 42.2362 53.1726 35.4709 53.1726C27.3664 53.1726 19.2619 53.1742 11.1573 53.1726C9.37282 53.1726 8.53664 52.3347 8.53664 50.5667C8.53664 39.5149 8.53664 28.4632 8.53829 17.4114C8.53829 17.1244 8.53829 16.8292 8.60096 16.5521C8.8632 15.4207 9.74061 14.822 11.1128 14.822C20.9078 14.822 30.7045 14.822 40.4996 14.8187C40.7437 14.8187 41.0587 14.8665 41.2203 14.7412C42.3154 13.8869 43.3775 12.9913 44.57 12.0117L44.5716 12.0084ZM33.7441 23.4246C34.8046 24.2212 36.0795 24.9782 37.0938 25.9975C38.1213 27.0283 38.8882 28.318 39.6634 29.3521C45.4705 22.3427 51.3831 15.2046 57.2446 8.12926C56.514 7.40028 55.6894 6.57565 54.9637 5.84997C47.8801 11.7164 40.7585 17.6142 33.7441 23.423V23.4246ZM37.9613 30.8117C36.8464 28.0838 34.9811 26.2168 32.2796 25.1366C31.3527 26.9013 30.9404 28.7567 30.6039 30.6451C30.2955 32.3818 30.9734 32.8618 32.3818 32.4742C32.4214 32.4626 32.4643 32.4676 32.5039 32.461C34.3824 32.1806 36.2049 31.7205 37.9597 30.8117H37.9613ZM58.8345 6.65151C59.4893 5.93243 60.149 5.25128 60.7576 4.52725C61.2854 3.89887 61.2425 3.07259 60.718 2.49369C60.2199 1.94284 59.3376 1.76307 58.7537 2.21662C57.9357 2.85159 57.1919 3.58221 56.4563 4.23698C57.271 5.06491 58.0214 5.82523 58.8329 6.65151H58.8345Z" fill="#6C6C6C"/>
<path d="M38.5518 16.9398C37.0774 18.0926 35.6837 19.3692 34.1136 20.3719C30.8002 22.4912 29.5122 25.7271 28.836 29.3489C28.6298 30.4539 28.328 31.5672 28.7156 32.7068C28.7551 32.8256 28.6265 33.0449 28.5177 33.162C28.14 33.5711 27.7342 33.952 27.3434 34.3495C26.7727 34.9284 26.7084 35.4562 27.1471 35.913C27.5776 36.3616 28.1828 36.2924 28.7617 35.7217C29.1576 35.3308 29.5419 34.9268 29.9476 34.5458C30.0548 34.4452 30.2543 34.3165 30.3533 34.3528C31.6183 34.8294 32.8453 34.4006 34.0675 34.1862C35.9641 33.8514 37.8064 33.2857 39.4309 32.2335C40.2605 31.6958 41.0488 31.0147 41.6723 30.2494C44.1363 27.2329 46.5327 24.1619 48.9373 21.0976C49.2325 20.7216 49.5409 20.5484 50.0258 20.5797C50.6806 20.6226 51.3403 20.5896 52.0907 20.5896C52.0907 21.4786 52.0924 22.3362 52.0907 23.1922C52.0891 23.7562 52.3299 24.1521 52.8956 24.279C53.4976 24.4126 54.0468 23.9789 54.06 23.3192C54.0863 22.0822 54.083 20.8453 54.06 19.6083C54.0484 18.9997 53.6526 18.6385 53.0193 18.6171C52.4041 18.5957 51.7889 18.6121 51.0055 18.6121C51.5465 17.9739 51.9934 17.428 52.4701 16.9084C52.5591 16.8111 52.7702 16.793 52.9269 16.7913C53.895 16.7814 54.8648 16.8012 55.8346 16.7798C56.298 16.7699 56.43 16.9513 56.43 17.4016C56.4201 28.4501 56.4168 39.5002 56.4349 50.5487C56.4349 51.1737 56.138 51.1836 55.6762 51.1836C44.7481 51.177 33.8217 51.1787 22.8936 51.1787C19.0178 51.1787 15.1404 51.1672 11.2646 51.1902C10.6742 51.1935 10.4993 51.0319 10.501 50.4299C10.5191 39.4639 10.5175 28.4962 10.5026 17.5302C10.5026 16.9794 10.6247 16.7716 11.2168 16.7732C20.1657 16.7897 29.113 16.7847 38.062 16.7847C38.2005 16.7847 38.3391 16.7847 38.4793 16.7847C38.5024 16.8359 38.5254 16.887 38.5485 16.9381L38.5518 16.9398ZM22.0261 36.7657C22.0261 36.7822 22.0261 36.797 22.0261 36.8135C20.9129 36.8135 19.788 36.7096 18.6913 36.8399C17.3141 37.0032 16.2767 38.3045 16.2141 39.6915C16.1465 41.1742 17.0816 42.4441 18.5643 42.8482C22.6743 43.9714 26.7876 45.0846 30.8992 46.2045C31.2769 46.3067 31.737 46.3892 31.6513 46.9219C31.5688 47.4398 31.1169 47.4035 30.7194 47.4035C29.3175 47.4035 27.914 47.3969 26.5121 47.4068C25.8128 47.4118 25.389 47.7762 25.3708 48.3535C25.3527 48.9258 25.7881 49.3678 26.4511 49.376C28.0394 49.3925 29.6293 49.4288 31.2142 49.3645C32.9229 49.2952 34.0246 47.6921 33.5347 46.1006C33.1818 44.9527 32.2747 44.509 31.206 44.2237C27.2296 43.1599 23.2565 42.0797 19.2883 40.9862C18.97 40.8988 18.5742 40.7223 18.4307 40.4667C18.2658 40.1731 18.2377 39.7129 18.3334 39.3798C18.4719 38.8999 18.9238 38.7415 19.4219 38.7432C21.2361 38.7498 23.052 38.7547 24.8662 38.7399C25.5457 38.7349 25.9778 38.3226 25.9811 37.7487C25.9827 37.1681 25.5572 36.7772 24.8728 36.769C23.9244 36.7575 22.9761 36.7657 22.0278 36.7657H22.0261ZM14.8485 20.5896C15.7589 20.5896 16.5604 20.5946 17.3636 20.5896C18.1058 20.5847 18.5412 20.2284 18.556 19.633C18.5709 19.0195 18.1074 18.6204 17.3471 18.6138C16.2553 18.6055 15.1635 18.6039 14.0717 18.6138C13.2305 18.622 12.8743 18.9832 12.8693 19.826C12.8627 20.9178 12.8627 22.0096 12.8693 23.1015C12.8743 23.8816 13.247 24.3137 13.8836 24.2988C14.4906 24.284 14.8402 23.8601 14.8452 23.1114C14.8518 22.2933 14.8452 21.4753 14.8452 20.5913L14.8485 20.5896ZM14.8485 47.4052C14.8485 46.4832 14.8551 45.6602 14.8468 44.8372C14.8386 44.1066 14.4592 43.6893 13.8391 43.7009C13.2454 43.7124 12.8792 44.1198 12.8726 44.8174C12.8627 45.9505 12.8627 47.0819 12.8726 48.215C12.8792 49.0083 13.247 49.3744 14.0585 49.3826C15.1701 49.3958 16.2817 49.3942 17.395 49.3826C18.1124 49.3744 18.5626 48.9703 18.5593 48.3815C18.556 47.7861 18.1173 47.4167 17.3818 47.4101C16.5621 47.4019 15.744 47.4085 14.8501 47.4085L14.8485 47.4052ZM52.094 47.4052C51.21 47.4052 50.3903 47.4002 49.5723 47.4052C48.8318 47.4118 48.3947 47.7713 48.3831 48.365C48.3733 48.9555 48.8235 49.3694 49.536 49.3777C50.669 49.3909 51.8021 49.3942 52.9335 49.3777C53.6988 49.3661 54.0632 48.9885 54.0698 48.2232C54.0797 47.1116 54.0764 46 54.0698 44.8884C54.0665 44.1363 53.7202 43.7157 53.1116 43.6992C52.4701 43.6811 52.099 44.1099 52.0924 44.8867C52.0858 45.7048 52.0924 46.5211 52.0924 47.4035L52.094 47.4052Z" fill="white"/>
<path d="M44.5727 12.0082C43.3786 12.9895 42.3165 13.8851 41.223 14.7378C41.0614 14.8648 40.7464 14.8153 40.5023 14.8153C30.7073 14.8186 20.9106 14.8169 11.1155 14.8186C9.74334 14.8186 8.86757 15.4173 8.60369 16.5487C8.53937 16.8257 8.54102 17.121 8.54102 17.4079C8.53772 28.4597 8.53772 39.5115 8.53937 50.5633C8.53937 52.3313 9.37555 53.1691 11.1601 53.1691C19.2646 53.1724 27.3691 53.1691 35.4737 53.1691C42.2373 53.1691 49.001 53.1658 55.7663 53.1724C56.5349 53.1724 57.3084 53.1065 57.7751 52.4468C58.0901 52.0014 58.3788 51.4127 58.3804 50.8882C58.415 39.6302 58.4084 28.3723 58.4035 17.1144C58.4035 15.7818 57.4981 14.873 56.1572 14.8219C55.5717 14.8004 54.9862 14.8186 54.2424 14.8186C55.0984 13.8356 55.8356 12.9862 56.5794 12.1402C56.6421 12.0676 56.7443 11.9983 56.8367 11.9884C59.0319 11.7493 61.133 12.4271 61.1314 15.2622C61.1314 27.7159 61.1314 40.1696 61.1314 52.6232C61.1314 54.8514 59.9753 56.0125 57.7388 56.0125C46.0043 56.0158 34.2713 56.0125 22.5368 56.0125C16.7824 56.0125 11.0298 56.0158 5.27545 56.0108C3.53547 56.0092 2.37438 55.145 2.05113 53.6293C1.99175 53.3506 1.98515 53.057 1.98515 52.77C1.98186 40.2553 1.98186 27.739 1.98351 15.2243C1.98351 13.1973 3.18583 11.9736 5.20124 11.9719C18.1101 11.967 31.0206 11.9703 43.9295 11.9719C44.0878 11.9719 44.2445 11.9868 44.5743 12.0049L44.5727 12.0082ZM6.1875 34.0029C6.1875 33.0348 6.19245 32.0667 6.18585 31.0986C6.18091 30.3712 5.80322 29.9309 5.20454 29.9259C4.60255 29.921 4.21167 30.363 4.21002 31.0837C4.20343 33.02 4.20343 34.9562 4.21002 36.8925C4.21167 37.6313 4.57781 38.0552 5.18969 38.0585C5.80487 38.0618 6.17926 37.6396 6.1842 36.9057C6.19245 35.9375 6.18585 34.9694 6.18585 34.0013L6.1875 34.0029Z" fill="white"/>
<path d="M33.7432 23.4246C40.7575 17.6158 47.8807 11.7164 54.9627 5.85156C55.69 6.57724 56.5147 7.40188 57.2437 8.13086C51.3821 15.2062 45.4695 22.3443 39.6624 29.3537C38.8872 28.3196 38.1203 27.0299 37.0928 25.9991C36.0785 24.9798 34.802 24.2228 33.7432 23.4262V23.4246ZM46.1243 15.9567C45.8092 16.1067 45.5635 16.1579 45.4151 16.3063C44.122 17.5762 42.8356 18.8544 41.569 20.1524C41.188 20.5416 41.2226 21.1387 41.5954 21.4883C41.9912 21.8611 42.4843 21.9468 42.8768 21.5691C44.2128 20.2844 45.5289 18.9781 46.7988 17.6274C46.9901 17.4245 47.0132 16.9 46.8945 16.6164C46.7774 16.3343 46.3832 16.1661 46.1226 15.9567H46.1243Z" fill="white"/>
<path d="M37.9613 30.8116C36.2065 31.7204 34.3841 32.1805 32.5055 32.4609C32.4643 32.4675 32.4214 32.4625 32.3835 32.4741C30.975 32.8617 30.2972 32.3817 30.6056 30.645C30.9404 28.7566 31.3543 26.9012 32.2812 25.1365C34.9827 26.2167 36.8481 28.0854 37.963 30.8116H37.9613Z" fill="white"/>
<path d="M58.8346 6.65159C58.0215 5.82696 57.2727 5.06499 56.458 4.23706C57.1936 3.5823 57.9374 2.85167 58.7554 2.2167C59.3393 1.76315 60.2216 1.94292 60.7197 2.49378C61.2442 3.07267 61.2871 3.89896 60.7593 4.52733C60.1507 5.25136 59.4927 5.93086 58.8363 6.65159H58.8346Z" fill="white"/>
<path d="M22.0269 36.7655C22.9753 36.7655 23.9236 36.7573 24.8719 36.7688C25.5564 36.7771 25.9819 37.168 25.9802 37.7485C25.9786 38.3225 25.5448 38.7348 24.8653 38.7397C23.0511 38.7546 21.2353 38.7496 19.4211 38.743C18.9214 38.7414 18.4711 38.8981 18.3326 39.3796C18.2369 39.7145 18.2633 40.1729 18.4299 40.4665C18.5734 40.7222 18.9692 40.8986 19.2875 40.986C23.2556 42.0795 27.2287 43.1598 31.2051 44.2236C32.2739 44.5089 33.181 44.9525 33.5339 46.1004C34.0237 47.6936 32.922 49.2951 31.2134 49.3643C29.6284 49.4287 28.0385 49.3924 26.4503 49.3759C25.7856 49.3693 25.3519 48.9256 25.37 48.3533C25.3882 47.7761 25.812 47.4116 26.5113 47.4067C27.9132 47.3984 29.3151 47.4034 30.7186 47.4034C31.1161 47.4034 31.5696 47.4396 31.6504 46.9218C31.7346 46.3874 31.2744 46.3066 30.8984 46.2043C26.7867 45.0845 22.6734 43.9712 18.5635 42.8481C17.0808 42.4423 16.1473 41.1724 16.2132 39.6914C16.2759 38.3043 17.3133 37.0047 18.6905 36.8398C19.7872 36.7095 20.912 36.8134 22.0253 36.8134C22.0253 36.7969 22.0253 36.782 22.0253 36.7655H22.0269Z" fill="#F7941D"/>
<path d="M14.8489 20.5895C14.8489 21.4719 14.8539 22.2916 14.8489 23.1096C14.8423 23.86 14.4943 24.2822 13.8874 24.2971C13.2508 24.3136 12.8781 23.8798 12.8731 23.0997C12.8665 22.0079 12.8665 20.9161 12.8731 19.8243C12.8781 18.9815 13.2343 18.6186 14.0754 18.612C15.1673 18.6021 16.2591 18.6038 17.3509 18.612C18.1112 18.617 18.5746 19.0178 18.5598 19.6313C18.545 20.2283 18.1079 20.5829 17.3674 20.5879C16.5642 20.5928 15.7626 20.5879 14.8522 20.5879L14.8489 20.5895Z" fill="#6C6C6C"/>
<path d="M14.8492 47.4051C15.7431 47.4051 16.5628 47.3985 17.3808 47.4067C18.1164 47.4133 18.5551 47.7827 18.5584 48.3781C18.5617 48.9686 18.1098 49.3726 17.394 49.3792C16.2824 49.3924 15.1708 49.3924 14.0575 49.3792C13.2461 49.371 12.8783 49.0049 12.8717 48.2116C12.8618 47.0785 12.8618 45.9471 12.8717 44.8141C12.8783 44.1164 13.2428 43.709 13.8382 43.6975C14.4583 43.686 14.8376 44.1049 14.8459 44.8338C14.8558 45.6568 14.8475 46.4798 14.8475 47.4018L14.8492 47.4051Z" fill="#6C6C6C"/>
<path d="M52.0932 47.405C52.0932 46.5227 52.0882 45.7046 52.0932 44.8882C52.0998 44.1098 52.4709 43.6826 53.1124 43.7008C53.721 43.7172 54.0657 44.1362 54.0706 44.8899C54.0772 46.0015 54.0789 47.1131 54.0706 48.2247C54.064 48.99 53.6996 49.3677 52.9343 49.3792C51.8012 49.3957 50.6698 49.394 49.5368 49.3792C48.8243 49.371 48.3741 48.957 48.3839 48.3665C48.3938 47.7728 48.8309 47.4133 49.5731 47.4067C50.3911 47.4001 51.2092 47.4067 52.0948 47.4067L52.0932 47.405Z" fill="#6C6C6C"/>
<path d="M6.18721 34.0031C6.18721 34.9713 6.19381 35.9394 6.18556 36.9075C6.17897 37.6398 5.80458 38.0636 5.19105 38.0603C4.57917 38.057 4.21303 37.6332 4.21138 36.8943C4.20643 34.9581 4.20479 33.0218 4.21138 31.0856C4.21303 30.3648 4.60391 29.9228 5.20589 29.9278C5.80458 29.9327 6.18226 30.3731 6.18721 31.1004C6.19381 32.0685 6.18886 33.0367 6.18886 34.0048L6.18721 34.0031Z" fill="#F7941D"/>
<path d="M46.1243 15.9568C46.3866 16.1662 46.7791 16.3345 46.8962 16.6165C47.0149 16.9002 46.9902 17.4246 46.8005 17.6275C45.5306 18.9766 44.2145 20.2845 42.8786 21.5693C42.4844 21.9469 41.9929 21.8612 41.5971 21.4884C41.2243 21.1388 41.1897 20.5434 41.5707 20.1525C42.8357 18.8546 44.1221 17.5764 45.4168 16.3064C45.5669 16.1596 45.811 16.1085 46.126 15.9568H46.1243Z" fill="#6C6C6C"/>
</g>
<defs>
<clipPath id="clip0_822_1921">
<rect width="63.116" height="58" fill="white"/>
</clipPath>
</defs>
</svg>
