<svg width="62" height="62" viewBox="0 0 62 62" fill="none" xmlns="http://www.w3.org/2000/svg">
<g clip-path="url(#clip0_822_1886)">
<path d="M10.0018 13.7782C10.0018 13.437 10.0018 13.1802 10.0018 12.9214C10.0018 9.97904 9.99183 7.0367 10.0052 4.09436C10.0152 1.74815 11.5194 0.0057505 13.5618 0.0057505C28.5195 -0.00191683 43.4773 -0.00191683 58.4351 0.0057505C60.4807 0.0057505 61.995 1.74049 61.995 4.09052C62.0033 18.2023 62.0033 32.3159 61.995 46.4276C61.995 48.7738 60.4774 50.4971 58.4334 50.5143C56.5376 50.5297 54.6419 50.5182 52.7461 50.5182C52.5213 50.5182 52.2964 50.5182 51.9998 50.5182C51.9998 50.8287 51.9998 51.0836 51.9998 51.3386C51.9998 53.5161 52.0098 55.6917 51.9965 57.8692C51.9832 60.2633 50.4872 61.9962 48.4066 61.9962C33.4705 62.0038 18.5327 62.0038 3.59659 61.9962C1.5126 61.9962 0.00666344 60.2614 0.00499758 57.8711C-0.00166586 44.5491 -0.00166586 31.2252 0.00499758 17.9032C0.00499758 15.5129 1.51593 13.7935 3.59993 13.782C5.70224 13.7705 7.80456 13.7801 10.0018 13.7801V13.7782ZM2.0007 22.9943V23.7572C2.0007 34.9956 2.0007 46.236 2.0007 57.4744C2.0007 59.1267 2.50879 59.7036 3.96142 59.7036C18.6443 59.7036 33.3272 59.7036 48.0101 59.7036C49.5011 59.7036 49.9991 59.1362 49.9991 57.4341C49.9991 46.2187 49.9991 35.0033 49.9991 23.7879V22.9943H2.0007ZM12.0242 13.7801H12.8305C24.5764 13.7801 36.3208 13.7801 48.0667 13.7801C50.6055 13.7801 51.9982 15.3826 51.9982 18.3077C51.9982 27.9915 51.9982 37.6754 51.9982 47.3592V48.2256C54.0622 48.2256 56.0379 48.2256 58.0136 48.2256C59.5012 48.2256 59.9976 47.6563 59.9976 45.9503C59.9976 33.972 59.9976 21.9918 59.9976 10.0135V9.23147H12.0258V13.782L12.0242 13.7801ZM59.9993 6.85652C59.9993 6.0572 59.9993 5.3403 59.9993 4.6234C59.9993 2.85417 59.5212 2.29828 57.9986 2.29828C43.3374 2.29828 28.6778 2.29828 14.0166 2.29828C13.8083 2.29828 13.5984 2.28678 13.3919 2.30979C12.7355 2.37879 12.1258 2.87908 12.0692 3.6094C11.9875 4.68666 12.0475 5.77925 12.0475 6.85843H59.9993V6.85652ZM49.9991 20.6328C49.9991 19.8565 49.9991 19.1204 49.9991 18.3844C49.9991 16.6247 49.5194 16.0746 47.9851 16.0746C33.3239 16.0746 18.6643 16.0746 4.00306 16.0746C3.79483 16.0746 3.58493 16.0631 3.37837 16.0861C2.65538 16.1685 2.06234 16.7857 2.02402 17.61C1.97738 18.6048 2.01236 19.6035 2.01236 20.6328H49.9991Z" fill="white"/>
<path d="M25.9065 58.351C17.2415 58.3586 10.2084 50.6681 10.2119 41.1898C10.2137 31.7822 17.2275 24.0858 25.8124 24.0706C34.5244 24.0534 41.5714 31.7249 41.5766 41.2337C41.5818 50.6566 34.5453 58.3453 25.9065 58.3529V58.351ZM20.1275 35.5196C19.4552 39.343 19.4534 43.1091 20.1275 46.8829H31.668C32.3334 43.0748 32.3403 39.3087 31.6611 35.5196H20.1275ZM17.9852 35.4968C16.4803 35.4968 15.0486 35.4872 13.6152 35.5139C13.4794 35.5158 13.2791 35.7181 13.2251 35.8745C11.9902 39.425 11.9885 42.9832 13.2216 46.5337C13.2773 46.6921 13.4724 46.9019 13.6048 46.9038C15.0382 46.9306 16.4716 46.921 17.9921 46.921C17.3756 43.0919 17.3895 39.3316 17.9852 35.4968ZM33.9148 46.9229C35.3065 46.9229 36.719 46.9344 38.1298 46.9058C38.2813 46.9019 38.5077 46.6902 38.5669 46.5204C39.7896 42.9946 39.7966 39.4594 38.5791 35.9279C38.5217 35.76 38.3475 35.5197 38.2238 35.5177C36.7712 35.4891 35.3169 35.4987 33.9131 35.4987C34.0315 37.4485 34.2318 39.3201 34.2318 41.1936C34.2318 43.0671 34.0333 44.9388 33.9148 46.9229ZM31.3145 33.1921C30.6038 31.6581 30.0448 30.2406 29.3098 28.9433C28.8761 28.1782 28.2229 27.5124 27.5576 26.9667C26.5422 26.1349 25.3979 26.112 24.3232 26.8885C22.2593 28.3804 21.425 30.729 20.6482 33.1921H31.3162H31.3145ZM31.1403 49.2085H20.6953C21.0871 51.0782 22.1949 53.3791 23.2643 54.5944C24.9816 56.5481 26.8104 56.5576 28.5173 54.5944C29.8201 53.0949 30.5394 51.248 31.1403 49.2085ZM37.2398 33.2073C36.3602 31.0934 32.8681 27.9397 31.2692 27.6192C31.8892 29.2714 32.5476 31.0438 33.2234 32.8067C33.2843 32.9669 33.462 33.1863 33.5874 33.1902C34.7944 33.2188 36.0031 33.2073 37.2398 33.2073ZM20.542 27.5582C18.1001 28.6971 16.0623 30.5554 14.4478 33.2073C15.7854 33.2073 16.9941 33.2188 18.2011 33.1902C18.3283 33.1863 18.5042 32.9688 18.5669 32.8086C19.2427 31.0457 19.901 29.2733 20.5437 27.5582H20.542ZM14.5192 49.2085C15.6356 51.5228 19.1486 54.6612 20.5228 54.7928C19.901 53.1406 19.2496 51.3892 18.5721 49.6493C18.5007 49.4642 18.2708 49.2333 18.1088 49.2276C16.9384 49.1914 15.7662 49.2085 14.5209 49.2085H14.5192ZM37.339 49.2085C36.0066 49.2085 34.7996 49.1933 33.5926 49.2295C33.4585 49.2333 33.2774 49.4928 33.2129 49.676C32.9255 50.4696 32.7165 51.2996 32.3961 52.0761C32.0042 53.0281 31.5304 53.9381 31.0515 54.9531C33.6849 53.7168 35.7297 51.8662 37.339 49.2105V49.2085Z" fill="white"/>
<path d="M14.4614 5.7314C14.2748 5.7314 14.0832 5.76015 13.9 5.72565C13.3602 5.62406 13.0421 5.25219 13.0104 4.61772C12.9804 4.0235 13.3702 3.51937 13.9166 3.45803C14.2465 3.42161 14.583 3.43311 14.9162 3.44653C15.5608 3.47145 15.984 3.91616 15.9973 4.56405C16.0123 5.23686 15.5725 5.70648 14.8995 5.73715C14.7546 5.7429 14.608 5.73715 14.463 5.73715C14.463 5.73332 14.463 5.7314 14.463 5.72756L14.4614 5.7314Z" fill="white"/>
<path d="M18.4632 5.73143C18.2766 5.73143 18.0851 5.76019 17.9018 5.72568C17.3621 5.62409 17.0439 5.25414 17.0106 4.61967C16.9789 4.02545 17.3704 3.51941 17.9151 3.45999C18.245 3.42357 18.5815 3.43507 18.9147 3.44849C19.5593 3.4734 19.9825 3.91619 19.9975 4.56408C20.0125 5.23689 19.5743 5.70843 18.9013 5.7391C18.7564 5.74485 18.6098 5.7391 18.4649 5.7391C18.4649 5.73527 18.4649 5.73335 18.4649 5.72952L18.4632 5.73143Z" fill="white"/>
<path d="M22.4778 5.74086C22.3529 5.74086 22.2279 5.74661 22.103 5.74086C21.4266 5.71019 20.9919 5.2444 21.0052 4.56775C21.0185 3.91986 21.4383 3.47708 22.0847 3.44832C22.3545 3.43682 22.6261 3.43682 22.8959 3.44832C23.5706 3.47516 24.0071 3.94478 23.9937 4.61951C23.9804 5.26548 23.5573 5.70827 22.9143 5.74086C22.7693 5.74852 22.6227 5.74086 22.4778 5.74086Z" fill="white"/>
<path d="M4.4597 19.5095C4.27312 19.5095 4.08155 19.5383 3.8983 19.5038C3.35857 19.4003 3.04205 19.0284 3.0104 18.3939C2.98042 17.7997 3.37189 17.2975 3.9183 17.2381C4.24814 17.2016 4.58464 17.2131 4.91781 17.2266C5.5625 17.2515 5.98396 17.6981 5.99729 18.346C6.01062 19.0188 5.57249 19.4865 4.89782 19.5172C4.75289 19.5229 4.6063 19.5172 4.46137 19.5172C4.46137 19.5133 4.46137 19.5114 4.46137 19.5076L4.4597 19.5095Z" fill="white"/>
<path d="M8.48726 19.519C8.38231 19.519 8.27903 19.5209 8.17575 19.519C7.4461 19.4999 6.99798 19.0532 7.00798 18.3555C7.01631 17.6578 7.45942 17.238 8.20406 17.2246C8.45394 17.2207 8.70382 17.2131 8.9537 17.2284C9.58673 17.2648 10.0065 17.7364 9.9982 18.3881C9.98987 19.036 9.56674 19.4845 8.92705 19.519C8.78212 19.5267 8.63552 19.519 8.49059 19.519H8.48726Z" fill="white"/>
<path d="M12.4435 19.5114C12.2769 19.5114 12.1087 19.5286 11.9438 19.5075C11.3907 19.4404 11.0092 18.9727 11.0059 18.3747C11.0025 17.7766 11.3824 17.2878 11.9321 17.2342C12.2836 17.1997 12.6401 17.2054 12.9933 17.2284C13.5896 17.2667 13.9911 17.7364 13.9944 18.3613C13.9978 18.9861 13.5963 19.4577 13.0049 19.5114C12.8183 19.5286 12.6301 19.5133 12.4435 19.5133C12.4435 19.5133 12.4435 19.5114 12.4435 19.5094V19.5114Z" fill="white"/>
</g>
<defs>
<clipPath id="clip0_822_1886">
<rect width="62" height="62" fill="white"/>
</clipPath>
</defs>
</svg>
