<svg width="85" height="85" viewBox="0 0 85 85" fill="none" xmlns="http://www.w3.org/2000/svg">
<path d="M85 27.5607C84.6812 29.2386 84.4621 30.943 84.0238 32.5899C81.3167 42.7345 72.2567 50.2163 61.7866 50.9932C53.8511 51.582 46.9559 49.2733 41.2716 43.6C39.5959 41.9266 37.7078 40.5321 35.5739 39.5006C29.1038 36.375 22.5893 36.3197 16.0461 39.2881C15.8447 39.3788 15.6499 39.4851 15.444 39.567C14.5321 39.9322 13.6511 39.64 13.2416 38.8387C12.8166 38.0064 13.1132 37.0568 14.0163 36.5898C16.2652 35.4277 18.6382 34.5954 21.1395 34.2102C29.9361 32.8577 37.4886 35.328 43.919 41.5016C50.3227 47.6508 57.9904 49.291 66.3222 46.6857C74.572 44.1047 79.6277 38.2366 81.279 29.7433C83.6475 17.5644 75.9511 6.2466 63.8076 3.74309C54.1057 1.74427 44.1647 6.52108 39.6579 15.3553C39.5472 15.5722 39.4543 15.798 39.317 16.0991C39.6336 16.0769 39.8682 16.0459 40.1006 16.0459C40.882 16.0437 41.4929 16.4997 41.6988 17.239C41.9091 17.9961 41.701 18.6977 41.0303 19.0364C39.6269 19.7425 38.1815 20.3734 36.7139 20.9378C35.917 21.2433 35.1689 20.8095 34.7682 19.9506C34.2215 18.773 33.7035 17.5821 33.1966 16.389C32.8048 15.4638 33.0195 14.6536 33.7367 14.1843C34.4362 13.7261 35.2596 13.8722 35.9679 14.5784C36.0233 14.6337 36.083 14.6824 36.1871 14.7776C36.3177 14.5429 36.4372 14.3349 36.5479 14.1246C40.9174 5.90793 47.6466 1.13554 56.9611 0.137239C57.178 0.115104 57.3905 0.0464843 57.6031 0C58.8758 0 60.1486 0 61.4214 0C62.0987 0.10625 62.7739 0.225781 63.4512 0.318749C73.1509 1.66458 81.4915 8.99803 84.0017 18.4675C84.4444 20.1388 84.668 21.8697 84.9933 23.5742C85 24.9045 85 26.2326 85 27.5607Z" fill="#757575"/>
<path d="M0 57.2777C0.272265 55.8167 0.442707 54.327 0.847785 52.9037C1.29049 51.3432 1.89479 49.8225 2.53007 48.3261C3.0901 47.0113 4.01314 46.5907 4.97603 47.0423C5.94113 47.4938 6.116 48.4501 5.52056 49.7494C2.40169 56.5472 2.39947 63.3538 5.98762 69.9236C10.2022 77.64 16.8959 81.6509 25.6837 81.6155C34.509 81.5801 41.07 77.4319 45.3465 69.7023C45.4528 69.5097 45.5413 69.306 45.6276 69.1046C45.6453 69.0603 45.621 68.9984 45.6144 68.9342C45.3731 68.9342 45.1318 68.9364 44.8883 68.9342C44.0892 68.9275 43.5801 68.4937 43.3588 67.7698C43.1374 67.0438 43.2879 66.3111 43.9896 65.9636C45.4218 65.253 46.8871 64.5934 48.3813 64.0312C49.1339 63.7478 49.8223 64.1441 50.1698 64.8679C50.794 66.1606 51.3784 67.4732 51.9229 68.8013C52.2483 69.5938 51.9296 70.4194 51.2544 70.8312C50.4996 71.2916 49.7404 71.1079 48.8682 70.2136C48.7554 70.4017 48.6425 70.5722 48.5495 70.7537C44.4965 78.6959 37.9998 83.2513 29.2519 84.6945C28.6321 84.7964 28.0123 84.9004 27.3925 85.0044C26.1197 85.0044 24.8469 85.0044 23.5742 85.0044C22.7618 84.8827 21.9406 84.803 21.1393 84.6348C10.6316 82.4389 3.85377 76.1813 0.856639 65.8795C0.436067 64.4362 0.281119 62.9156 0.00221354 61.4303C0 60.0446 0 58.6611 0 57.2777Z" fill="#757575"/>
<path d="M70.883 37.7518C69.8781 37.3291 69.0259 37.0169 68.2157 36.6163C67.638 36.3307 67.1554 36.2466 66.6397 36.7225C66.4006 36.9417 66.0974 37.1387 65.7875 37.225C64.7936 37.4973 64.6519 38.2388 64.5811 39.1087C64.3465 42.0439 64.1827 42.1789 61.2254 42.1789C59.6493 42.1789 58.0711 42.1833 56.495 42.1767C55.1359 42.1723 54.5759 41.6632 54.4409 40.3328C54.1708 37.6721 54.1753 37.6655 51.809 36.4613C51.6098 36.3595 51.2822 36.3949 51.0564 36.4813C50.3348 36.7557 49.6397 37.1011 48.9225 37.3866C47.9486 37.7762 47.1938 37.5327 46.6603 36.6251C45.5823 34.7901 44.5176 32.9485 43.4728 31.0957C42.946 30.1616 43.1209 29.4157 43.9443 28.7582C44.0306 28.6896 44.1236 28.6299 44.2121 28.5634C46.3039 27.0095 46.3128 27.0095 46.1822 24.3998C46.1711 24.174 45.9852 23.9017 45.7992 23.749C45.2215 23.2775 44.5973 22.8636 44.0063 22.4098C43.1098 21.7236 42.9305 20.9932 43.4772 20.0236C44.522 18.1709 45.5867 16.327 46.6669 14.4942C47.2004 13.5889 47.9464 13.3609 48.9336 13.7416C49.0376 13.7815 49.1372 13.8279 49.2391 13.87C51.6363 14.9059 51.6408 14.9148 53.8277 13.5003C54.0159 13.3786 54.1553 13.0775 54.193 12.8407C54.3125 12.1058 54.3678 11.3598 54.4542 10.6183C54.5803 9.54474 55.1868 8.97144 56.2582 8.96479C58.3876 8.95151 60.5193 8.95151 62.6487 8.96479C63.6935 8.97144 64.2823 9.51597 64.4261 10.5475C64.4461 10.6847 64.4859 10.8264 64.4704 10.9592C64.207 12.9934 65.4599 13.9674 67.078 14.6647C67.2927 14.7576 67.6092 14.7333 67.8372 14.6469C68.5588 14.3747 69.2561 14.0316 69.9733 13.7438C70.9539 13.352 71.6976 13.5867 72.2355 14.4986C73.3157 16.3314 74.3804 18.1731 75.4252 20.0281C75.9476 20.9533 75.7705 21.7148 74.9559 22.37C74.8696 22.4386 74.7855 22.5183 74.6859 22.5625C72.8642 23.3616 72.4148 24.8314 72.7136 26.6443C72.7557 26.9055 72.9062 27.2066 73.1054 27.3748C73.6765 27.8529 74.303 28.2646 74.8962 28.7184C75.7772 29.3935 75.9587 30.1572 75.4208 31.109C74.3738 32.9617 73.3312 34.8189 72.2112 36.6251C71.9234 37.0856 71.3501 37.3667 70.883 37.7518ZM61.2719 38.8188C61.3648 38.0662 61.4821 37.3578 61.5353 36.6429C61.5995 35.7641 62.0732 35.2815 62.8435 34.9052C63.8794 34.4028 64.891 33.8272 65.8384 33.1742C66.5534 32.6828 67.2152 32.539 68.001 32.8953C68.6695 33.1986 69.3468 33.4775 70.0507 33.7808C70.686 32.6762 71.2704 31.658 71.8703 30.6132C71.2549 30.1616 70.7126 29.7344 70.1415 29.3493C69.3933 28.8446 69.1698 28.1761 69.2317 27.284C69.3136 26.1352 69.3114 24.9731 69.2295 23.8265C69.1675 22.9322 69.4044 22.2704 70.1504 21.7657C70.7347 21.3717 71.2859 20.929 71.8725 20.4929C71.2372 19.3972 70.6484 18.379 70.0441 17.3386C69.2694 17.6728 68.5854 17.965 67.9058 18.2616C67.2108 18.5671 66.5998 18.4498 65.9579 18.0359C64.8954 17.3541 63.7975 16.7232 62.6797 16.1367C62.0355 15.798 61.6327 15.3641 61.5574 14.6292C61.4777 13.8656 61.3693 13.1019 61.2696 12.3161C60.0367 12.3161 58.8591 12.3161 57.6262 12.3161C57.5354 13.0798 57.438 13.8124 57.3628 14.5495C57.2786 15.3818 56.8138 15.8511 56.07 16.2119C55.0341 16.7144 54.0181 17.2833 53.0751 17.9407C52.3314 18.4587 51.6474 18.5826 50.8372 18.2019C50.1975 17.9008 49.5423 17.633 48.8561 17.3342C48.2186 18.4365 47.632 19.4547 47.03 20.4973C47.6985 20.9954 48.2895 21.4469 48.8915 21.8808C49.4848 22.308 49.6973 22.8658 49.6729 23.5985C49.6287 24.9155 49.6353 26.237 49.6751 27.5563C49.6973 28.2536 49.4958 28.7959 48.9336 29.2098C48.3138 29.6658 47.6985 30.1306 47.03 30.6287C47.6542 31.7022 48.2563 32.736 48.8694 33.7896C49.6287 33.4576 50.2861 33.1742 50.9413 32.8821C51.6607 32.5611 52.2938 32.6629 52.9645 33.1012C53.9982 33.7763 55.0695 34.4028 56.1719 34.9606C56.8559 35.3081 57.2698 35.7619 57.3539 36.5189C57.4402 37.2781 57.5354 38.0374 57.6306 38.8165C58.8502 38.8188 60.0057 38.8188 61.2719 38.8188Z" fill="#F7941D"/>
<path d="M25.5656 76.0348C24.5142 76.0348 23.4627 76.0503 22.4113 76.0304C21.34 76.0105 20.7268 75.4349 20.594 74.3747C20.5874 74.3193 20.5874 74.264 20.5829 74.2086C20.324 71.5723 20.3284 71.5657 17.971 70.3239C17.7717 70.2198 17.4419 70.2398 17.2184 70.3239C16.4967 70.5984 15.8017 70.9437 15.0845 71.2336C14.1039 71.6299 13.3425 71.3975 12.8112 70.4988C11.731 68.6659 10.6685 66.8221 9.6215 64.9693C9.07255 63.9976 9.25406 63.2649 10.1373 62.5787C10.1815 62.5455 10.2214 62.5012 10.2701 62.4813C12.1405 61.6645 12.6341 60.1615 12.3309 58.2845C12.2932 58.0476 12.1471 57.7753 11.9656 57.6248C11.3658 57.1356 10.7172 56.7106 10.1063 56.2347C9.25848 55.5751 9.08361 54.8358 9.60601 53.9061C10.6619 52.0268 11.7399 50.1586 12.8356 48.3036C13.3225 47.4802 14.0818 47.2411 14.976 47.5532C15.1066 47.5997 15.2306 47.6595 15.359 47.7148C17.7341 48.7375 17.7385 48.7441 19.9477 47.3717C20.1402 47.2522 20.2996 46.96 20.3372 46.7254C20.4568 45.9905 20.5099 45.2423 20.594 44.5008C20.7202 43.3851 21.3245 42.8295 22.46 42.8251C24.5629 42.8163 26.6657 42.8141 28.7686 42.8251C29.8665 42.8318 30.4199 43.3497 30.5748 44.4609C30.5903 44.5716 30.628 44.6823 30.6147 44.7885C30.3623 46.8028 31.5687 47.8122 33.2001 48.5073C33.417 48.6002 33.7313 48.5958 33.9571 48.5117C34.6544 48.2505 35.3273 47.9229 36.0157 47.6373C37.0871 47.1946 37.833 47.4204 38.4108 48.4032C39.4622 50.1896 40.4981 51.9847 41.5208 53.7888C42.1118 54.8291 41.9347 55.5795 40.9829 56.31C40.9386 56.3432 40.8988 56.3875 40.8501 56.4096C39.0571 57.2131 38.5237 58.6431 38.8557 60.4803C38.9044 60.7459 39.0372 61.0536 39.2342 61.2196C39.8274 61.7154 40.4804 62.136 41.0914 62.6141C41.917 63.2605 42.0919 64.0374 41.5739 64.9538C40.5291 66.8066 39.4622 68.6482 38.382 70.481C37.8419 71.3952 37.1048 71.6232 36.122 71.2469C36.0711 71.227 36.0091 71.2204 35.967 71.1894C34.3445 70.0007 32.7884 70.2044 31.2965 71.4284C31.1105 71.5812 30.9157 71.818 30.8759 72.0416C30.7386 72.8296 30.6767 73.6309 30.5682 74.4256C30.4287 75.4637 29.8422 76.0105 28.804 76.0304C27.7238 76.0525 26.6436 76.0348 25.5656 76.0348ZM23.7571 46.1698C23.6752 46.9268 23.5911 47.6108 23.5292 48.297C23.4473 49.1868 22.9802 49.7136 22.1634 50.0944C21.1452 50.5703 20.1557 51.1369 19.2393 51.7833C18.4712 52.3234 17.7673 52.4496 16.9284 52.0334C16.3175 51.7302 15.6777 51.4845 15.0026 51.1923C14.3718 52.2813 13.783 53.2996 13.1742 54.3532C13.8162 54.8313 14.3784 55.2763 14.9672 55.6836C15.6246 56.1395 15.8482 56.735 15.8106 57.5341C15.7508 58.7958 15.7552 60.0664 15.8106 61.3303C15.8438 62.0962 15.6335 62.6761 15.0115 63.121C14.4072 63.5527 13.8184 64.0065 13.172 64.4846C13.7852 65.5471 14.3762 66.5675 14.9982 67.6455C15.6777 67.3511 16.3108 67.0943 16.9284 66.8021C17.7629 66.4059 18.4734 66.5166 19.2437 67.0611C20.1602 67.7097 21.1518 68.2719 22.17 68.7478C22.9868 69.1308 23.4495 69.662 23.5314 70.5497C23.5956 71.2558 23.6863 71.9597 23.766 72.6658C25.0255 72.6658 26.2031 72.6658 27.4183 72.6658C27.5047 71.9685 27.6264 71.3133 27.6574 70.6537C27.7061 69.6355 28.2396 69.0976 29.1538 68.6969C30.1299 68.2697 31.064 67.7031 31.9295 67.0766C32.691 66.521 33.4015 66.3993 34.2405 66.7977C34.858 67.0899 35.4955 67.3445 36.1906 67.6455C36.8082 66.5786 37.3992 65.5559 38.0212 64.4779C37.4036 64.0219 36.8148 63.5704 36.2061 63.1454C35.5177 62.6673 35.3229 62.0298 35.3716 61.2063C35.4402 60.0287 35.4468 58.8401 35.3716 57.6625C35.3162 56.8014 35.5354 56.155 36.2526 55.6636C36.8436 55.2586 37.4102 54.8181 38.0234 54.3643C37.3992 53.2841 36.7971 52.2437 36.1906 51.1945C35.4181 51.531 34.7584 51.8121 34.1032 52.1043C33.3794 52.4297 32.7507 52.3168 32.08 51.8763C31.0463 51.1989 29.9683 50.5836 28.8704 50.0169C28.1953 49.6694 27.7703 49.2267 27.6972 48.4541C27.6242 47.6949 27.5091 46.9379 27.4095 46.1698C26.161 46.1698 25.0056 46.1698 23.7571 46.1698Z" fill="#757575"/>
<path d="M8.64299 40.8441C9.5485 40.8352 10.2769 41.5304 10.3057 42.4315C10.3345 43.368 9.60163 44.1451 8.68284 44.1517C7.77511 44.1584 6.98473 43.368 7.00022 42.4691C7.01351 41.5902 7.7574 40.8529 8.64299 40.8441Z" fill="#F7941D"/>
<path d="M59.4568 31.3768C56.307 31.3813 53.6574 28.787 53.633 25.6748C53.6065 22.3345 56.1609 19.7624 59.479 19.7801C62.7749 19.7978 65.2607 22.3279 65.2497 25.6571C65.2408 28.7826 62.6178 31.3724 59.4568 31.3768ZM61.9294 25.5685C61.9382 24.216 60.8314 23.0916 59.4745 23.0783C58.1265 23.065 56.9755 24.1806 56.9555 25.5176C56.9356 26.9188 58.0601 28.0499 59.4613 28.041C60.8491 28.03 61.9183 26.9586 61.9294 25.5685Z" fill="#F7941D"/>
<path d="M25.6504 53.6161C28.8069 53.6338 31.3989 56.2347 31.3901 59.3735C31.379 62.696 28.8667 65.215 25.5729 65.2017C22.288 65.1884 19.7668 62.6384 19.7735 59.338C19.7801 56.1882 22.4408 53.5983 25.6504 53.6161ZM28.0676 59.4022C28.0521 58.0055 26.9896 56.9496 25.5951 56.9474C24.1784 56.9452 23.0672 58.0719 23.096 59.4753C23.1225 60.8012 24.3001 61.9345 25.6283 61.9124C26.9785 61.8903 28.0809 60.7547 28.0676 59.4022Z" fill="#757575"/>
</svg>
