<svg width="62" height="62" viewBox="0 0 62 62" fill="none" xmlns="http://www.w3.org/2000/svg">
<path d="M62 11.5073V50.4969C61.9591 50.6515 61.906 50.8032 61.8802 50.9593C61.0401 56.0278 58.2209 59.4862 53.4121 61.2798C52.481 61.627 51.471 61.7665 50.4974 62H11.5069C11.0156 61.9045 10.5197 61.8241 10.0329 61.7104C4.01093 60.3034 0.0119386 55.2743 0.00587268 49.0626C-0.00322627 37.0182 -0.00322627 24.9739 0.0164881 12.928C0.0180046 11.947 0.0968621 10.9403 0.322819 9.98965C1.76349 3.9235 6.74667 0.00877369 12.9885 0.00574137C25.0128 -0.000323273 37.0386 -0.00335559 49.0628 0.00574137C55.2228 0.0102898 60.162 3.88711 61.6558 9.85775C61.7922 10.4021 61.8863 10.957 62 11.5073ZM58.368 31.0324C58.368 25.0391 58.3741 19.0457 58.3589 13.0523C58.3574 12.3306 58.3134 11.5938 58.1618 10.8903C57.2261 6.52371 53.6002 3.63998 49.0568 3.63846C37.0295 3.6324 25.0022 3.6324 12.9749 3.63846C7.60501 3.64149 3.63938 7.59867 3.63635 12.9613C3.63029 24.9875 3.63029 37.0152 3.63635 49.0414C3.63938 54.4056 7.60349 58.3627 12.9734 58.3658C25.0007 58.3718 37.028 58.3703 49.0552 58.3597C49.7361 58.3597 50.4322 58.3097 51.0964 58.1671C55.4397 57.2423 58.3528 53.6202 58.3619 49.1339C58.3756 43.0996 58.365 37.0667 58.365 31.0324H58.368Z" fill="#6C6C6C"/>
<path d="M31.0025 14.9807C31.2603 14.5834 31.4513 14.2514 31.6788 13.9451C32.6069 12.6989 34.2948 12.3607 35.6232 13.1431C36.9259 13.9118 37.4566 15.5341 36.8516 16.9305C36.7242 17.2246 36.565 17.5081 36.4042 17.7871C33.171 23.3893 29.9349 28.9915 26.7017 34.5937C26.594 34.7787 26.5015 34.9728 26.3605 35.2381C28.0499 35.2381 29.6649 35.3351 31.2603 35.2062C32.4992 35.1062 33.1756 35.5064 33.7155 36.6254C34.4752 38.1961 35.4367 39.6698 36.3526 41.2557C36.1585 41.2709 36.0311 41.2906 35.9038 41.2906C28.4593 41.2906 21.0149 41.2982 13.5719 41.2876C11.0546 41.2845 9.55778 38.8238 10.7922 36.7376C11.3973 35.7142 12.3375 35.2396 13.5173 35.2381C15.2931 35.235 17.0674 35.2244 18.8432 35.2472C19.2178 35.2517 19.4165 35.1304 19.6 34.8105C22.1477 30.3712 24.703 25.9349 27.2734 21.5093C27.466 21.1772 27.4387 20.9513 27.2583 20.6405C26.5379 19.4048 25.76 18.1934 25.1609 16.8986C24.248 14.9261 25.7948 12.6776 27.9649 12.7261C28.9491 12.7474 29.7574 13.1613 30.3428 13.9633C30.5657 14.2681 30.7568 14.5956 31.004 14.9776L31.0025 14.9807Z" fill="#F7941D"/>
<path d="M35.8938 23.5154C37.4072 26.1368 38.8585 28.6476 40.3098 31.1599C41.0059 32.3637 41.711 33.563 42.3859 34.7789C42.5739 35.1186 42.7786 35.2565 43.182 35.2505C44.9973 35.2247 46.814 35.2217 48.6293 35.2474C49.9971 35.2671 51.0905 36.1041 51.4878 37.3655C51.8715 38.5845 51.506 39.9278 50.4278 40.6374C49.8849 40.9937 49.1797 41.1741 48.5231 41.2681C47.7937 41.3742 47.0354 41.2924 46.1832 41.2924C46.4076 41.6972 46.5911 42.0398 46.7837 42.3779C47.2144 43.1299 47.6617 43.8729 48.0803 44.6325C48.9553 46.2214 48.5216 48.012 47.0733 48.855C45.575 49.7268 43.778 49.2492 42.8575 47.6617C39.4257 41.7533 36.0151 35.8327 32.6075 29.9105C32.5211 29.7604 32.4619 29.4981 32.5347 29.3693C33.6221 27.4407 34.7336 25.5258 35.8922 23.5154H35.8938Z" fill="#F7941D"/>
<path d="M21.4706 43.7151C20.5379 45.2676 19.7372 46.7353 18.8016 48.1135C17.969 49.3416 16.2751 49.6114 14.9557 48.87C13.7259 48.1787 13.1435 46.6034 13.6243 45.2601C14.1308 43.844 14.3112 43.7151 15.8065 43.7151H21.4706Z" fill="#F7941D"/>
</svg>
