<svg width="62" height="62" viewBox="0 0 62 62" fill="none" xmlns="http://www.w3.org/2000/svg">
<g clip-path="url(#clip0_822_1901)">
<path d="M57.4261 62H16.381C16.3495 61.9767 16.3193 61.9364 16.2852 61.9313C13.6106 61.5304 11.7352 59.2476 11.81 56.4354C11.8743 54.0164 11.8139 51.5934 11.8323 49.1717C11.8349 48.7696 11.6879 48.5932 11.3414 48.3895C9.9608 47.5763 8.49223 46.8499 7.27827 45.8317C1.56937 41.0506 -0.875618 34.9062 0.279287 27.6087C1.3397 20.9027 5.17188 16.0412 11.3388 13.0177C11.705 12.8387 11.8375 12.6441 11.8336 12.2407C11.8126 10.0214 11.8113 7.80205 11.8336 5.58271C11.8388 5.00291 11.8677 4.40105 12.0239 3.84719C12.7089 1.41643 14.6933 0.012971 17.3784 0.0116739C27.5468 0.00907969 37.7153 0.0155652 47.8837 0C48.549 0 49.0386 0.198456 49.5058 0.662817C53.4206 4.55541 57.346 8.43762 61.2884 12.3043C61.7911 12.7972 62.0011 13.3082 62.0011 14.01C61.984 28.0939 61.9892 42.1764 61.9879 56.2603C61.9879 56.6028 61.984 56.9478 61.9538 57.2876C61.8291 58.6781 61.2162 59.8183 60.1598 60.7444C59.371 61.4371 58.4117 61.738 57.4287 62H57.4261ZM13.9098 11.945C14.1683 11.884 14.3612 11.8451 14.5515 11.7945C17.6173 10.9838 20.7185 10.8424 23.8236 11.4793C28.7582 12.4911 32.8397 14.9491 35.7729 18.9986C40.4713 25.4841 40.9962 32.4054 37.5538 39.616C37.1522 40.4565 37.1194 40.4409 37.7835 41.0986C40.7259 44.0118 43.7011 46.8927 46.5988 49.8475C49.1199 52.4196 48.2446 56.6209 44.9478 58.0983C43.0462 58.9505 40.7416 58.5834 39.2153 57.0983C36.1903 54.1539 33.1914 51.1822 30.2005 48.2028C29.8383 47.8422 29.5863 47.802 29.123 48.0445C25.1872 50.1043 21.0085 50.7619 16.6146 50.0472C15.7235 49.902 14.8442 49.6866 13.9623 49.5051C13.9373 49.5984 13.919 49.6361 13.919 49.675C13.9163 51.9138 13.9767 54.1564 13.8953 56.3926C13.814 58.6496 15.4322 59.9636 17.4952 59.9584C30.4394 59.922 43.3835 59.9402 56.3276 59.9402C58.6505 59.9402 59.896 58.7222 59.896 56.4432C59.8973 42.6836 59.896 28.9253 59.896 15.1657C59.896 14.9529 59.896 14.7402 59.896 14.4756C59.5653 14.4756 59.3238 14.4756 59.081 14.4756C56.325 14.4756 53.5689 14.4847 50.8129 14.4717C48.6147 14.4613 47.3718 13.2148 47.3679 11.0409C47.364 8.27678 47.3679 5.51267 47.3679 2.74855C47.3679 2.53583 47.3679 2.3231 47.3679 2.07665C47.0726 2.07665 46.8705 2.07665 46.6684 2.07665C36.9291 2.07665 27.1912 2.07665 17.4519 2.07665C17.3089 2.07665 17.1658 2.07406 17.0228 2.08055C15.2314 2.16097 13.9649 3.41267 13.9163 5.17802C13.8914 6.10544 13.9098 7.03416 13.9098 7.96159C13.9098 9.26906 13.9098 10.5765 13.9098 11.9476V11.945ZM19.8641 48.2598C29.5167 48.3675 37.5971 40.4954 37.626 30.7892C37.6536 20.9909 29.8055 13.2252 19.9087 13.1461C10.1629 13.0683 2.13501 20.9118 2.11532 30.7101C2.09564 40.5356 10.1432 48.2456 19.8641 48.2598ZM31.6441 46.7033C31.6664 46.728 31.7426 46.8201 31.8266 46.9031C34.6416 49.6815 37.458 52.4598 40.2757 55.2356C40.449 55.4056 40.6366 55.5638 40.8348 55.7052C42.1551 56.6547 44.0449 56.4121 45.0765 55.1682C46.1539 53.8685 46.0214 52.1823 44.7037 50.8709C41.9005 48.0808 39.0828 45.3037 36.2703 42.5228C36.1758 42.4294 36.059 42.3554 36.0498 42.349C34.5747 43.8069 33.1376 45.2272 31.6441 46.7046V46.7033ZM58.0757 12.3925C55.2068 9.55832 52.3012 6.68654 49.4572 3.87832C49.4572 6.25331 49.4493 8.77228 49.4625 11.2912C49.4664 11.9722 49.8365 12.3782 50.5084 12.3847C53.0768 12.4054 55.6465 12.3938 58.0757 12.3938V12.3925Z" fill="#6C6C6C"/>
<path d="M30.6284 8.26761C26.9957 8.26761 23.3617 8.26761 19.729 8.26761C19.5256 8.26761 19.3195 8.2741 19.1174 8.25724C18.5308 8.20924 18.1423 7.84346 18.1016 7.31554C18.0623 6.80319 18.414 6.36088 18.9757 6.24544C19.1725 6.20523 19.3799 6.20263 19.5833 6.20263C26.9524 6.20004 34.3202 6.20004 41.6892 6.20523C41.9504 6.20523 42.2247 6.22468 42.4714 6.30121C42.9623 6.45167 43.1906 6.83432 43.1526 7.32203C43.1145 7.81103 42.8258 8.14568 42.3218 8.23648C42.083 8.27929 41.8336 8.26891 41.5895 8.26891C37.9358 8.27021 34.2821 8.26891 30.6284 8.26891V8.26761Z" fill="#F7941D"/>
<path d="M46.8526 20.6835C44.4246 20.6835 41.9954 20.6835 39.5675 20.6835C39.4047 20.6835 39.2394 20.6913 39.078 20.677C38.3955 20.6161 37.9506 20.1919 37.9611 19.6251C37.9729 19.0414 38.4086 18.6367 39.1121 18.6237C40.2539 18.603 41.397 18.6159 42.5401 18.6146C46.4169 18.6146 50.295 18.6146 54.1718 18.6146C55.2283 18.6146 55.723 18.9519 55.7112 19.6575C55.6994 20.3502 55.1928 20.6809 54.1377 20.6822C51.7097 20.6822 49.2805 20.6822 46.8526 20.6822V20.6835Z" fill="#F7941D"/>
<path d="M47.9361 39.2618C45.8153 39.2618 43.6932 39.2618 41.5723 39.2618C41.3479 39.2618 41.1195 39.2696 40.9017 39.2306C40.3977 39.1385 40.1077 38.8026 40.067 38.3188C40.0263 37.8311 40.2612 37.4497 40.7495 37.2954C40.9962 37.2175 41.2705 37.1994 41.5316 37.1994C45.7746 37.1942 50.0176 37.1942 54.2592 37.1981C54.4613 37.1981 54.6687 37.2059 54.8655 37.2487C55.4154 37.3693 55.7107 37.7221 55.7068 38.2786C55.7042 38.8091 55.3052 39.1995 54.7291 39.2488C54.4246 39.2747 54.1175 39.2631 53.8117 39.2631C51.8536 39.2631 49.8955 39.2631 47.9374 39.2631L47.9361 39.2618Z" fill="#F7941D"/>
<path d="M48.4171 31.0058C50.3542 31.0058 52.2913 31.0058 54.2271 31.0058C54.4108 31.0058 54.5959 30.998 54.777 31.0226C55.3295 31.1005 55.7166 31.5337 55.7114 32.0473C55.7061 32.5623 55.3098 32.9851 54.7586 33.0539C54.5972 33.0733 54.4331 33.0669 54.2704 33.0669C50.3555 33.0669 46.442 33.0669 42.5271 33.0669C42.4051 33.0669 42.2817 33.0708 42.1596 33.0617C41.5153 33.0124 41.1071 32.6077 41.1124 32.0279C41.1163 31.4753 41.51 31.0719 42.1176 31.0136C42.3198 30.9941 42.5245 31.0045 42.7292 31.0045C44.6256 31.0045 46.522 31.0045 48.4171 31.0045V31.0058Z" fill="#F7941D"/>
<path d="M48.4886 24.8175C50.4664 24.8175 52.4442 24.7994 54.4206 24.8344C54.7724 24.8409 55.2028 24.9797 55.4509 25.2105C55.9482 25.671 55.7317 26.5037 55.0952 26.7567C54.8577 26.8514 54.5794 26.876 54.3196 26.876C50.385 26.8825 46.4505 26.8812 42.5159 26.8799C42.3729 26.8799 42.2285 26.8851 42.0894 26.8643C41.4542 26.7735 41.0775 26.3416 41.1182 25.7605C41.1563 25.2105 41.5566 24.837 42.1905 24.824C43.1682 24.8045 44.1472 24.8162 45.1263 24.8162C46.2471 24.8162 47.3692 24.8162 48.4899 24.8162L48.4886 24.8175Z" fill="#F7941D"/>
<path d="M57.8065 52.8802C57.8065 53.4846 57.817 54.0891 57.8038 54.6935C57.7671 56.5004 56.5347 57.7936 54.7158 57.861C53.3509 57.9116 51.9834 57.8883 50.6172 57.8675C49.9019 57.8572 49.4426 57.3993 49.4636 56.8C49.4846 56.2111 49.9229 55.8233 50.6264 55.8155C51.8495 55.8026 53.074 55.8155 54.2971 55.8103C55.3654 55.8064 55.7145 55.4536 55.7171 54.3861C55.7198 53.1967 55.7145 52.0085 55.7198 50.8191C55.7224 50.2678 55.9192 49.8229 56.4993 49.6608C57.1673 49.4753 57.7421 49.9202 57.8012 50.6414C57.8038 50.6816 57.8051 50.7218 57.8051 50.762C57.8051 51.4676 57.8051 52.172 57.8051 52.8776L57.8065 52.8802Z" fill="#F7941D"/>
<path d="M49.9544 45.4645C48.4438 45.4645 46.9333 45.4827 45.424 45.458C44.5158 45.4438 43.9489 44.707 44.3597 44.0364C44.546 43.7329 45.0041 43.502 45.3781 43.4255C45.8873 43.3217 46.4332 43.3956 46.9648 43.3956C49.352 43.3956 51.7406 43.3931 54.1278 43.3982C54.3916 43.3982 54.6606 43.4086 54.9166 43.4644C55.4507 43.5798 55.7184 43.9521 55.7 44.4709C55.6817 44.9898 55.3903 45.3724 54.8483 45.4165C54.1383 45.4736 53.423 45.4606 52.7091 45.4658C51.7904 45.4723 50.8731 45.4671 49.9544 45.4671V45.4645Z" fill="#F7941D"/>
<path d="M37.9415 14.4716C36.6357 14.4716 35.3299 14.4703 34.0253 14.4716C33.503 14.4716 33.0437 14.3497 32.8193 13.8296C32.5699 13.2511 32.9046 12.6168 33.5332 12.4689C33.7484 12.4183 33.9768 12.404 34.1999 12.404C36.7092 12.4002 39.2185 12.4015 41.7278 12.4015C41.7894 12.4015 41.8498 12.4002 41.9115 12.4015C42.6963 12.4352 43.1661 12.8217 43.1701 13.4352C43.174 14.0514 42.7081 14.4574 41.9207 14.4664C40.5952 14.482 39.2683 14.4703 37.9428 14.4703L37.9415 14.4716Z" fill="#F7941D"/>
<path d="M19.8046 46.2015C11.3121 46.2741 4.21992 39.288 4.20024 30.8088C4.18055 22.0171 11.337 15.2021 20.0395 15.2151C28.2367 15.2281 35.3708 22.1507 35.5362 30.2537C35.7147 39.0013 28.7 46.2067 19.8046 46.2002V46.2015ZM19.8308 44.1313C27.2839 44.1676 33.3904 38.2036 33.4285 30.8477C33.4679 23.3038 27.5149 17.3657 19.8584 17.3125C12.4342 17.2606 6.35256 23.2753 6.31319 30.7089C6.27381 38.0804 12.3305 44.095 19.8308 44.1313Z" fill="#6C6C6C"/>
<path d="M19.6239 32.0423C17.2156 32.0423 14.8074 32.0423 12.3992 32.0423C12.2154 32.0423 12.0304 32.0475 11.8493 32.0293C11.197 31.9644 10.7757 31.5598 10.7744 31.0059C10.7744 30.4533 11.1957 30.046 11.8466 29.9812C12.0291 29.963 12.2141 29.9682 12.3965 29.9682C17.2327 29.9682 22.0689 29.9669 26.9063 29.9708C27.1898 29.9708 27.4838 29.9734 27.7568 30.0383C28.2528 30.155 28.514 30.5013 28.514 31.0046C28.514 31.5079 28.2528 31.8516 27.7594 31.9722C27.5061 32.0345 27.2344 32.0384 26.9706 32.0397C24.5217 32.0449 22.0728 32.0423 19.6239 32.0423Z" fill="#F7941D"/>
<path d="M19.6522 25.8305C18.5104 25.8305 17.3686 25.8383 16.2268 25.8279C15.4354 25.8214 14.9709 25.4388 14.963 24.8188C14.9551 24.2014 15.4263 23.7746 16.2019 23.7707C18.5064 23.7577 20.8097 23.7577 23.1143 23.7707C23.8859 23.7746 24.3558 24.2052 24.344 24.8253C24.3322 25.4543 23.882 25.8227 23.0788 25.8292C21.937 25.8383 20.7953 25.8318 19.6535 25.8318L19.6522 25.8305Z" fill="#F7941D"/>
<path d="M19.6497 36.1813C20.7915 36.1813 21.9333 36.1735 23.075 36.1839C23.8795 36.1903 24.3297 36.5574 24.3428 37.1865C24.3559 37.8065 23.8861 38.2385 23.1144 38.2424C20.8098 38.2553 18.5066 38.2592 16.202 38.2424C15.2597 38.2359 14.7138 37.5186 15.0576 36.7857C15.2716 36.3304 15.6745 36.1787 16.1627 36.1813C17.3254 36.1865 18.4869 36.1826 19.6497 36.1826V36.1813Z" fill="#F7941D"/>
</g>
<defs>
<clipPath id="clip0_822_1901">
<rect width="62" height="62" fill="white"/>
</clipPath>
</defs>
</svg>
