<svg width="85" height="77" viewBox="0 0 85 77" fill="none" xmlns="http://www.w3.org/2000/svg">
<path d="M0.00416146 15.7454C1.05493 15.733 2.1057 15.7101 3.15647 15.7101C9.63587 15.706 16.1132 15.708 22.5926 15.708C22.9213 15.708 23.2501 15.708 23.6725 15.708C23.6725 30.3227 23.6725 44.8751 23.6725 59.5085C44.1552 59.5085 64.5464 59.5085 85 59.5085C85 62.1676 85 64.7477 85 67.4338C82.9963 67.4338 80.9946 67.4338 78.9513 67.4338C80.5618 71.2501 80.0603 73.9466 77.4407 75.8869C75.3475 77.4387 72.2389 77.3535 70.181 75.6916C67.7195 73.6993 67.2826 70.9904 68.9014 67.4962C58.0691 67.4962 47.268 67.4962 36.367 67.4962C37.4532 69.2952 37.7466 71.169 37.0162 73.1281C36.5689 74.3246 35.7886 75.2865 34.7253 75.9991C32.5593 77.4512 29.6213 77.3078 27.603 75.6708C25.2206 73.7409 24.819 71.2189 26.3504 67.4338C22.8423 67.4338 19.3716 67.4338 15.824 67.4338C15.824 52.7797 15.824 38.2252 15.824 23.542C10.4973 23.542 5.24761 23.542 0 23.542C0.00416146 20.9431 0.00416146 18.3443 0.00416146 15.7454ZM82.551 62.018C62.0807 62.018 41.6896 62.018 21.2089 62.018C21.2089 47.3867 21.2089 32.8364 21.2089 18.2529C19.3903 18.2529 17.6633 18.2529 15.9072 18.2529C15.9072 19.2085 15.9072 20.1059 15.9072 21.0927C16.7228 21.0927 17.4844 21.0927 18.3188 21.0927C18.3188 35.7344 18.3188 50.2888 18.3188 64.8661C39.7732 64.8661 61.1527 64.8661 82.551 64.8661C82.551 63.9147 82.551 63.0359 82.551 62.018ZM31.4066 67.4442C29.4528 67.4318 27.8631 68.9794 27.8256 70.9343C27.7903 72.8663 29.3612 74.4763 31.315 74.5116C33.3209 74.5469 34.9189 72.9826 34.9189 70.9841C34.9209 69.0189 33.3708 67.4567 31.4066 67.4442ZM77.4698 70.9738C77.4657 69.0085 75.9134 67.4525 73.9472 67.4442C71.9496 67.4359 70.3725 69.0293 70.3953 71.0278C70.4182 72.993 71.9892 74.5262 73.9596 74.5116C75.9301 74.4971 77.474 72.9411 77.4698 70.9738ZM4.01998 21.0242C4.04702 20.3968 4.07199 19.8525 4.09696 19.2833C4.92509 19.2833 5.68664 19.2833 6.55639 19.2833C6.55639 19.8857 6.55639 20.4487 6.55639 20.9992C7.53433 20.9992 8.402 20.9992 9.33417 20.9992C9.33417 20.3926 9.33417 19.8525 9.33417 19.2999C10.1852 19.2999 10.9675 19.2999 11.8123 19.2999C11.8123 19.9003 11.8123 20.4425 11.8123 21.0013C12.3554 21.0013 12.8319 21.0013 13.2896 21.0013C13.2896 20.0436 13.2896 19.1483 13.2896 18.2446C9.67124 18.2446 6.11943 18.2446 2.53641 18.2446C2.53641 19.1898 2.53641 20.0872 2.53641 21.0221C3.03371 21.0242 3.48939 21.0242 4.01998 21.0242Z" fill="#757575"/>
<path d="M60.5615 27.947C67.1657 27.947 73.6597 27.947 80.2285 27.947C80.2285 32.9681 80.2285 37.9747 80.2285 43.0312C79.4462 43.0312 78.6867 43.0312 77.8336 43.0312C77.8336 38.8368 77.8336 34.6758 77.8336 30.4503C76.6497 30.4503 75.5594 30.4503 74.3692 30.4503C74.3692 32.1392 74.3692 33.8386 74.3692 35.6002C71.7433 35.6002 69.2152 35.6002 66.581 35.6002C66.581 33.9071 66.581 32.2099 66.581 30.4503C65.3908 30.4503 64.3026 30.4503 63.1374 30.4503C63.1374 35.3031 63.1374 40.1498 63.1374 45.1065C69.9581 45.1065 76.8057 45.1065 83.693 45.1065C83.693 49.2676 83.693 53.3186 83.693 57.4298C82.896 57.4298 82.1116 57.4298 81.2627 57.4298C81.2627 55.6889 81.2627 53.9833 81.2627 52.2113C75.1869 52.2113 69.1736 52.2113 63.0729 52.2113C63.0729 53.948 63.0729 55.6515 63.0729 57.4194C62.2323 57.4194 61.4749 57.4194 60.6072 57.4194C60.6072 50.5244 60.6072 43.6336 60.6072 36.6867C59.4087 36.6867 58.3205 36.6867 57.1449 36.6867C57.1449 38.6166 57.1449 40.5382 57.1449 42.5222C54.1133 42.5222 51.167 42.5222 48.1312 42.5222C48.1312 40.611 48.1312 38.6852 48.1312 36.695C46.9556 36.695 45.8673 36.695 44.6751 36.695C44.6751 43.5775 44.6751 50.4683 44.6751 57.4236C43.8157 57.4236 43.0563 57.4236 42.1761 57.4236C42.1761 53.2396 42.1761 49.0598 42.1761 44.8385C40.963 44.8385 39.8707 44.8385 38.6867 44.8385C38.6867 46.5794 38.6867 48.2787 38.6867 50.03C36.065 50.03 33.5348 50.03 30.9194 50.03C30.9194 48.3307 30.9194 46.6313 30.9194 44.8634C29.725 44.8634 28.6118 44.8634 27.4133 44.8634C27.4133 49.0391 27.4133 53.1981 27.4133 57.4236C26.5477 57.4236 25.7654 57.4236 24.9414 57.4236C24.9414 52.392 24.9414 47.4021 24.9414 42.3228C30.6697 42.3228 36.3584 42.3228 42.1033 42.3228C42.1033 39.7925 42.1033 37.3494 42.1033 34.8357C36.6871 34.8357 31.3001 34.8357 25.8403 34.8357C25.8403 33.9881 25.8403 33.2091 25.8403 32.3283C31.2419 32.3283 36.6497 32.3283 42.1054 32.3283C42.1054 31.5845 42.1054 30.9405 42.1054 30.2238C36.6643 30.2238 31.2772 30.2238 25.8278 30.2238C25.8278 29.3721 25.8278 28.591 25.8278 27.7621C32.0762 27.7621 38.2935 27.7621 44.6127 27.7621C44.6127 29.8541 44.6127 31.9398 44.6127 34.0816C49.9581 34.0816 55.2057 34.0816 60.5635 34.0816C60.5615 32.0561 60.5615 30.0244 60.5615 27.947ZM63.1104 49.5875C69.1819 49.5875 75.1849 49.5875 81.1794 49.5875C81.1794 48.902 81.1794 48.285 81.1794 47.6659C75.1308 47.6659 69.1445 47.6659 63.1104 47.6659C63.1104 48.312 63.1104 48.9103 63.1104 49.5875ZM54.5669 40.0521C54.5669 38.8555 54.5669 37.767 54.5669 36.6867C53.2206 36.6867 51.9389 36.6867 50.6364 36.6867C50.6364 37.8334 50.6364 38.9241 50.6364 40.0521C51.968 40.0521 53.2477 40.0521 54.5669 40.0521ZM36.1004 47.5662C36.1004 46.6126 36.1004 45.7256 36.1004 44.8634C35.1557 44.8634 34.2881 44.8634 33.4308 44.8634C33.4308 45.8004 33.4308 46.6687 33.4308 47.5662C34.3359 47.5662 35.1849 47.5662 36.1004 47.5662ZM71.7912 30.4503C70.8486 30.4503 69.9872 30.4503 69.1091 30.4503C69.1091 31.3789 69.1091 32.241 69.1091 33.1198C70.0309 33.1198 70.8944 33.1198 71.7912 33.1198C71.7912 32.2202 71.7912 31.3768 71.7912 30.4503Z" fill="#757575"/>
<path d="M67.2022 0.00207747C67.2022 6.79733 67.2022 13.551 67.2022 20.3878C65.8893 20.3878 64.6221 20.3878 63.357 20.3878C61.4469 20.3878 59.5368 20.3629 57.6288 20.4086C57.2397 20.419 56.7694 20.6081 56.4885 20.874C55.1839 22.108 53.9334 23.398 52.5996 24.7338C51.3075 23.4396 50.0299 22.1931 48.7919 20.9051C48.4132 20.5104 48.0241 20.3733 47.4873 20.3754C44.3641 20.3962 41.2409 20.3858 38.0449 20.3858C38.0449 13.5822 38.0449 6.83057 38.0449 0C47.7162 0.00207742 57.4103 0.00207747 67.2022 0.00207747ZM64.7033 17.8991C64.7033 12.6951 64.7033 7.59714 64.7033 2.48044C56.6092 2.48044 48.5713 2.48044 40.5335 2.48044C40.5335 7.64492 40.5335 12.7408 40.5335 17.8991C43.28 17.8991 45.9621 17.8825 48.6421 17.9178C49.0041 17.9219 49.4453 18.1068 49.7095 18.3561C50.6854 19.2764 51.6009 20.257 52.5809 21.2583C53.5401 20.2902 54.4203 19.4509 55.2401 18.5556C55.6854 18.0674 56.1515 17.8721 56.8215 17.8825C59.4224 17.924 62.0254 17.8991 64.7033 17.8991Z" fill="#F7941D"/>
<path d="M56.4226 57.6635C53.88 57.6635 51.3748 57.6635 48.7988 57.6635C48.7988 56.8886 48.7988 56.1095 48.7988 55.2723C51.3228 55.2723 53.8446 55.2723 56.4226 55.2723C56.4226 56.041 56.4226 56.8013 56.4226 57.6635Z" fill="#F7941D"/>
<path d="M71.0945 55.6035C71.0945 56.4241 71.0945 57.1865 71.0945 57.9926C69.0679 57.9926 67.0849 57.9926 65.0312 57.9926C65.0312 57.2281 65.0312 56.4449 65.0312 55.6035C67.0163 55.6035 69.0179 55.6035 71.0945 55.6035Z" fill="#757575"/>
<path d="M70.2871 40.8451C72.2035 40.8451 74.099 40.8451 76.0383 40.8451C76.0383 41.6428 76.0383 42.4052 76.0383 43.2279C74.1385 43.2279 72.2451 43.2279 70.2871 43.2279C70.2871 42.4509 70.2871 41.6698 70.2871 40.8451Z" fill="#F7941D"/>
<path d="M40.3352 57.6657C38.4251 57.6657 36.5545 57.6657 34.6152 57.6657C34.6152 56.8866 34.6152 56.1076 34.6152 55.2704C36.4983 55.2704 38.3918 55.2704 40.3352 55.2704C40.3352 56.064 40.3352 56.8451 40.3352 57.6657Z" fill="#F7941D"/>
<path d="M72.8457 55.5898C73.678 55.5898 74.4416 55.5898 75.2469 55.5898C75.2469 56.3938 75.2469 57.1562 75.2469 57.9768C74.4583 57.9768 73.6759 57.9768 72.8457 57.9768C72.8457 57.1915 72.8457 56.4312 72.8457 55.5898Z" fill="#757575"/>
<path d="M79.3791 58.0115C78.5718 58.0115 77.8289 58.0115 77.0195 58.0115C77.0195 57.2138 77.0195 56.4327 77.0195 55.5996C77.7894 55.5996 78.5509 55.5996 79.3791 55.5996C79.3791 56.3724 79.3791 57.1514 79.3791 58.0115Z" fill="#757575"/>
<path d="M31.802 40.7192C30.9947 40.7192 30.2393 40.7192 29.4258 40.7192C29.4258 39.9298 29.4258 39.1715 29.4258 38.3447C30.1832 38.3447 30.9634 38.3447 31.802 38.3447C31.802 39.1196 31.802 39.8966 31.802 40.7192Z" fill="#757575"/>
<path d="M35.9797 38.3389C35.9797 39.1574 35.9797 39.8907 35.9797 40.6947C35.1744 40.6947 34.3983 40.6947 33.5723 40.6947C33.5723 39.9177 33.5723 39.1594 33.5723 38.3389C34.3484 38.3389 35.1266 38.3389 35.9797 38.3389Z" fill="#757575"/>
<path d="M37.7227 40.6966C37.7227 39.9176 37.7227 39.1614 37.7227 38.3408C38.5029 38.3408 39.2811 38.3408 40.1134 38.3408C40.1134 39.1157 40.1134 39.8719 40.1134 40.6966C39.3248 40.6966 38.5487 40.6966 37.7227 40.6966Z" fill="#757575"/>
<path d="M32.5815 69.7905C32.5815 70.6049 32.5815 71.3444 32.5815 72.1526C31.7762 72.1526 30.9981 72.1526 30.1699 72.1526C30.1699 71.359 30.1699 70.6028 30.1699 69.7905C30.9731 69.7905 31.7326 69.7905 32.5815 69.7905Z" fill="#757575"/>
<path d="M75.1491 69.8118C75.1491 70.6012 75.1491 71.3345 75.1491 72.1468C74.3647 72.1468 73.5885 72.1468 72.75 72.1468C72.75 71.3968 72.75 70.6427 72.75 69.8118C73.5053 69.8118 74.2814 69.8118 75.1491 69.8118Z" fill="#757575"/>
<path d="M50.7647 14.8619C49.4227 13.2041 48.1555 11.6378 46.8301 9.99867C47.4668 9.48763 48.0806 8.9932 48.7589 8.44684C49.4851 9.32974 50.1925 10.1898 50.9312 11.0872C52.8663 9.08461 54.7639 7.12352 56.7281 5.0918C57.2962 5.72541 57.8101 6.29878 58.3885 6.94486C55.9125 9.51463 53.3761 12.1488 50.7647 14.8619Z" fill="#F7941D"/>
</svg>
