<svg width="286" height="229" viewBox="0 0 286 229" fill="none" xmlns="http://www.w3.org/2000/svg">
<g clip-path="url(#clip0_1600_1808)">
<path d="M236.575 104.582C236.575 92.1001 220.919 80.271 196.914 72.9354C202.453 48.5088 199.992 29.0751 189.143 22.8532C186.642 21.3938 183.719 20.7025 180.526 20.7025V29.2672C182.296 29.2672 183.719 29.6128 184.911 30.2657C190.143 33.2614 192.413 44.6682 190.643 59.3394C190.221 62.9497 189.528 66.7519 188.682 70.631C181.141 68.7874 172.909 67.3664 164.254 66.4447C159.061 59.3394 153.675 52.8871 148.25 47.2414C160.791 35.6042 172.563 29.2287 180.565 29.2287V20.6641C169.985 20.6641 156.137 28.1918 142.134 41.2499C128.131 28.2685 114.283 20.8177 103.704 20.8177V29.3823C111.667 29.3823 123.477 35.7195 136.017 47.2798C130.632 52.9256 125.246 59.3394 120.13 66.4447C111.435 67.3664 103.203 68.7874 95.6636 70.6693C94.7785 66.8288 94.1247 63.1032 93.6628 59.5315C91.8555 44.8602 94.086 33.4534 99.2799 30.4193C100.433 29.728 101.934 29.4208 103.704 29.4208V20.8561C100.472 20.8561 97.5483 21.5474 95.0099 23.0069C84.1997 29.2287 81.7765 48.624 87.3541 72.9738C63.4266 80.3478 47.8467 92.1388 47.8467 104.582C47.8467 117.065 63.5035 128.894 87.508 136.229C81.9683 160.656 84.4302 180.089 95.2791 186.311C97.7797 187.77 100.703 188.462 103.934 188.462C114.513 188.462 128.363 180.934 142.365 167.876C156.367 180.858 170.217 188.309 180.795 188.309C184.026 188.309 186.95 187.618 189.489 186.158C200.299 179.936 202.723 160.54 197.144 136.191C220.995 128.855 236.575 117.026 236.575 104.582ZM186.489 78.9652C185.065 83.92 183.296 89.0273 181.295 94.1355C179.718 91.0635 178.064 87.9907 176.256 84.9179C174.487 81.8457 172.601 78.85 170.716 75.9311C176.179 76.7376 181.449 77.7362 186.489 78.9652ZM168.869 119.868C165.869 125.053 162.792 129.969 159.599 134.54C153.867 135.039 148.059 135.308 142.211 135.308C136.402 135.308 130.593 135.039 124.9 134.578C121.707 130.007 118.591 125.13 115.59 119.983C112.666 114.952 110.013 109.844 107.589 104.698C109.974 99.5511 112.666 94.4043 115.552 89.3734C118.553 84.1888 121.63 79.2724 124.823 74.702C130.555 74.2027 136.363 73.9339 142.211 73.9339C148.02 73.9339 153.829 74.2027 159.522 74.6637C162.715 79.2341 165.831 84.1115 168.832 89.2583C171.755 94.2892 174.409 99.3974 176.833 104.544C174.409 109.69 171.755 114.837 168.869 119.868ZM181.295 114.876C183.314 119.881 185.086 124.982 186.604 130.161C181.564 131.39 176.256 132.427 170.755 133.234C172.64 130.277 174.524 127.243 176.295 124.131C178.064 121.059 179.718 117.948 181.295 114.876ZM142.287 155.855C138.71 152.168 135.132 148.058 131.593 143.565C135.056 143.719 138.595 143.834 142.172 143.834C145.789 143.834 149.366 143.757 152.867 143.565C149.565 147.849 146.033 151.952 142.287 155.855ZM113.667 133.234C108.205 132.427 102.934 131.428 97.895 130.199C99.3178 125.245 101.088 120.137 103.088 115.029C104.666 118.101 106.32 121.174 108.127 124.246C109.935 127.319 111.782 130.314 113.667 133.234ZM142.096 53.3097C145.673 56.9966 149.251 61.1062 152.79 65.5997C149.327 65.4461 145.789 65.3309 142.211 65.3309C138.595 65.3309 135.017 65.4077 131.517 65.5997C134.819 61.3157 138.35 57.213 142.096 53.3097ZM113.628 75.9311C111.743 78.8884 109.859 81.9225 108.089 85.033C106.32 88.1058 104.666 91.1786 103.088 94.2506C101.068 89.2455 99.2969 84.1442 97.7797 78.9652C102.819 77.7746 108.127 76.7376 113.628 75.9311ZM78.814 124.016C65.1962 118.216 56.3868 110.613 56.3868 104.582C56.3868 98.5523 65.1962 90.9098 78.814 85.1489C82.1223 83.7276 85.7386 82.4602 89.4702 81.2696C91.6628 88.7971 94.5479 96.632 98.1255 104.659C94.5867 112.648 91.7394 120.444 89.5854 127.934C85.7773 126.743 82.161 125.437 78.814 124.016ZM99.5105 178.899C94.2787 175.903 92.0086 164.497 93.7789 149.825C94.2021 146.215 94.8937 142.413 95.7402 138.533C103.281 140.377 111.513 141.798 120.168 142.72C125.361 149.825 130.747 156.277 136.171 161.923C123.631 173.561 111.859 179.936 103.857 179.936C102.126 179.898 100.665 179.552 99.5105 178.899ZM190.759 149.633C192.566 164.304 190.336 175.711 185.142 178.745C183.988 179.437 182.488 179.744 180.718 179.744C172.755 179.744 160.945 173.407 148.404 161.846C153.79 156.201 159.176 149.787 164.292 142.681C172.986 141.76 181.219 140.338 188.758 138.457C189.643 142.336 190.336 146.062 190.759 149.633ZM205.569 124.016C202.261 125.437 198.645 126.705 194.913 127.895C192.72 120.368 189.835 112.533 186.258 104.506C189.797 96.517 192.644 88.7207 194.798 81.2311C198.607 82.4218 202.222 83.7276 205.608 85.1489C219.226 90.9476 228.035 98.5523 228.035 104.582C227.996 110.613 219.187 118.255 205.569 124.016Z" fill="#61DAFB"/>
<path d="M142.172 122.134C151.882 122.134 159.753 114.276 159.753 104.582C159.753 94.8884 151.882 87.0303 142.172 87.0303C132.463 87.0303 124.592 94.8884 124.592 104.582C124.592 114.276 132.463 122.134 142.172 122.134ZM56.4162 218.682H50.6129V228.661H47.3379V203.994H55.5169C58.2997 203.994 60.4378 204.627 61.9311 205.892C63.4356 207.156 64.188 208.997 64.188 211.414C64.188 212.95 63.7694 214.288 62.9322 215.43C62.1065 216.57 60.9526 217.423 59.4706 217.987L65.274 228.457V228.661H61.7784L56.4162 218.682ZM50.6129 216.022H55.6187C57.2364 216.022 58.5204 215.604 59.4706 214.768C60.4322 213.933 60.9129 212.815 60.9129 211.414C60.9129 209.89 60.4548 208.721 59.5385 207.907C58.6335 207.094 57.3212 206.682 55.6017 206.671H50.6129V216.022ZM75.8968 229C73.4077 229 71.3827 228.186 69.8216 226.56C68.2604 224.922 67.4799 222.736 67.4799 220.004V219.427C67.4799 217.609 67.8249 215.989 68.515 214.566C69.2164 213.131 70.1893 212.013 71.4336 211.211C72.6894 210.398 74.0468 209.991 75.5062 209.991C77.8933 209.991 79.7488 210.776 81.0718 212.346C82.3956 213.916 83.0571 216.163 83.0571 219.088V220.393H70.6191C70.6644 222.201 71.1904 223.663 72.1972 224.781C73.2154 225.887 74.505 226.441 76.0663 226.441C77.1751 226.441 78.1135 226.215 78.8826 225.764C79.6524 225.312 80.3251 224.713 80.9023 223.968L82.8197 225.459C81.2808 227.819 78.9737 229 75.8968 229ZM75.5062 212.566C74.2392 212.566 73.1758 213.029 72.316 213.955C71.4563 214.871 70.9246 216.158 70.721 217.818H79.9182V217.581C79.8279 215.989 79.3978 214.757 78.6288 213.887C77.8589 213.007 76.8181 212.566 75.5062 212.566ZM98.041 228.661C97.8595 228.299 97.7124 227.656 97.5997 226.729C96.1399 228.242 94.398 229 92.3731 229C90.5633 229 89.076 228.491 87.9104 227.475C86.7569 226.447 86.1797 225.148 86.1797 223.578C86.1797 221.67 86.9039 220.19 88.3517 219.14C89.8106 218.077 91.8587 217.547 94.4944 217.547H97.549V216.107C97.549 215.012 97.2204 214.142 96.5649 213.498C95.9086 212.843 94.9408 212.516 93.6626 212.516C92.5426 212.516 91.6041 212.798 90.8463 213.363C90.0884 213.927 89.7091 214.61 89.7091 215.413H86.553C86.553 214.498 86.8756 213.617 87.5198 212.769C88.1762 211.911 89.0588 211.234 90.1676 210.736C91.2875 210.24 92.5142 209.991 93.8492 209.991C95.9653 209.991 97.6221 210.522 98.8212 211.584C100.02 212.634 100.642 214.086 100.688 215.937V224.374C100.688 226.057 100.903 227.396 101.333 228.389V228.661H98.041ZM92.8316 226.272C93.8157 226.272 94.749 226.018 95.6316 225.51C96.5133 225.001 97.1524 224.341 97.549 223.527V219.767H95.0879C91.2419 219.767 89.3185 220.89 89.3185 223.138C89.3185 224.12 89.6471 224.889 90.3026 225.442C90.959 225.995 91.8019 226.272 92.8316 226.272ZM112.973 226.441C114.093 226.441 115.072 226.102 115.909 225.425C116.746 224.747 117.21 223.9 117.3 222.883H120.27C120.214 223.934 119.851 224.933 119.184 225.882C118.516 226.831 117.623 227.588 116.503 228.152C115.394 228.717 114.218 229 112.973 229C110.474 229 108.482 228.169 107 226.509C105.53 224.837 104.794 222.556 104.794 219.665V219.14C104.794 217.355 105.122 215.768 105.779 214.379C106.435 212.99 107.373 211.911 108.596 211.143C109.828 210.375 111.282 209.991 112.956 209.991C115.015 209.991 116.724 210.607 118.081 211.838C119.45 213.069 120.179 214.667 120.27 216.632H117.3C117.21 215.446 116.757 214.475 115.943 213.718C115.14 212.95 114.144 212.566 112.956 212.566C111.361 212.566 110.123 213.142 109.24 214.294C108.369 215.435 107.933 217.09 107.933 219.258V219.851C107.933 221.963 108.369 223.589 109.24 224.73C110.111 225.871 111.356 226.441 112.973 226.441ZM128.059 205.892V210.33H131.487V212.753H128.059V224.12C128.059 224.854 128.212 225.407 128.517 225.78C128.822 226.142 129.343 226.323 130.078 226.323C130.44 226.323 130.938 226.255 131.571 226.119V228.661C130.745 228.886 129.942 229 129.161 229C127.759 229 126.701 228.576 125.988 227.729C125.276 226.882 124.92 225.679 124.92 224.12V212.753H121.576V210.33H124.92V205.892H128.059ZM163.269 228.661H159.994L147.556 209.653V228.661H144.281V203.994H147.556L160.028 223.087V203.994H163.269V228.661ZM179.899 228.661C179.717 228.299 179.57 227.656 179.457 226.729C177.998 228.242 176.256 229 174.231 229C172.421 229 170.933 228.491 169.768 227.475C168.615 226.447 168.037 225.148 168.037 223.578C168.037 221.67 168.761 220.19 170.209 219.14C171.668 218.077 173.716 217.547 176.352 217.547H179.407V216.107C179.407 215.012 179.078 214.142 178.422 213.498C177.766 212.843 176.799 212.516 175.52 212.516C174.4 212.516 173.462 212.798 172.704 213.363C171.946 213.927 171.567 214.61 171.567 215.413H168.411C168.411 214.498 168.733 213.617 169.378 212.769C170.034 211.911 170.917 211.234 172.025 210.736C173.145 210.24 174.372 209.991 175.707 209.991C177.822 209.991 179.48 210.522 180.679 211.584C181.878 212.634 182.5 214.086 182.546 215.937V224.374C182.546 226.057 182.761 227.396 183.191 228.389V228.661H179.899ZM174.689 226.272C175.673 226.272 176.607 226.018 177.489 225.51C178.371 225.001 179.01 224.341 179.407 223.527V219.767H176.946C173.1 219.767 171.176 220.89 171.176 223.138C171.176 224.12 171.505 224.889 172.16 225.442C172.817 225.995 173.66 226.272 174.689 226.272ZM191.726 205.892V210.33H195.154V212.753H191.726V224.12C191.726 224.854 191.879 225.407 192.184 225.78C192.49 226.142 193.01 226.323 193.745 226.323C194.107 226.323 194.605 226.255 195.239 226.119V228.661C194.412 228.886 193.61 229 192.828 229C191.426 229 190.368 228.576 189.655 227.729C188.943 226.882 188.587 225.679 188.587 224.12V212.753H185.244V210.33H188.587V205.892H191.726ZM202.247 228.661H199.107V210.33H202.247V228.661ZM198.852 205.468C198.852 204.96 199.006 204.531 199.311 204.18C199.628 203.83 200.091 203.655 200.702 203.655C201.313 203.655 201.777 203.83 202.094 204.18C202.41 204.531 202.569 204.96 202.569 205.468C202.569 205.976 202.41 206.399 202.094 206.739C201.777 207.077 201.313 207.247 200.702 207.247C200.091 207.247 199.628 207.077 199.311 206.739C199.006 206.399 198.852 205.976 198.852 205.468ZM213.344 224.409L217.891 210.33H221.099L214.515 228.661H212.122L205.471 210.33H208.678L213.344 224.409ZM231.501 229C229.012 229 226.987 228.186 225.426 226.56C223.865 224.922 223.084 222.736 223.084 220.004V219.427C223.084 217.609 223.429 215.989 224.119 214.566C224.82 213.131 225.793 212.013 227.038 211.211C228.294 210.398 229.651 209.991 231.11 209.991C233.497 209.991 235.353 210.776 236.676 212.346C237.999 213.916 238.662 216.163 238.662 219.088V220.393H226.223C226.269 222.201 226.794 223.663 227.802 224.781C228.819 225.887 230.11 226.441 231.67 226.441C232.779 226.441 233.718 226.215 234.487 225.764C235.256 225.312 235.93 224.713 236.507 223.968L238.424 225.459C236.885 227.819 234.578 229 231.501 229ZM231.11 212.566C229.844 212.566 228.78 213.029 227.92 213.955C227.06 214.871 226.529 216.158 226.326 217.818H235.522V217.581C235.432 215.989 235.002 214.757 234.233 213.887C233.464 213.007 232.423 212.566 231.11 212.566Z" fill="#61DAFB"/>
</g>
<defs>
<clipPath id="clip0_1600_1808">
<rect width="286" height="229" fill="white"/>
</clipPath>
</defs>
</svg>
