<svg width="199" height="199" viewBox="0 0 199 199" fill="none" xmlns="http://www.w3.org/2000/svg">
<path d="M0 66.2295H31.4047L0 97.1678V66.2295ZM0 132.77L66.5406 66.2295H33.5812L0 99.3443V132.77ZM66.5406 132.77L33.5812 101.365L2.17656 132.77H66.5406ZM77.7344 116.912V81.4654H85.6633V96.5459L100.122 81.4654H109.139L94.6805 96.5459L109.139 116.912H100.122L89.55 102.143L85.6633 106.029V116.912H77.7344Z" fill="#7F6CB1"/>
<path d="M120.488 89.8604C112.559 89.8604 106.185 95.9236 106.185 103.386C106.185 110.849 112.559 116.912 120.488 116.912C128.417 116.912 134.791 110.849 134.791 103.386C134.791 95.9236 128.417 89.8604 120.488 89.8604ZM120.488 111.004C116.291 111.004 112.87 107.584 112.87 103.386C112.87 99.1885 116.291 95.7682 120.488 95.7682C124.686 95.7682 128.106 99.1885 128.106 103.386C128.106 107.584 124.686 111.004 120.488 111.004Z" fill="#7F6CB1"/>
<path d="M136.657 83.0205H144.586V90.0166H150.805V96.5463H144.586V109.295C144.586 109.295 146.918 112.56 150.805 109.295V116.291C150.805 116.291 144.586 119.4 139.145 116.291C139.145 116.291 136.657 113.803 136.657 110.849V96.5463H133.548V89.7057L136.657 89.8611V83.0205ZM153.137 79.9111H160.755V116.757H153.137V79.9111ZM163.553 79.9111H171.327V86.4408H163.553V79.9111ZM163.553 90.0166H171.327V116.913H163.553V90.0166ZM173.97 90.0166H181.899V94.2143C181.899 94.2143 189.206 83.0205 198.067 94.2143L198.845 96.5463V116.913H191.071V100.433C191.071 100.433 186.718 92.1932 181.899 100.433V116.913H173.97V90.0166Z" fill="#7F6CB1"/>
</svg>
