<svg width="257" height="257" viewBox="0 0 257 257" fill="none" xmlns="http://www.w3.org/2000/svg">
<path d="M74.9918 108.422C74.9915 106.898 74.8368 105.378 74.53 103.885C73.9603 100.82 72.4434 98.0107 70.1931 95.8533C69.0501 94.7265 67.7181 93.809 66.2578 93.1428C64.8392 92.4349 63.3236 91.941 61.7603 91.6771C60.2143 91.3759 58.5077 91.3759 56.9616 91.2354H18.773C17.5831 91.2569 16.3958 91.3575 15.2192 91.5365C14.0463 91.673 12.8978 91.9703 11.8059 92.42C11.5048 92.5605 11.0229 92.7211 10.7217 92.8617C9.68329 93.4087 8.69557 94.0471 7.77023 94.7691C7.46906 95.0703 7.14781 95.2108 6.84664 95.4919C5.6921 96.5309 4.73325 97.7686 4.01562 99.1461C3.25096 100.512 2.72794 101.999 2.46961 103.543C2.23984 105.04 2.08571 106.548 2.00781 108.061V143.057C2.00811 144.581 2.16283 146.102 2.46961 147.595C3.03936 150.66 4.55619 153.468 6.80648 155.626C7.9378 156.718 9.2486 157.608 10.6816 158.256C12.1002 158.964 13.6158 159.458 15.1791 159.722C16.7251 160.023 18.4317 160.023 19.9777 160.164H57.042C58.6516 160.162 60.2577 160.014 61.8406 159.722C63.3753 159.457 64.8633 158.97 66.2578 158.276C67.71 157.587 69.0611 156.702 70.2734 155.646C71.4136 154.604 72.3587 153.366 73.0643 151.992C73.829 150.626 74.352 149.138 74.6103 147.595C74.8408 146.091 74.9949 144.576 75.0721 143.057V108.422H74.9918Z" fill="#F05138"/>
<path d="M50.7977 144.563C44.2924 148.117 35.3577 148.478 26.3827 144.844C19.3813 142.027 13.3868 137.173 9.17578 130.91C11.1382 132.375 13.2764 133.59 15.5405 134.524C24.8166 138.539 34.1128 138.359 40.6382 134.524C32.0247 127.97 24.2675 120.361 17.5484 111.876C16.3855 110.644 15.3495 109.299 14.4563 107.86C21.5119 113.787 29.0169 119.157 36.9037 123.923C31.1588 118.097 25.8757 111.834 21.1022 105.19C29.0637 112.827 37.8133 119.598 47.2038 125.388L48.2077 125.95C48.4795 125.295 48.7142 124.625 48.9104 123.943C51.0788 116.474 48.6092 107.98 43.1881 100.953C55.737 108.121 63.1659 121.593 60.0738 132.877C60.0738 133.179 59.9132 133.48 59.8128 133.781L59.9132 133.901C66.1173 141.23 64.4107 148.98 63.6277 147.514C60.2345 141.39 53.95 143.278 50.7977 144.563Z" fill="#FEFEFE"/>
<path d="M239.612 121.091H221.642V118.903C221.642 117.156 221.803 115.389 221.943 113.642C222.06 112.108 222.483 110.613 223.188 109.245C223.814 108.069 224.717 107.063 225.818 106.314C227.231 105.515 228.834 105.113 230.456 105.149C231.448 105.152 232.436 105.253 233.408 105.451C234.191 105.752 234.793 105.892 235.416 106.173L236.66 103.242C235.865 102.874 235.039 102.578 234.191 102.359C233.08 102.049 231.931 101.9 230.778 101.917C228.633 101.849 226.503 102.304 224.573 103.242C222.921 104.126 221.492 105.376 220.397 106.896C219.377 108.57 218.644 110.402 218.229 112.317C217.779 114.53 217.57 116.785 217.606 119.043V121.232H211.723V124.163H217.606V159.601H221.622V124.023H239.592V148.317C239.577 149.942 239.732 151.564 240.054 153.156C240.233 154.513 240.705 155.815 241.439 156.971C242.102 158.059 243.073 158.926 244.23 159.461C245.692 160.092 247.276 160.393 248.868 160.344C250.716 160.416 252.56 160.116 254.289 159.461L253.867 156.61C253.254 156.792 252.63 156.94 252 157.051C251.13 157.18 250.249 157.227 249.37 157.192C248.511 157.27 247.647 157.126 246.859 156.775C246.072 156.423 245.388 155.876 244.872 155.184C243.97 153.366 243.542 151.349 243.628 149.321V124.163H254.992V121.252H243.688V112.759L239.672 113.924L239.612 121.091ZM99.3863 153.738C101.101 154.863 102.986 155.703 104.968 156.228C107.132 156.878 109.375 157.223 111.634 157.252C115.204 157.471 118.731 156.378 121.553 154.18C122.693 153.18 123.601 151.943 124.215 150.556C124.829 149.169 125.133 147.665 125.106 146.149C125.21 143.409 124.27 140.733 122.476 138.66C120.004 136.293 117.043 134.498 113.802 133.399C109.952 132.215 106.375 130.277 103.281 127.697C102.008 126.562 101.001 125.16 100.331 123.592C99.6615 122.023 99.3457 120.326 99.4064 118.622C99.416 116.745 99.8411 114.894 100.651 113.201C101.482 111.566 102.644 110.123 104.065 108.964C105.557 107.686 107.301 106.735 109.184 106.173C111.276 105.453 113.478 105.107 115.69 105.149C117.979 105.131 120.262 105.373 122.496 105.872C123.945 106.247 125.346 106.786 126.672 107.478L125.126 110.691C123.969 109.985 122.719 109.444 121.412 109.085C119.466 108.462 117.431 108.163 115.389 108.201C113.443 108.147 111.504 108.446 109.666 109.085C108.235 109.598 106.924 110.397 105.811 111.434C104.949 112.371 104.268 113.46 103.804 114.646C103.373 115.718 103.161 116.865 103.181 118.019C103.123 119.343 103.341 120.663 103.822 121.897C104.302 123.131 105.035 124.252 105.972 125.187C108.594 127.364 111.587 129.05 114.806 130.167C116.898 130.961 118.914 131.942 120.83 133.098C122.447 134.079 123.955 135.23 125.327 136.531C126.471 137.675 127.366 139.042 127.957 140.547C128.587 142.229 128.9 144.012 128.881 145.808C128.896 147.761 128.528 149.698 127.797 151.51C127.065 153.314 125.932 154.927 124.484 156.228C122.844 157.644 120.95 158.734 118.902 159.441C116.398 160.244 113.781 160.637 111.152 160.605C109.909 160.578 108.669 160.477 107.438 160.304C106.187 160.134 104.947 159.892 103.723 159.581C102.557 159.283 101.415 158.894 100.31 158.417C99.3883 158.07 98.5066 157.626 97.6797 157.091L99.3863 153.738ZM136.531 121.252L143.197 143.057C143.819 145.245 144.442 147.454 145.064 149.361C145.686 151.269 146.148 153.377 146.61 155.064H146.911C147.373 153.317 147.995 151.409 148.618 149.361C149.24 147.313 150.003 145.346 150.786 143.057L158.617 121.252H162.331L169.921 142.756C170.704 145.105 171.467 147.293 172.089 149.341C172.712 151.389 173.334 153.357 173.796 155.044H174.097C174.559 153.136 175.021 151.229 175.643 149.341C176.265 147.454 176.888 145.326 177.651 142.896L184.718 121.252H188.734L175.422 159.601H172.25L164.64 138.218C163.864 135.876 163.088 133.68 162.311 131.632C161.689 129.625 161.066 127.396 160.605 125.187H160.444C159.887 127.415 159.217 129.613 158.436 131.773C157.66 133.821 156.883 136.016 156.107 138.359L148.236 159.601H144.823L132.515 121.252H136.531ZM197.388 121.252H201.403V159.601H197.388V121.252ZM195.842 109.546C195.836 109.099 195.921 108.654 196.091 108.24C196.261 107.825 196.513 107.45 196.832 107.135C197.15 106.82 197.529 106.572 197.945 106.407C198.362 106.242 198.807 106.163 199.255 106.173C200.156 106.191 201.018 106.545 201.672 107.165C202.325 107.785 202.724 108.628 202.789 109.526C202.792 109.974 202.697 110.416 202.51 110.822C202.322 111.229 202.047 111.588 201.704 111.876C201.02 112.467 200.139 112.782 199.235 112.759C198.336 112.749 197.466 112.438 196.765 111.876C196.152 111.245 195.8 110.406 195.781 109.526L195.842 109.546Z" fill="#221F20"/>
</svg>
