<svg width="94" height="94" viewBox="0 0 94 94" fill="none" xmlns="http://www.w3.org/2000/svg">
<circle cx="47" cy="47" r="47" fill="#3A0CA3" fill-opacity="0.29"/>
<circle cx="47" cy="47" r="37" fill="#3A0CA3"/>
<path d="M61.2439 38.9255C61.2176 38.6594 61.1242 38.4043 60.9724 38.1842C60.8207 37.964 60.6156 37.786 60.3762 37.6667L47.7096 31.3334C47.4896 31.2233 47.247 31.166 47.001 31.166C46.7551 31.166 46.5125 31.2233 46.2925 31.3334L33.6258 37.6667C33.3872 37.7867 33.1827 37.9649 33.0313 38.185C32.8799 38.405 32.7865 38.6597 32.7597 38.9255C32.7423 39.0949 31.2382 55.9732 46.359 62.6976C46.561 62.7888 46.7802 62.836 47.0018 62.836C47.2235 62.836 47.4426 62.7888 47.6447 62.6976C62.7655 55.9732 61.2613 39.0965 61.2439 38.9255ZM47.0018 59.5041C36.2842 54.3234 35.7776 43.267 35.8647 40.0892L47.0018 34.5206L58.1311 40.0861C58.1897 43.2353 57.6117 54.3646 47.0018 59.5041Z" fill="white"/>
<path d="M45.4163 47.9281L41.7857 44.2975L39.5469 46.5364L45.4163 52.4058L54.4524 43.3697L52.2135 41.1309L45.4163 47.9281Z" fill="white"/>
</svg>
