<svg width="242" height="341" viewBox="0 0 242 341" fill="none" xmlns="http://www.w3.org/2000/svg">
<path d="M212.794 339.198L92.8658 270.047C91.8108 269.44 90.9346 268.566 90.3253 267.513C89.716 266.46 89.3953 265.266 89.3953 264.05C89.3953 262.834 89.716 261.64 90.3253 260.587C90.9346 259.534 91.8108 258.66 92.8658 258.053L104.696 250.603C106.739 249.429 109.054 248.811 111.411 248.811C113.767 248.811 116.083 249.429 118.125 250.603L238.07 319.762C239.125 320.369 240.001 321.243 240.611 322.296C241.22 323.349 241.541 324.543 241.541 325.759C241.541 326.975 241.22 328.169 240.611 329.222C240.001 330.275 239.125 331.149 238.07 331.756L226.239 339.198C224.196 340.379 221.878 341 219.517 341C217.156 341 214.838 340.379 212.794 339.198Z" fill="#422A3F"/>
<path d="M30.4431 276.154C44.8167 276.154 56.4689 269.472 56.4689 261.229C56.4689 252.987 44.8167 246.305 30.4431 246.305C16.0695 246.305 4.41742 252.987 4.41742 261.229C4.41742 269.472 16.0695 276.154 30.4431 276.154Z" fill="#E6E6E6"/>
<path d="M209.142 330.933L103.669 270.12C96.225 265.829 90.1914 254.316 90.1914 244.407V18.8703C90.1914 8.9614 96.225 4.40996 103.669 8.70085L209.142 69.5143C216.586 73.8052 222.619 85.3181 222.619 95.2271V320.764C222.619 330.664 216.586 335.224 209.142 330.933Z" fill="#273043"/>
<path d="M221.29 62.4227L115.809 1.60926C112.63 -0.222718 109.711 -0.434414 107.403 0.689197C107.121 0.830468 106.848 0.990975 106.588 1.16958L94.7654 8.03338C97.1462 6.60851 100.261 6.71436 103.677 8.68475L209.15 69.4982C216.594 73.7891 222.627 85.302 222.627 95.211V320.747C222.627 325.991 220.94 329.704 218.249 331.462L229.917 324.68C232.893 323.101 234.809 319.233 234.809 313.688V88.1518C234.809 78.2265 228.734 66.7136 221.29 62.4227Z" fill="#3F4C53"/>
<path d="M222.619 95.2111V320.748C222.619 325.991 220.932 329.704 218.241 331.463L229.917 324.68C232.893 323.101 234.809 319.233 234.809 313.688V88.1519L222.66 95.1948L222.619 95.2111Z" fill="#33454F"/>
<path d="M234.768 105.649L222.619 112.652V118.123L234.768 111.113V105.649Z" fill="#3F4C53"/>
<path d="M229.444 142.036C228.359 142.663 227.479 141.995 227.479 140.554V128.789C227.49 128.053 227.673 127.331 228.014 126.679C228.356 126.027 228.845 125.464 229.444 125.035C230.528 124.408 231.409 125.035 231.409 126.517V138.282C231.398 139.018 231.214 139.741 230.873 140.392C230.532 141.044 230.042 141.607 229.444 142.036Z" fill="#3F4C53"/>
<path d="M227.471 140.587V128.789C227.482 128.053 227.665 127.331 228.006 126.679C228.348 126.027 228.837 125.464 229.436 125.035C229.614 124.91 229.823 124.834 230.04 124.814C230.257 124.794 230.476 124.831 230.675 124.921L229.199 124.164C228.997 124.067 228.773 124.025 228.55 124.042C228.327 124.059 228.112 124.135 227.927 124.262C227.328 124.691 226.838 125.253 226.495 125.905C226.153 126.557 225.967 127.28 225.954 128.015V139.773C225.923 140.07 225.969 140.37 226.086 140.644C226.203 140.919 226.387 141.16 226.623 141.344L228.164 142.158C227.918 141.982 227.725 141.743 227.603 141.467C227.481 141.19 227.435 140.887 227.471 140.587Z" fill="#273043"/>
<path d="M229.444 170.509C228.359 171.136 227.479 170.509 227.479 169.027V157.262C227.49 156.526 227.674 155.804 228.015 155.152C228.356 154.5 228.846 153.937 229.444 153.508C230.528 152.881 231.409 153.508 231.409 154.998V166.755C231.399 167.491 231.216 168.214 230.875 168.866C230.533 169.518 230.043 170.081 229.444 170.509Z" fill="#3F4C53"/>
<path d="M227.471 169.027V157.262C227.482 156.526 227.666 155.804 228.007 155.152C228.348 154.5 228.838 153.937 229.436 153.508C229.615 153.385 229.824 153.31 230.04 153.291C230.257 153.271 230.476 153.306 230.675 153.394L229.199 152.629C228.998 152.527 228.774 152.483 228.549 152.5C228.325 152.517 228.11 152.596 227.927 152.726C227.327 153.154 226.835 153.716 226.493 154.368C226.15 155.02 225.965 155.744 225.954 156.48V168.27C225.923 168.567 225.968 168.867 226.085 169.142C226.202 169.417 226.387 169.657 226.623 169.841L228.164 170.655C227.908 170.475 227.708 170.227 227.586 169.939C227.464 169.652 227.424 169.336 227.471 169.027Z" fill="#273043"/>
<path d="M205.456 75.8407L101.81 16.0613C101.377 15.8128 100.887 15.6816 100.388 15.6807C99.8892 15.6797 99.3986 15.8092 98.9651 16.0561C98.5316 16.3029 98.1703 16.6588 97.9171 17.0882C97.6638 17.5176 97.5274 18.0056 97.5213 18.504V244.407C97.5213 251.946 102.878 261.204 109.417 264.974L210.52 323.296C210.999 323.571 211.543 323.716 212.096 323.716C212.649 323.715 213.192 323.569 213.671 323.293C214.15 323.017 214.548 322.62 214.825 322.141C215.102 321.663 215.248 321.121 215.249 320.568V92.8007C215.289 86.5801 210.87 78.951 205.456 75.8407Z" fill="white"/>
<path opacity="0.9" d="M205.456 75.8407L101.81 16.0613C101.377 15.8128 100.887 15.6816 100.388 15.6807C99.8892 15.6797 99.3986 15.8092 98.9651 16.0561C98.5316 16.3029 98.1703 16.6588 97.9171 17.0882C97.6638 17.5176 97.5274 18.0056 97.5213 18.504V244.407C97.5213 251.946 102.878 261.204 109.417 264.974L210.52 323.296C210.999 323.571 211.543 323.716 212.096 323.716C212.649 323.715 213.192 323.569 213.671 323.293C214.15 323.017 214.548 322.62 214.825 322.141C215.102 321.663 215.248 321.121 215.249 320.568V92.8007C215.289 86.5801 210.87 78.951 205.456 75.8407Z" fill="#E4334F"/>
<path d="M132.809 31.6694L134.416 38.4192L168.774 58.2046L174.71 55.0454L132.809 31.6694Z" fill="#273043"/>
<path d="M142.911 38.1913C142.911 39.3149 142.096 39.7627 141.15 39.2091C140.643 38.8724 140.221 38.4216 139.919 37.8927C139.618 37.3639 139.444 36.7718 139.414 36.1639C139.414 35.0485 140.229 34.5925 141.175 35.1543C141.682 35.4892 142.104 35.9385 142.406 36.4661C142.707 36.9936 142.881 37.5846 142.911 38.1913Z" fill="#33454F"/>
<path d="M166.059 52.4813C165.871 52.4798 165.686 52.4323 165.521 52.3429L147.975 42.5724C147.727 42.4271 147.546 42.1908 147.47 41.9141C147.395 41.6373 147.43 41.342 147.57 41.0911C147.709 40.8403 147.941 40.6538 148.216 40.5715C148.492 40.4893 148.788 40.5177 149.043 40.6509L166.597 50.4214C166.81 50.5398 166.978 50.7257 167.074 50.9499C167.17 51.174 167.189 51.4237 167.127 51.6596C167.066 51.8955 166.927 52.1043 166.734 52.253C166.541 52.4018 166.303 52.4821 166.059 52.4813Z" fill="#33454F"/>
<path d="M119.258 63.0738C118.19 62.455 117.416 62.9924 117.416 64.3521C117.416 65.0321 117.584 65.7015 117.905 66.301C118.227 66.9004 118.692 67.4112 119.258 67.7881C119.562 67.9721 119.91 68.0694 120.265 68.0694C120.62 68.0694 120.969 67.9721 121.272 67.7881L122.976 70.8658C122.377 71.1962 121.697 71.3536 121.013 71.3205C120.329 71.2874 119.668 71.0652 119.103 70.6786C117.719 69.8327 116.565 68.6592 115.743 67.2617C114.921 65.8643 114.456 64.2861 114.391 62.6667C114.391 59.646 116.421 58.5957 119.218 60.2241C120.797 61.2397 122.091 62.6409 122.976 64.2951L121.272 65.6467C120.852 64.6197 120.155 63.7291 119.258 63.0738Z" fill="white"/>
<path d="M132.785 73.276C132.785 76.3212 130.722 77.3471 127.893 75.7187C126.469 74.8689 125.277 73.681 124.424 72.2606C123.57 70.8401 123.081 69.2311 123.001 67.5766C123.001 64.5314 125.064 63.5055 127.893 65.1339C129.32 65.9798 130.514 67.1668 131.368 68.5881C132.222 70.0093 132.709 71.6203 132.785 73.276ZM126.026 69.3922C126.04 70.0913 126.22 70.777 126.552 71.3928C126.884 72.0086 127.357 72.5369 127.934 72.9341C128.945 73.5203 129.76 72.9341 129.76 71.5499C129.757 70.8666 129.59 70.194 129.272 69.5888C128.954 68.9837 128.495 68.4639 127.934 68.0732C126.906 67.4789 126.026 67.9837 126.026 69.3922Z" fill="white"/>
<path d="M136.071 70.0442L139.593 77.3721V72.096L142.259 73.6348V83.902L139.813 82.4853L136.307 75.2225V80.4661L133.625 78.9191V68.6274L136.071 70.0442Z" fill="white"/>
<path d="M150.975 78.6337V81.3206L148.431 79.855V87.4434L145.488 85.7417V78.1533L142.96 76.6958V74.0171L150.975 78.6337Z" fill="white"/>
<path d="M156.715 90.7654L153.372 88.8357L152.916 90.0245L149.899 88.2821L153.658 80.1807L156.683 81.9231L160.303 94.2828L157.164 92.4753L156.715 90.7654ZM155.99 87.9157L155.076 84.4064L154.139 86.8491L155.99 87.9157Z" fill="white"/>
<path d="M164.975 89.4303C163.906 88.8196 163.132 89.3489 163.132 90.7167C163.133 91.3964 163.302 92.0653 163.624 92.6645C163.945 93.2637 164.409 93.7748 164.975 94.1527C165.28 94.3348 165.63 94.431 165.986 94.431C166.342 94.431 166.691 94.3348 166.997 94.1527L168.701 97.2304C168.099 97.557 167.418 97.7122 166.734 97.6792C166.05 97.6461 165.387 97.4262 164.82 97.0432C163.434 96.1966 162.279 95.0217 161.457 93.6228C160.635 92.2238 160.171 90.6439 160.107 89.0232C160.107 86.0024 162.145 84.9521 164.934 86.5805C166.511 87.6011 167.806 89.0009 168.701 90.6516L166.997 91.995C166.567 90.9734 165.868 90.087 164.975 89.4303Z" fill="white"/>
<path d="M176.74 93.4929V96.1716L174.196 94.706V102.319L171.253 100.617V93.0288L168.725 91.5713V88.8926L176.74 93.4929Z" fill="white"/>
<path d="M185.44 106.097C186.165 106.512 186.72 106.187 186.72 105.169V99.2495L189.671 100.943V106.862C189.671 109.59 188.041 110.404 185.431 108.914C184.175 108.217 183.118 107.209 182.363 105.988C181.607 104.766 181.179 103.371 181.118 101.936V96.0171L184.07 97.7188V103.638C184.081 104.128 184.212 104.608 184.451 105.037C184.689 105.465 185.029 105.829 185.44 106.097Z" fill="white"/>
<path d="M194.425 106.129C194.09 105.942 193.878 105.934 193.878 106.243C193.878 107.53 198.485 109.386 198.485 113.107C198.485 115.387 196.748 115.395 194.743 114.239C192.98 113.16 191.461 111.726 190.283 110.029L191.375 108.108C192.272 109.494 193.423 110.698 194.767 111.658C195.199 111.91 195.477 111.91 195.477 111.544C195.477 110.208 190.862 108.433 190.862 104.826C190.862 102.775 192.362 102.384 194.677 103.687C196.169 104.588 197.482 105.755 198.55 107.131L197.482 109.101C196.6 107.979 195.572 106.98 194.425 106.129Z" fill="white"/>
<path d="M104.427 113.669C107.735 109.612 109.401 104.463 109.095 99.2401C108.788 94.0167 106.533 89.0975 102.773 85.4532C99.0134 81.8089 94.0225 79.7041 88.785 79.554C83.5476 79.4039 78.444 81.2195 74.4812 84.6425C70.5184 88.0655 67.9841 92.8474 67.3785 98.0447C66.7728 103.242 68.1397 108.477 71.2095 112.717C74.2793 116.958 78.829 119.895 83.961 120.95C89.093 122.005 94.4346 121.101 98.9319 118.416L109.14 122.845L104.427 113.669Z" fill="white"/>
<path opacity="0.4" d="M104.427 113.669C107.735 109.612 109.401 104.463 109.095 99.2401C108.788 94.0167 106.533 89.0975 102.773 85.4532C99.0134 81.8089 94.0225 79.7041 88.785 79.554C83.5476 79.4039 78.444 81.2195 74.4812 84.6425C70.5184 88.0655 67.9841 92.8474 67.3785 98.0447C66.7728 103.242 68.1397 108.477 71.2095 112.717C74.2793 116.958 78.829 119.895 83.961 120.95C89.093 122.005 94.4346 121.101 98.9319 118.416L109.14 122.845L104.427 113.669Z" fill="#273043"/>
<path d="M80.4236 99.3388C80.4236 99.0212 80.1953 98.8421 79.7795 98.8421C78.815 98.9683 77.9142 99.3924 77.203 100.055L76.0453 97.808C77.264 96.8923 78.7362 96.3747 80.2606 96.3262C82.2174 96.3262 83.7013 97.3521 83.7013 98.8828C83.7013 99.9738 82.886 101.024 81.8423 102.075L80.3829 103.516H83.8318V105.909H76.4203V103.947L79.7224 100.536C80.078 100.222 80.3237 99.8022 80.4236 99.3388Z" fill="#E4334F"/>
<path d="M89.8653 96.4653L87.6149 101.855H88.5363V100.04H91.3737V101.855H92.4499V104.078H91.3737V105.91H88.5363V104.078H84.5003V102.059L86.9464 96.4653H89.8653Z" fill="#E4334F"/>
<path d="M101.207 101.211V105.909H98.1736V102.083C98.1911 101.958 98.1816 101.831 98.1458 101.711C98.11 101.59 98.0486 101.478 97.9659 101.383C97.8832 101.288 97.7811 101.212 97.6664 101.16C97.5517 101.108 97.4272 101.081 97.3012 101.081C96.706 101.081 96.3309 101.545 96.3309 102.262V105.909H93.2979V95.9272H96.3309V99.5993C96.5682 99.2248 96.8989 98.9183 97.2905 98.7099C97.6822 98.5015 98.1213 98.3984 98.565 98.4106C98.9285 98.4012 99.2899 98.4686 99.6256 98.6083C99.9613 98.748 100.264 98.9568 100.513 99.2212C100.762 99.4855 100.953 99.7994 101.073 100.142C101.192 100.485 101.238 100.85 101.207 101.211Z" fill="#E4334F"/>
<path d="M200.108 176.868V278.034C200.109 279.178 199.809 280.302 199.237 281.294C198.666 282.286 197.842 283.109 196.85 283.682C195.859 284.255 194.733 284.557 193.587 284.557C192.442 284.558 191.316 284.257 190.324 283.684L135.761 252.223L126.091 246.654C122.761 244.731 119.995 241.97 118.069 238.645C116.143 235.32 115.125 231.548 115.116 227.707V126.534C115.115 125.389 115.415 124.265 115.987 123.273C116.558 122.282 117.382 121.458 118.374 120.885C119.365 120.312 120.491 120.011 121.637 120.01C122.783 120.01 123.908 120.311 124.901 120.883L189.149 157.921C192.481 159.841 195.247 162.603 197.171 165.928C199.094 169.254 200.107 173.027 200.108 176.868Z" fill="white"/>
<path opacity="0.5" d="M200.108 176.868V278.034C200.109 279.178 199.809 280.302 199.237 281.294C198.666 282.286 197.842 283.109 196.85 283.682C195.859 284.255 194.733 284.557 193.587 284.557C192.442 284.558 191.316 284.257 190.324 283.684L135.761 252.223L126.091 246.654C122.761 244.731 119.995 241.97 118.069 238.645C116.143 235.32 115.125 231.548 115.116 227.707V126.534C115.115 125.389 115.415 124.265 115.987 123.273C116.558 122.282 117.382 121.458 118.374 120.885C119.365 120.312 120.491 120.011 121.637 120.01C122.783 120.01 123.908 120.311 124.901 120.883L189.149 157.921C192.481 159.841 195.247 162.603 197.171 165.928C199.094 169.254 200.107 173.027 200.108 176.868Z" fill="#E4334F"/>
<path d="M168.676 236.729C168.676 236.729 178.892 253.648 171.514 272.725L135.736 252.223L168.676 236.729Z" fill="#33454F"/>
<path d="M184.969 160.712C185.742 154.441 181.278 148.732 174.999 147.96C168.72 147.188 163.003 151.645 162.229 157.916C161.456 164.186 165.92 169.895 172.199 170.668C178.478 171.44 184.196 166.982 184.969 160.712Z" fill="#33454F"/>
<path d="M173.658 127.225C173.658 127.225 177.172 121.526 178.248 121.941C179.325 122.356 177.547 127.787 177.547 127.787C177.547 127.787 182.863 128.894 181.877 130.23C180.89 131.565 174.392 131.247 174.392 131.247L173.658 127.225Z" fill="#33454F"/>
<path d="M176.104 141.914C173.658 160.266 158.166 160.266 158.166 160.266L125.716 146.001C125.716 146.001 123.27 143.86 122.52 138.942C122.232 136.927 122.232 134.882 122.52 132.868C122.52 132.868 122.52 132.827 122.52 132.811C123.555 125.092 129.336 116.795 141.925 114.247C144.684 113.691 147.492 113.418 150.307 113.433C151.668 113.428 153.029 113.496 154.383 113.636C164.167 114.597 171.024 119.157 174.294 126.248C175.029 127.849 175.577 129.529 175.925 131.256C176.588 134.773 176.649 138.377 176.104 141.914Z" fill="#33454F"/>
<path d="M98.198 177.414C98.198 177.414 86.6773 177.015 82.2418 188.227C82.2418 188.227 87.1338 191.524 93.5506 188.227C99.9673 184.929 98.198 177.414 98.198 177.414Z" fill="white"/>
<path opacity="0.5" d="M98.198 177.414C98.198 177.414 86.6773 177.015 82.2418 188.227C82.2418 188.227 87.1338 191.524 93.5506 188.227C99.9673 184.929 98.198 177.414 98.198 177.414Z" fill="black"/>
<path d="M97.8719 182.812C97.8719 182.812 94.6105 168.661 92.8902 168.49C91.1698 168.319 90.8355 172.805 90.9741 175.337L86.8974 166.576C86.7681 166.304 86.5843 166.061 86.3574 165.862C86.1304 165.664 85.8652 165.514 85.5779 165.422C85.2907 165.329 84.9876 165.297 84.6873 165.326C84.3869 165.355 84.0958 165.445 83.8317 165.591C79.755 167.83 72.6045 174.637 87.6801 191.467L97.8719 182.812Z" fill="#945959"/>
<path d="M139.617 173.025L137.171 172.707C134.706 172.381 132.199 172.716 129.906 173.677C127.613 174.639 125.618 176.193 124.126 178.179L109.572 197.524L98.1573 177.413C98.1573 177.413 96.7875 191.092 82.201 188.226L97.8637 214.55C98.855 216.216 100.235 217.619 101.885 218.638C103.536 219.658 105.409 220.264 107.345 220.406C109.281 220.547 111.222 220.22 113.004 219.451C114.786 218.682 116.355 217.495 117.579 215.991L130.983 199.536L139.617 173.025Z" fill="white"/>
<path d="M170.682 218.173C167.421 226.429 167.062 228.041 169.051 232.169C170.437 235.218 171.529 238.391 172.313 241.646C172.313 241.646 157.196 258.566 135.679 252.231L126.009 246.662C123.998 245.504 122.187 244.03 120.644 242.298L123.588 220.379C123.736 219.225 123.619 218.053 123.245 216.951L120.155 207.906C118.647 203.487 118.423 198.733 119.508 194.193C120.593 189.652 122.943 185.512 126.287 182.25L136.674 172.113L163.955 175.598L168.032 176.762C170.701 177.533 173.002 179.239 174.511 181.568C176.021 183.897 176.639 186.692 176.251 189.439C174.914 199.047 172.728 212.986 170.682 218.173Z" fill="white"/>
<path opacity="0.5" d="M170.682 218.173C167.421 226.429 167.062 228.041 169.051 232.169C170.437 235.218 171.529 238.391 172.313 241.646C172.313 241.646 157.196 258.566 135.679 252.231L126.009 246.662C123.998 245.504 122.187 244.03 120.644 242.298L123.588 220.379C123.736 219.225 123.619 218.053 123.245 216.951L120.155 207.906C118.647 203.487 118.423 198.733 119.508 194.193C120.593 189.652 122.943 185.512 126.287 182.25L136.674 172.113L163.955 175.598L168.032 176.762C170.701 177.533 173.002 179.239 174.511 181.568C176.021 183.897 176.639 186.692 176.251 189.439C174.914 199.047 172.728 212.986 170.682 218.173Z" fill="#273043"/>
<path d="M154.228 193.511L148.766 188.862C148.187 188.367 147.489 188.032 146.742 187.889C145.994 187.747 145.222 187.801 144.501 188.047L137.897 190.319L137.008 186.622C136.87 186.047 136.616 185.506 136.262 185.032C135.908 184.557 135.462 184.159 134.95 183.862C134.438 183.564 133.871 183.374 133.283 183.301C132.695 183.228 132.098 183.275 131.529 183.439L128.667 184.253L133.51 174.987C135.092 171.97 137.528 169.483 140.514 167.839L142.414 166.796L158.109 167.611C158.109 167.611 163.955 170.053 163.955 175.549L154.228 193.462" fill="white"/>
<path d="M158.175 174.555L142.439 186.801V147.809H158.175V174.555Z" fill="#945959"/>
<path d="M142.683 171.339L137.897 190.351L158.109 174.555L142.683 171.339Z" fill="#945959"/>
<path d="M142.439 168.514C145.938 167.217 149.136 165.222 151.84 162.653C154.544 160.083 156.696 156.991 158.166 153.565V147.809H142.43L142.439 168.514Z" fill="#703838"/>
<path d="M145.83 118.912C139.862 118.912 127.175 122.234 125.708 137.834C124.24 153.435 125.659 165.518 133.714 166.69C141.77 167.862 160.49 162.025 163.001 141.832C165.513 121.64 151.644 118.912 145.83 118.912Z" fill="#945959"/>
<path d="M136.438 144.438V153.63L131.04 151.978L136.438 144.438Z" fill="#703838"/>
<path d="M142.438 147.899C143.474 147.899 144.314 147.06 144.314 146.026C144.314 144.992 143.474 144.153 142.438 144.153C141.403 144.153 140.563 144.992 140.563 146.026C140.563 147.06 141.403 147.899 142.438 147.899Z" fill="#33454F"/>
<path d="M131.97 144.723C131.968 145.093 131.857 145.454 131.65 145.761C131.442 146.068 131.149 146.307 130.806 146.447C130.463 146.588 130.087 146.624 129.723 146.551C129.36 146.478 129.027 146.298 128.765 146.036C128.504 145.774 128.326 145.44 128.254 145.077C128.183 144.714 128.22 144.338 128.362 143.996C128.505 143.655 128.745 143.363 129.053 143.157C129.361 142.952 129.724 142.842 130.094 142.842C130.341 142.842 130.586 142.891 130.814 142.986C131.042 143.08 131.249 143.219 131.423 143.394C131.597 143.568 131.735 143.776 131.829 144.004C131.923 144.232 131.971 144.477 131.97 144.723Z" fill="#33454F"/>
<path d="M127.803 140.814L131.472 138.64C131.472 138.64 130.07 137.183 128.667 138.054C127.265 138.925 127.803 140.814 127.803 140.814Z" fill="#33454F"/>
<path d="M133.902 157.359C135.689 157.49 137.467 157.013 138.949 156.008C138.949 156.008 139.299 158.67 137.065 159.175C134.831 159.68 133.902 157.359 133.902 157.359Z" fill="#703838"/>
<path d="M130.698 124.221C130.698 124.221 132.94 145.757 162.268 146.433C162.268 146.433 171.13 125.027 153.617 118.074C136.103 111.121 130.698 124.221 130.698 124.221Z" fill="#33454F"/>
<path d="M170.902 143.209L167.298 141.124C165.928 140.31 164.037 140.424 161.941 141.629C157.783 144.023 154.408 149.861 154.408 154.656C154.408 157.058 155.223 158.727 156.625 159.542L160.164 161.577L160.368 161.691L160.49 161.764C161.827 162.416 163.613 162.261 165.578 161.129C169.736 158.687 173.112 152.898 173.112 148.102C173.087 145.676 172.247 143.998 170.902 143.209Z" fill="white"/>
<path d="M170.874 155.472C173.814 150.386 173.814 144.889 170.874 143.194C167.933 141.498 163.166 144.247 160.225 149.333C157.285 154.419 157.285 159.916 160.225 161.612C163.166 163.307 167.933 160.558 170.874 155.472Z" fill="white"/>
<path opacity="0.5" d="M170.874 155.472C173.814 150.386 173.814 144.889 170.874 143.194C167.933 141.498 163.166 144.247 160.225 149.333C157.285 154.419 157.285 159.916 160.225 161.612C163.166 163.307 167.933 160.558 170.874 155.472Z" fill="black"/>
<path d="M172.345 147.728L169.899 146.303C168.97 145.749 167.673 145.823 166.238 146.645C164.739 147.623 163.492 148.94 162.597 150.489C161.701 152.038 161.184 153.775 161.085 155.561C161.085 157.189 161.664 158.353 162.602 158.891L165.048 160.283C165.091 160.315 165.138 160.342 165.186 160.365L165.268 160.413C165.841 160.631 166.459 160.704 167.068 160.627C167.676 160.551 168.256 160.326 168.758 159.974C170.256 158.996 171.502 157.681 172.398 156.133C173.293 154.586 173.811 152.85 173.911 151.066C173.845 149.413 173.275 148.265 172.345 147.728Z" fill="white"/>
<path d="M173.845 151.05C173.746 152.834 173.228 154.57 172.332 156.117C171.437 157.664 170.19 158.98 168.693 159.957C165.839 161.586 163.531 160.267 163.531 156.985C163.628 155.199 164.146 153.462 165.043 151.914C165.94 150.366 167.19 149.051 168.693 148.078C171.538 146.433 173.845 147.76 173.845 151.05Z" fill="white"/>
<path opacity="0.3" d="M173.845 151.05C173.746 152.834 173.228 154.57 172.332 156.117C171.437 157.664 170.19 158.98 168.693 159.957C165.839 161.586 163.531 160.267 163.531 156.985C163.628 155.199 164.146 153.462 165.043 151.914C165.94 150.366 167.19 149.051 168.693 148.078C171.538 146.433 173.845 147.76 173.845 151.05Z" fill="black"/>
<path d="M159.707 114.711C157.37 112.908 154.507 111.916 151.554 111.886H150.828C147.838 111.854 144.852 112.126 141.917 112.7C142.455 112.7 142.993 112.7 143.547 112.7H141.917V114.214H143.433C148.66 114.392 153.612 116.592 157.244 120.35C160.876 124.107 162.903 129.128 162.895 134.35V140.758C162.895 141.011 162.948 141.262 163.051 141.493C163.154 141.725 163.305 141.932 163.493 142.102C163.681 142.271 163.903 142.399 164.145 142.478C164.386 142.556 164.641 142.583 164.893 142.557H165.081L166.711 142.052C166.603 142.087 166.49 142.108 166.377 142.118C166.863 142.052 167.308 141.809 167.627 141.437C167.946 141.065 168.116 140.588 168.105 140.098V134.155C168.089 123.399 163.434 117.618 159.707 114.711Z" fill="white"/>
<path d="M149.442 166.243C148.77 166.243 148.105 166.098 147.494 165.819L142.398 163.466C142.318 163.438 142.245 163.393 142.184 163.335C142.122 163.277 142.073 163.207 142.04 163.129C142.007 163.051 141.991 162.967 141.992 162.883C141.993 162.798 142.012 162.715 142.047 162.638C142.082 162.561 142.133 162.492 142.196 162.436C142.259 162.379 142.333 162.337 142.414 162.311C142.494 162.284 142.579 162.275 142.664 162.283C142.748 162.292 142.829 162.317 142.903 162.359L147.999 164.712C148.649 165.014 149.377 165.105 150.082 164.974C150.786 164.843 151.432 164.495 151.929 163.979L156.821 158.931C156.936 158.817 157.091 158.752 157.253 158.752C157.415 158.752 157.571 158.817 157.685 158.931C157.798 159.047 157.861 159.201 157.861 159.363C157.861 159.524 157.798 159.679 157.685 159.794L152.793 164.842C152.358 165.289 151.837 165.643 151.261 165.884C150.685 166.124 150.066 166.246 149.442 166.243Z" fill="white"/>
<path opacity="0.5" d="M149.442 166.243C148.77 166.243 148.105 166.098 147.494 165.819L142.398 163.466C142.318 163.438 142.245 163.393 142.184 163.335C142.122 163.277 142.073 163.207 142.04 163.129C142.007 163.051 141.991 162.967 141.992 162.883C141.993 162.798 142.012 162.715 142.047 162.638C142.082 162.561 142.133 162.492 142.196 162.436C142.259 162.379 142.333 162.337 142.414 162.311C142.494 162.284 142.579 162.275 142.664 162.283C142.748 162.292 142.829 162.317 142.903 162.359L147.999 164.712C148.649 165.014 149.377 165.105 150.082 164.974C150.786 164.843 151.432 164.495 151.929 163.979L156.821 158.931C156.936 158.817 157.091 158.752 157.253 158.752C157.415 158.752 157.571 158.817 157.685 158.931C157.798 159.047 157.861 159.201 157.861 159.363C157.861 159.524 157.798 159.679 157.685 159.794L152.793 164.842C152.358 165.289 151.837 165.643 151.261 165.884C150.685 166.124 150.066 166.246 149.442 166.243Z" fill="black"/>
<path d="M143.735 161.756C143.735 162.227 143.595 162.686 143.334 163.077C143.072 163.468 142.7 163.773 142.265 163.953C141.83 164.133 141.351 164.18 140.89 164.088C140.428 163.996 140.004 163.77 139.671 163.438C139.338 163.105 139.111 162.681 139.019 162.22C138.927 161.759 138.974 161.281 139.155 160.847C139.335 160.412 139.64 160.041 140.031 159.78C140.423 159.518 140.883 159.379 141.354 159.379C141.986 159.379 142.591 159.629 143.038 160.075C143.484 160.521 143.735 161.126 143.735 161.756Z" fill="white"/>
<path opacity="0.5" d="M143.735 161.756C143.735 162.227 143.595 162.686 143.334 163.077C143.072 163.468 142.7 163.773 142.265 163.953C141.83 164.133 141.351 164.18 140.89 164.088C140.428 163.996 140.004 163.77 139.671 163.438C139.338 163.105 139.111 162.681 139.019 162.22C138.927 161.759 138.974 161.281 139.155 160.847C139.335 160.412 139.64 160.041 140.031 159.78C140.423 159.518 140.883 159.379 141.354 159.379C141.986 159.379 142.591 159.629 143.038 160.075C143.484 160.521 143.735 161.126 143.735 161.756Z" fill="black"/>
<path d="M168.089 134.155V140.099C168.1 140.589 167.929 141.065 167.61 141.438C167.292 141.81 166.847 142.052 166.361 142.118C166.092 142.147 165.82 142.119 165.563 142.035C165.307 141.952 165.07 141.816 164.869 141.635C164.669 141.455 164.508 141.234 164.398 140.988C164.289 140.741 164.232 140.474 164.233 140.205V134.155C164.237 131.268 163.657 128.41 162.526 125.752C161.396 123.095 159.739 120.693 157.655 118.692C155.571 116.691 153.103 115.131 150.4 114.107C147.696 113.083 144.814 112.616 141.925 112.733C144.86 112.16 147.846 111.887 150.837 111.919H151.546C154.499 111.949 157.362 112.941 159.699 114.744C163.434 117.619 168.089 123.399 168.089 134.155Z" fill="white"/>
<path opacity="0.5" d="M168.089 134.155V140.099C168.1 140.589 167.929 141.065 167.61 141.438C167.292 141.81 166.847 142.052 166.361 142.118C166.092 142.147 165.82 142.119 165.563 142.035C165.307 141.952 165.07 141.816 164.869 141.635C164.669 141.455 164.508 141.234 164.398 140.988C164.289 140.741 164.232 140.474 164.233 140.205V134.155C164.237 131.268 163.657 128.41 162.526 125.752C161.396 123.095 159.739 120.693 157.655 118.692C155.571 116.691 153.103 115.131 150.4 114.107C147.696 113.083 144.814 112.616 141.925 112.733C144.86 112.16 147.846 111.887 150.837 111.919H151.546C154.499 111.949 157.362 112.941 159.699 114.744C163.434 117.619 168.089 123.399 168.089 134.155Z" fill="black"/>
<path d="M158.925 246.166C158.925 246.166 154.978 257.019 169.084 261.904C169.084 261.904 173.691 255.146 169.084 249.618C164.477 244.089 158.925 246.166 158.925 246.166Z" fill="white"/>
<path opacity="0.7" d="M158.925 246.166C158.925 246.166 154.978 257.019 169.084 261.904C169.084 261.904 173.691 255.146 169.084 249.618C164.477 244.089 158.925 246.166 158.925 246.166Z" fill="black"/>
<path d="M163.874 246.662C163.874 246.662 150.095 251.702 150.168 253.656C150.241 255.61 156.022 254.275 156.022 254.275L153.91 255.659C151.687 257.108 149.964 259.206 148.978 261.668C148.762 262.211 148.755 262.814 148.956 263.362C149.158 263.91 149.554 264.365 150.07 264.64L155.305 267.408C155.6 267.565 155.924 267.661 156.258 267.69C156.591 267.719 156.927 267.682 157.245 267.579C157.564 267.477 157.858 267.312 158.112 267.093C158.365 266.875 158.572 266.608 158.721 266.309C159.013 265.733 159.416 265.221 159.907 264.802C160.398 264.383 160.968 264.065 161.583 263.866C164.428 262.922 169.736 260.202 171.864 252.761L163.874 246.662Z" fill="#945959"/>
<path d="M168.008 176.746C168.008 176.746 160.67 180.817 164.567 193.177C168.464 205.537 175.778 224.711 175.778 224.711L158.925 246.166C160.725 246.383 162.46 246.976 164.015 247.908C165.57 248.839 166.911 250.088 167.951 251.572C168.946 253.081 169.568 254.805 169.765 256.602C169.962 258.398 169.729 260.216 169.084 261.904L190.006 235.035C191.94 232.552 193.225 229.627 193.743 226.524C194.261 223.42 193.997 220.237 192.973 217.261L184.005 191.109C182.908 187.914 181.086 185.016 178.682 182.642C176.277 180.267 173.355 178.481 170.144 177.422L168.008 176.746Z" fill="white"/>
<path d="M44.1409 103.736L11.7148 85.0088C11.3416 84.7505 10.9099 84.5892 10.4586 84.5394C10.0073 84.4897 9.55075 84.553 9.13015 84.7238C9.04151 84.7647 8.95689 84.8137 8.8774 84.8704L1.82469 88.9984H1.87361C0.984887 89.5032 0.422302 90.6757 0.422302 92.3529V128.374C0.422302 131.419 2.27313 134.961 4.56424 136.28L36.9904 155.007C37.4018 155.304 37.8916 155.474 38.3989 155.495C38.9062 155.517 39.4087 155.39 39.8441 155.129C39.822 155.137 39.8025 155.151 39.787 155.169L46.7908 151.098C47.704 150.61 48.2829 149.421 48.2829 147.719V111.642C48.2829 108.596 46.4647 105.055 44.1409 103.736Z" fill="white"/>
<path d="M47.1251 107.147C46.4691 105.754 45.4353 104.572 44.1409 103.736L11.7148 85.0088C11.3416 84.7505 10.9099 84.5892 10.4586 84.5394C10.0073 84.4897 9.55073 84.553 9.13014 84.7238C9.0415 84.7647 8.95688 84.8137 8.87739 84.8704L1.82468 88.9984C2.2561 88.7782 2.73985 88.6807 3.22303 88.7166C3.70621 88.7525 4.17019 88.9204 4.56423 89.202L36.9904 107.929C38.3288 108.803 39.3895 110.04 40.0479 111.495L47.1251 107.147Z" fill="white"/>
<path d="M41.1323 151.84C41.1323 153.468 40.6105 154.6 39.787 155.096L46.7908 151.025C47.704 150.537 48.2828 149.348 48.2828 147.646V111.642C48.2484 110.075 47.8522 108.537 47.1251 107.147L40.0479 111.495C40.7274 112.844 41.0978 114.326 41.1323 115.835V151.84Z" fill="white"/>
<path opacity="0.3" d="M47.1251 107.147C46.4691 105.754 45.4353 104.572 44.1409 103.736L11.7148 85.0088C11.3416 84.7505 10.9099 84.5892 10.4586 84.5394C10.0073 84.4897 9.55073 84.553 9.13014 84.7238C9.0415 84.7647 8.95688 84.8137 8.87739 84.8704L1.82468 88.9984C2.2561 88.7782 2.73985 88.6807 3.22303 88.7166C3.70621 88.7525 4.17019 88.9204 4.56423 89.202L36.9904 107.929C38.3288 108.803 39.3895 110.04 40.0479 111.495L47.1251 107.147Z" fill="black"/>
<path opacity="0.6" d="M41.1323 151.84C41.1323 153.468 40.6105 154.6 39.787 155.096L46.7908 151.025C47.704 150.537 48.2828 149.348 48.2828 147.646V111.642C48.2484 110.075 47.8522 108.537 47.1251 107.147L40.0479 111.495C40.7274 112.844 41.0978 114.326 41.1323 115.835V151.84Z" fill="black"/>
<path d="M31.6254 126.151C31.6254 130.817 29.7746 132.404 27.0024 130.8C26.2377 130.366 25.569 129.781 25.0365 129.081C24.504 128.381 24.1188 127.581 23.9041 126.729C23.0888 127.731 21.825 127.796 20.0475 126.77C17.1286 125.085 14.8293 121.071 14.8293 117.17C14.8293 113.27 17.1041 111.927 20.0475 113.62C21.5411 114.499 22.7476 115.792 23.5209 117.341V115.803L26.5947 117.578V126.013C26.549 126.457 26.6258 126.905 26.817 127.308C27.0082 127.711 27.3063 128.055 27.6791 128.301C28.7146 128.903 29.3506 127.885 29.3506 124.865C29.3506 119.581 25.9588 113.979 20.9444 111.088C15.9301 108.198 12.5464 110.209 12.5464 115.648C12.6121 118.534 13.4084 121.356 14.8612 123.852C16.314 126.348 18.3759 128.436 20.8547 129.921C22.2006 130.749 23.729 131.235 25.3065 131.338L26.0321 134.147C24.1954 133.999 22.4205 133.415 20.8547 132.445C14.332 128.675 10.0188 121.087 10.0188 114.215C10.0188 107.343 14.3728 104.851 20.9444 108.646C27.2959 112.301 31.6254 119.621 31.6254 126.151ZM23.5698 122.235C23.5857 121.202 23.3334 120.183 22.8376 119.277C22.3417 118.371 21.6193 117.609 20.7406 117.065C19.1099 116.112 17.9439 116.78 17.9439 118.994C17.923 120.028 18.1693 121.05 18.6592 121.962C19.1491 122.873 19.8659 123.643 20.7406 124.197C22.3713 125.117 23.5698 124.523 23.5698 122.235Z" fill="white"/>
<g opacity="0.9">
<path d="M31.6254 126.151C31.6254 130.817 29.7746 132.404 27.0024 130.8C26.2377 130.366 25.569 129.781 25.0365 129.081C24.504 128.381 24.1188 127.581 23.9041 126.729C23.0888 127.731 21.825 127.796 20.0475 126.77C17.1286 125.085 14.8293 121.071 14.8293 117.17C14.8293 113.27 17.1041 111.927 20.0475 113.62C21.5411 114.499 22.7476 115.792 23.5209 117.341V115.803L26.5947 117.578V126.013C26.549 126.457 26.6258 126.905 26.817 127.308C27.0082 127.711 27.3063 128.055 27.6791 128.301C28.7146 128.903 29.3506 127.885 29.3506 124.865C29.3506 119.581 25.9588 113.979 20.9444 111.088C15.9301 108.198 12.5464 110.209 12.5464 115.648C12.6121 118.534 13.4084 121.356 14.8612 123.852C16.314 126.348 18.3759 128.436 20.8547 129.921C22.2006 130.749 23.729 131.235 25.3065 131.338L26.0321 134.147C24.1954 133.999 22.4205 133.415 20.8547 132.445C14.332 128.675 10.0188 121.087 10.0188 114.215C10.0188 107.343 14.3728 104.851 20.9444 108.646C27.2959 112.301 31.6254 119.621 31.6254 126.151ZM23.5698 122.235C23.5857 121.202 23.3334 120.183 22.8376 119.277C22.3417 118.371 21.6193 117.609 20.7406 117.065C19.1099 116.112 17.9439 116.78 17.9439 118.994C17.923 120.028 18.1693 121.05 18.6592 121.962C19.1491 122.873 19.8659 123.643 20.7406 124.197C22.3713 125.117 23.5698 124.523 23.5698 122.235Z" fill="#E4334F"/>
</g>
<path d="M44.1409 167.879L11.7148 149.152C11.3421 148.892 10.9099 148.731 10.458 148.682C10.0062 148.634 9.54947 148.7 9.13015 148.875C9.04151 148.916 8.95689 148.965 8.8774 149.022L1.82469 153.15H1.87361C0.984887 153.655 0.422302 154.827 0.422302 156.496V192.501C0.422302 195.554 2.27313 199.088 4.56424 200.407L36.9904 219.133C37.401 219.433 37.891 219.604 38.3987 219.626C38.9065 219.647 39.4094 219.519 39.8441 219.256L39.787 219.304L46.7908 215.193C47.704 214.712 48.2829 213.564 48.2829 211.814V175.777C48.2829 172.732 46.4647 169.198 44.1409 167.879Z" fill="white"/>
<path d="M47.1251 171.29C46.4713 169.896 45.437 168.713 44.1409 167.879L11.7148 149.152C11.3421 148.892 10.9099 148.731 10.458 148.682C10.0062 148.634 9.54946 148.7 9.13014 148.875C9.0415 148.916 8.95688 148.965 8.87739 149.022L1.82468 153.15C2.25512 152.928 2.73862 152.828 3.22198 152.863C3.70533 152.897 4.16979 153.064 4.56423 153.345L36.9904 172.072C38.3309 172.947 39.392 174.188 40.0479 175.646L47.1251 171.29Z" fill="white"/>
<path d="M41.1323 215.975C41.1323 217.603 40.6105 218.735 39.787 219.272L46.7908 215.161C47.704 214.68 48.2828 213.532 48.2828 211.782V175.777C48.2483 174.213 47.8521 172.677 47.1251 171.291L40.0479 175.639C40.7273 176.984 41.0977 178.464 41.1323 179.97V215.975Z" fill="white"/>
<path opacity="0.3" d="M47.1251 171.29C46.4713 169.896 45.437 168.713 44.1409 167.879L11.7148 149.152C11.3421 148.892 10.9099 148.731 10.458 148.682C10.0062 148.634 9.54946 148.7 9.13014 148.875C9.0415 148.916 8.95688 148.965 8.87739 149.022L1.82468 153.15C2.25512 152.928 2.73862 152.828 3.22198 152.863C3.70533 152.897 4.16979 153.064 4.56423 153.345L36.9904 172.072C38.3309 172.947 39.392 174.188 40.0479 175.646L47.1251 171.29Z" fill="black"/>
<path opacity="0.6" d="M41.1323 215.975C41.1323 217.603 40.6105 218.735 39.787 219.272L46.7908 215.161C47.704 214.68 48.2828 213.532 48.2828 211.782V175.777C48.2483 174.213 47.8521 172.677 47.1251 171.291L40.0479 175.639C40.7273 176.984 41.0977 178.464 41.1323 179.97V215.975Z" fill="black"/>
<path d="M17.1531 183.976L9.33395 171.291V188.479L17.1531 183.976Z" fill="white"/>
<path d="M24.4178 187.633L32.2206 201.124V183.96L24.4178 187.633Z" fill="white"/>
<path d="M10.5162 170.712L18.5473 183.74C18.5813 183.768 18.6115 183.801 18.637 183.837C18.6441 183.87 18.6441 183.903 18.637 183.935L21.026 187.811L23.048 186.858C23.0795 186.824 23.1151 186.794 23.154 186.769C23.2337 186.722 23.3229 186.694 23.4149 186.687L31.5683 182.869L10.5162 170.712Z" fill="white"/>
<path d="M23.2355 188.186L21.0504 189.212C20.9662 189.251 20.8742 189.27 20.7814 189.269C20.6688 189.27 20.5579 189.242 20.4593 189.188C20.3607 189.134 20.2779 189.055 20.2188 188.959L17.8298 185.083L9.98624 189.611L31.0954 201.775L23.2355 188.186Z" fill="white"/>
<g opacity="0.9">
<path d="M17.1531 183.976L9.33395 171.291V188.479L17.1531 183.976Z" fill="#E4334F"/>
<path d="M24.4178 187.633L32.2206 201.124V183.96L24.4178 187.633Z" fill="#E4334F"/>
<path d="M10.5162 170.712L18.5473 183.74C18.5813 183.768 18.6114 183.801 18.637 183.837C18.644 183.87 18.644 183.903 18.637 183.935L21.0259 187.811L23.048 186.858C23.0795 186.824 23.1151 186.794 23.154 186.769C23.2337 186.722 23.3229 186.694 23.4149 186.687L31.5683 182.869L10.5162 170.712Z" fill="#E4334F"/>
<path d="M23.2355 188.186L21.0504 189.212C20.9662 189.251 20.8742 189.271 20.7814 189.269C20.6688 189.27 20.5579 189.242 20.4593 189.188C20.3607 189.134 20.2779 189.055 20.2188 188.96L17.8298 185.084L9.98624 189.611L31.0954 201.775L23.2355 188.186Z" fill="#E4334F"/>
</g>
<path d="M44.1409 39.625L11.7147 20.8981C11.3421 20.6384 10.9098 20.4768 10.458 20.4285C10.0062 20.3801 9.54941 20.4464 9.13009 20.6213C9.04145 20.6621 8.95683 20.7112 8.87734 20.7678L1.82463 24.8959H1.87355C0.984826 25.3925 0.422241 26.5731 0.422241 28.2423V64.2467C0.422241 67.2918 2.27307 70.8337 4.56418 72.1527L36.9903 90.8795C37.4009 91.1787 37.8909 91.3499 38.3987 91.3716C38.9065 91.3934 39.4093 91.2647 39.844 91.0017L39.7869 91.0424L46.7907 86.9713C47.7039 86.4909 48.2828 85.3429 48.2828 83.5924V47.4984C48.2828 44.4532 46.4646 40.9114 44.1409 39.625Z" fill="white"/>
<path d="M47.1251 43.0121C46.4714 41.6151 45.4373 40.43 44.1409 39.5924L11.7148 20.8981C11.3421 20.6384 10.9099 20.4768 10.458 20.4285C10.0062 20.3801 9.54946 20.4464 9.13014 20.6213C9.0415 20.6621 8.95688 20.7112 8.87739 20.7678L1.82468 24.8959C2.25512 24.6736 2.73862 24.5742 3.22198 24.6087C3.70533 24.6432 4.16979 24.8102 4.56423 25.0913L36.9904 43.8181C38.3309 44.6931 39.392 45.9336 40.0479 47.3925L47.1251 43.0121Z" fill="white"/>
<path d="M41.1323 87.6635C41.1323 89.292 40.6105 90.4237 39.787 90.9204L46.7908 86.8493C47.704 86.3689 48.2828 85.2209 48.2828 83.4704V47.4985C48.2483 45.934 47.8521 44.3986 47.1251 43.0122L40.0479 47.3601C40.7273 48.7055 41.0977 50.1853 41.1323 51.6917V87.6635Z" fill="white"/>
<path opacity="0.3" d="M47.1251 43.0121C46.4714 41.6151 45.4373 40.43 44.1409 39.5924L11.7148 20.8981C11.3421 20.6384 10.9099 20.4768 10.458 20.4285C10.0062 20.3801 9.54946 20.4464 9.13014 20.6213C9.0415 20.6621 8.95688 20.7112 8.87739 20.7678L1.82468 24.8959C2.25512 24.6736 2.73862 24.5742 3.22198 24.6087C3.70533 24.6432 4.16979 24.8102 4.56423 25.0913L36.9904 43.8181C38.3309 44.6931 39.392 45.9336 40.0479 47.3925L47.1251 43.0121Z" fill="black"/>
<path opacity="0.6" d="M41.1323 87.6635C41.1323 89.292 40.6105 90.4237 39.787 90.9204L46.7908 86.8493C47.704 86.3689 48.2828 85.2209 48.2828 83.4704V47.4985C48.2483 45.934 47.8521 44.3986 47.1251 43.0122L40.0479 47.3601C40.7273 48.7055 41.0977 50.1853 41.1323 51.6917V87.6635Z" fill="black"/>
<path d="M30.5247 72.1932C29.2772 70.1413 28.0216 68.1221 26.7741 66.054C26.5762 65.6623 26.2996 65.3155 25.9615 65.0353C25.6234 64.7551 25.2311 64.5476 24.8091 64.4256C24.2058 64.3034 23.6024 64.165 22.9828 63.9859C22.7621 63.894 22.5764 63.7343 22.4528 63.5299C20.4115 60.0412 18.7887 56.3245 17.6178 52.4567C17.5929 52.374 17.5858 52.287 17.5971 52.2014C17.6083 52.1157 17.6376 52.0335 17.683 51.96C18.0662 51.5773 18.4984 51.2272 18.8897 50.8853C19.2811 50.5433 19.4849 49.7535 19.1996 48.7276C18.5962 46.5536 18.0173 44.3797 17.414 42.2139C17.2972 41.5985 17.0202 41.0247 16.6109 40.5502C16.2015 40.0756 15.6743 39.7171 15.0821 39.5107C13.7673 39.1457 12.3714 39.1969 11.0869 39.6573C10.5896 39.8445 10.3286 40.2924 10.3205 41.0659C10.5325 42.5559 10.6711 44.0296 10.9565 45.544C12.9676 56.4653 17.8053 66.5072 25.4696 75.6698C25.6696 75.9737 25.9384 76.2263 26.2543 76.4073C26.5701 76.5884 26.9241 76.6927 27.2878 76.712C28.5566 76.6819 29.7757 76.2128 30.7367 75.3849C31.4623 74.7335 31.3889 73.5773 30.5247 72.1932Z" fill="white"/>
<path d="M30.4269 61.0954C30.2563 58.7535 29.6099 56.4707 28.5271 54.3863C27.7187 52.758 26.6899 51.2484 25.4696 49.9C25.1516 49.5418 24.8825 49.4278 24.7195 49.6965C24.5564 49.9652 24.7195 50.3478 25.0293 50.698L25.3473 51.0644C27.6009 53.6621 29.0211 56.876 29.424 60.2894C29.42 60.5383 29.4446 60.7869 29.4974 61.0303C29.5998 61.3103 29.7642 61.5636 29.9784 61.7712C30.1496 61.8934 30.3453 61.7712 30.4839 61.7712C30.435 61.4374 30.4432 61.2664 30.4269 61.0954Z" fill="white"/>
<path d="M23.0399 54.4108C24.0637 55.5354 24.6859 56.9669 24.8092 58.4818C24.8629 58.7122 24.9479 58.9341 25.0619 59.1413C25.5593 59.5484 25.8039 59.41 25.8039 58.8971C25.6295 56.9547 24.8251 55.1222 23.5128 53.678C23.2029 53.3604 22.9502 53.2627 22.8034 53.5314C22.7506 53.6848 22.7449 53.8505 22.787 54.0072C22.8292 54.1639 22.9172 54.3044 23.0399 54.4108Z" fill="white"/>
<g opacity="0.9">
<path d="M30.5247 72.1932C29.2772 70.1413 28.0216 68.1221 26.7741 66.054C26.5762 65.6623 26.2996 65.3155 25.9615 65.0353C25.6234 64.7551 25.2311 64.5476 24.8091 64.4256C24.2058 64.3034 23.6024 64.165 22.9828 63.9859C22.7621 63.894 22.5764 63.7343 22.4528 63.5299C20.4115 60.0412 18.7887 56.3245 17.6178 52.4567C17.5929 52.374 17.5858 52.287 17.5971 52.2014C17.6083 52.1157 17.6376 52.0335 17.683 51.96C18.0662 51.5773 18.4984 51.2272 18.8897 50.8853C19.2811 50.5433 19.4849 49.7535 19.1996 48.7276C18.5962 46.5536 18.0173 44.3797 17.414 42.2139C17.2972 41.5985 17.0202 41.0247 16.6109 40.5502C16.2015 40.0756 15.6743 39.7171 15.0821 39.5107C13.7673 39.1457 12.3714 39.1969 11.0869 39.6573C10.5896 39.8445 10.3286 40.2924 10.3205 41.0659C10.5325 42.5559 10.6711 44.0296 10.9565 45.544C12.9676 56.4653 17.8053 66.5072 25.4696 75.6698C25.6696 75.9737 25.9384 76.2263 26.2543 76.4073C26.5701 76.5884 26.9241 76.6927 27.2878 76.712C28.5566 76.6819 29.7757 76.2128 30.7367 75.3849C31.4623 74.7335 31.3889 73.5773 30.5247 72.1932Z" fill="#E4334F"/>
<path d="M30.4268 61.0954C30.2562 58.7535 29.6098 56.4707 28.527 54.3863C27.7186 52.758 26.6898 51.2484 25.4695 49.9C25.1515 49.5418 24.8824 49.4278 24.7194 49.6965C24.5563 49.9652 24.7194 50.3478 25.0292 50.698L25.3472 51.0644C27.6008 53.6621 29.0211 56.876 29.4239 60.2894C29.4199 60.5383 29.4445 60.7869 29.4973 61.0303C29.5997 61.3103 29.7641 61.5636 29.9783 61.7712C30.1496 61.8934 30.3452 61.7712 30.4838 61.7712C30.4349 61.4374 30.4431 61.2664 30.4268 61.0954Z" fill="#E4334F"/>
<path d="M23.0398 54.4108C24.0637 55.5354 24.6858 56.9669 24.8091 58.4818C24.8628 58.7122 24.9478 58.9341 25.0618 59.1413C25.5592 59.5484 25.8038 59.41 25.8038 58.8971C25.6295 56.9547 24.825 55.1222 23.5127 53.678C23.2029 53.3604 22.9501 53.2627 22.8034 53.5314C22.7506 53.6848 22.7449 53.8505 22.787 54.0072C22.8291 54.1639 22.9171 54.3044 23.0398 54.4108Z" fill="#E4334F"/>
</g>
</svg>
