<svg width="94" height="94" viewBox="0 0 94 94" fill="none" xmlns="http://www.w3.org/2000/svg">
<circle cx="47" cy="47" r="47" fill="#3A0CA3" fill-opacity="0.29"/>
<circle cx="47" cy="47" r="37" fill="#3A0CA3"/>
<path d="M67.6023 42.7031H56.6023C56.4133 42.7031 56.2586 42.8578 56.2586 43.0469V45.1094C56.2586 45.2984 56.4133 45.4531 56.6023 45.4531H67.6023C67.7914 45.4531 67.9461 45.2984 67.9461 45.1094V43.0469C67.9461 42.8578 67.7914 42.7031 67.6023 42.7031ZM61.8445 48.5469H56.6023C56.4133 48.5469 56.2586 48.7016 56.2586 48.8906V50.9531C56.2586 51.1422 56.4133 51.2969 56.6023 51.2969H61.8445C62.0336 51.2969 62.1883 51.1422 62.1883 50.9531V48.8906C62.1883 48.7016 62.0336 48.5469 61.8445 48.5469ZM47.5059 38.8574H45.6453C45.3789 38.8574 45.1641 39.0723 45.1641 39.3387V49.9949C45.1641 50.1496 45.2371 50.2914 45.3617 50.3816L51.7598 55.048C51.9746 55.2027 52.2754 55.1598 52.4301 54.9449L53.5344 53.4367V53.4324C53.6891 53.2176 53.6418 52.9168 53.427 52.7621L47.9828 48.8262V39.3387C47.9871 39.0723 47.768 38.8574 47.5059 38.8574Z" fill="white"/>
<path d="M61.5813 53.9566H59.0977C58.8571 53.9566 58.6293 54.0813 58.5004 54.2875C57.9547 55.1512 57.3188 55.9504 56.5883 56.6809C55.3293 57.9398 53.8641 58.9281 52.2356 59.6156C50.5469 60.3289 48.7551 60.6898 46.9074 60.6898C45.0555 60.6898 43.2637 60.3289 41.5793 59.6156C39.9508 58.9281 38.4856 57.9398 37.2266 56.6809C35.9676 55.4219 34.9793 53.9566 34.2918 52.3281C33.5785 50.6438 33.2176 48.852 33.2176 47C33.2176 45.1481 33.5785 43.3606 34.2918 41.6719C34.9793 40.0434 35.9676 38.5781 37.2266 37.3191C38.4856 36.0602 39.9508 35.0719 41.5793 34.3844C43.2637 33.6711 45.0598 33.3102 46.9074 33.3102C48.7594 33.3102 50.5512 33.6711 52.2356 34.3844C53.8641 35.0719 55.3293 36.0602 56.5883 37.3191C57.3188 38.0496 57.9547 38.8488 58.5004 39.7125C58.6293 39.9188 58.8571 40.0434 59.0977 40.0434H61.5813C61.8778 40.0434 62.0668 39.734 61.9336 39.4719C59.1321 33.8988 53.4516 30.2766 47.1094 30.2035C37.8239 30.0875 30.111 37.6887 30.0938 46.9656C30.0766 56.2598 37.609 63.8008 46.9032 63.8008C53.327 63.8008 59.102 60.1656 61.9336 54.5281C62.0668 54.266 61.8735 53.9566 61.5813 53.9566Z" fill="white"/>
</svg>
